# Blender v2.93.6 OBJ File: 'assets.blend'
# www.blender.org
mtllib building_d.mtl
o Cube.004_Cube.037
v -12.510726 -0.002611 0.352385
v -12.510726 0.292969 0.352385
v -12.510726 -0.002611 -0.205780
v -12.510726 0.292969 -0.205780
v -12.030233 -0.002611 0.352385
v -12.030233 0.292969 0.352385
v -12.030233 -0.002611 -0.205780
v -12.030233 0.292969 -0.205780
v -12.534479 0.345479 0.372731
v -12.534479 0.345479 -0.226125
v -12.006480 0.579307 -0.226125
v -12.006480 0.579307 0.372731
v -12.559644 0.292969 0.394285
v -12.559644 0.292969 -0.247679
v -11.981316 0.292969 -0.247679
v -11.981316 0.292969 0.394285
v -12.559644 0.345479 0.394285
v -12.559644 0.345479 -0.247679
v -11.981316 0.579307 -0.247679
v -11.981316 0.579307 0.394285
v -12.345250 -0.002611 -0.205780
v -12.345250 0.292969 -0.205780
v -12.345250 -0.002611 0.352385
v -12.345250 0.292969 0.352385
v -12.352643 0.579307 -0.226125
v -12.352643 0.579307 0.372731
v -12.360475 0.292969 -0.247679
v -12.360475 0.292969 0.394285
v -12.352643 0.579307 -0.247679
v -12.352643 0.579307 0.394285
v -12.427988 -0.002611 -0.205780
v -12.427988 0.292969 0.352385
v -12.443562 0.387826 0.372731
v -12.460059 0.292969 0.394285
v -12.443562 0.387826 0.394285
v -12.427988 0.292969 -0.205780
v -12.427988 -0.002611 0.352385
v -12.443562 0.387826 -0.226125
v -12.460059 0.292969 -0.247679
v -12.443562 0.387826 -0.247679
v -12.386620 0.292969 -0.205780
v -12.386620 -0.002611 0.352385
v -12.398102 0.437537 -0.226125
v -12.410267 0.292969 -0.247679
v -12.398102 0.437537 -0.247679
v -12.386620 -0.002611 -0.205780
v -12.386620 0.292969 0.352385
v -12.398102 0.437537 0.372731
v -12.410267 0.292969 0.394285
v -12.398102 0.437537 0.394285
v -12.469357 -0.002611 -0.205780
v -12.469357 0.292969 0.352385
v -12.489020 0.360208 0.372731
v -12.509851 0.292969 0.394285
v -12.489020 0.360208 0.394285
v -12.469357 0.292969 -0.205780
v -12.469357 -0.002611 0.352385
v -12.489020 0.360208 -0.226125
v -12.509851 0.292969 -0.247679
v -12.489020 0.360208 -0.247679
v -12.334664 0.292969 -0.205780
v -12.334664 -0.002611 0.352385
v -12.334664 0.579307 -0.226125
v -12.334664 0.292969 -0.247679
v -12.334664 0.579307 -0.247679
v -12.334664 -0.002611 -0.205780
v -12.334664 0.292969 0.352385
v -12.334664 0.579307 0.372731
v -12.334664 0.292969 0.394285
v -12.334664 0.579307 0.394285
v -12.334664 0.602638 -0.226125
v -12.006480 0.602638 -0.226125
v -12.006480 0.602638 0.372731
v -12.334664 0.602638 -0.247679
v -11.981316 0.602638 -0.247679
v -11.981316 0.602638 0.394285
v -12.334664 0.602638 0.372731
v -12.352643 0.602638 0.372731
v -12.334664 0.602638 0.394285
v -12.352643 0.602638 0.394285
v -12.352643 0.602638 -0.226125
v -12.352643 0.602638 -0.247679
v -12.146257 0.292969 -0.205780
v -12.146257 -0.002611 0.352385
v -12.131557 0.579307 -0.226125
v -12.115984 0.292969 -0.247679
v -12.115984 0.579307 -0.247679
v -12.146257 -0.002611 -0.205780
v -12.146257 0.292969 0.352385
v -12.131557 0.579307 0.372731
v -12.115984 0.292969 0.394285
v -12.115984 0.579307 0.394285
v -12.131557 0.602638 -0.226125
v -12.115984 0.602638 -0.247679
v -12.131557 0.602638 0.372731
v -12.115984 0.602638 0.394285
v -12.510726 0.154748 0.352385
v -12.510726 0.154748 -0.205780
v -12.030233 0.154748 -0.205780
v -12.030233 0.154748 0.352385
v -12.345250 0.154748 0.352385
v -12.345250 0.154748 -0.205780
v -12.427988 0.154748 -0.205780
v -12.427988 0.154748 0.352385
v -12.386620 0.154748 0.352385
v -12.386620 0.154748 -0.205780
v -12.469357 0.154748 -0.205780
v -12.469357 0.154748 0.352385
v -12.334664 0.154748 0.352385
v -12.334664 0.154748 -0.205780
v -12.146257 0.154748 0.352385
v -12.146257 0.154748 -0.205780
v -12.030233 0.022627 0.501888
v -12.030233 -0.002611 0.501888
v -12.146257 -0.002611 0.501888
v -12.146257 0.022627 0.501888
v -12.030233 0.067591 0.427137
v -12.030233 -0.002611 0.427137
v -12.146257 0.067591 0.427137
v -12.146257 -0.002611 0.427137
v -12.030233 -0.002611 0.389761
v -12.030233 0.104776 0.389761
v -12.146257 0.104776 0.389761
v -12.146257 -0.002611 0.389761
v -12.030233 0.031897 0.464512
v -12.146257 0.031897 0.464512
v -12.146257 -0.002611 0.464512
v -12.030233 -0.002611 0.464512
v -12.510726 0.167853 0.352385
v -12.510726 0.167853 -0.205780
v -12.030233 0.167853 -0.205780
v -12.030233 0.167853 0.352385
v -12.345250 0.167853 0.352385
v -12.345250 0.167853 -0.205780
v -12.427988 0.167853 -0.205780
v -12.427988 0.167853 0.352385
v -12.386620 0.167853 0.352385
v -12.386620 0.167853 -0.205780
v -12.469357 0.167853 -0.205780
v -12.469357 0.167853 0.352385
v -12.334664 0.167853 0.352385
v -12.334664 0.167853 -0.205780
v -12.146257 0.167853 0.352385
v -12.146257 0.167853 -0.205780
v -12.520465 0.168412 -0.225648
v -12.520465 0.154188 -0.225648
v -12.345250 0.168412 0.380201
v -12.345250 0.154188 0.380201
v -12.340852 0.168412 -0.225648
v -12.340852 0.154188 -0.225648
v -12.430658 0.168412 -0.225648
v -12.430658 0.154188 -0.225648
v -12.430658 0.168412 0.380201
v -12.430658 0.154188 0.380201
v -12.385756 0.168412 0.380201
v -12.385756 0.154188 0.380201
v -12.385756 0.168412 -0.225648
v -12.385756 0.154188 -0.225648
v -12.475561 0.168412 -0.225648
v -12.475561 0.154188 -0.225648
v -12.475561 0.168412 0.380201
v -12.475561 0.154188 0.380201
v -12.329362 0.168412 -0.225648
v -12.329362 0.154188 -0.225648
v -12.146257 0.168412 -0.225648
v -12.146257 0.154188 -0.225648
v -12.520465 0.154188 0.380201
v -12.520465 0.168412 0.380201
v -12.335392 0.653049 0.403917
v -12.335392 0.653049 0.382037
v -12.378398 0.635235 0.403917
v -12.378398 0.635235 0.382037
v -12.396212 0.592229 0.403917
v -12.396212 0.592229 0.382037
v -12.378398 0.549223 0.403917
v -12.378398 0.549223 0.382037
v -12.335392 0.531409 0.403917
v -12.335392 0.531409 0.382037
v -12.292385 0.549223 0.403917
v -12.292385 0.549223 0.382037
v -12.274571 0.592229 0.403917
v -12.274571 0.592229 0.382037
v -12.292385 0.635235 0.403917
v -12.292385 0.635235 0.382037
v -12.169629 0.392747 0.435641
v -12.169629 0.489855 0.435641
v -12.169629 0.392747 0.338534
v -12.169629 0.489855 0.338534
v -11.885004 0.392747 0.435641
v -11.885004 0.489855 0.435641
v -11.885004 0.392747 0.338534
v -11.885004 0.489855 0.338534
v -11.982224 0.392747 0.338534
v -11.982224 0.489855 0.338534
v -11.982224 0.392747 0.435641
v -11.982224 0.489855 0.435641
v -11.982224 0.489855 0.058267
v -11.885004 0.489855 0.058267
v -11.885004 0.392747 0.058267
v -11.982224 0.392747 0.058267
v -11.982224 0.489855 -0.036860
v -11.885004 0.489855 -0.036860
v -11.885004 0.392747 -0.036860
v -11.982224 0.392747 -0.036860
v -11.885004 0.001418 0.058267
v -11.982224 0.001418 0.058267
v -11.885004 0.001418 -0.036860
v -11.982224 0.001418 -0.036860
v -11.982224 0.392747 0.149722
v -11.885004 0.392747 0.149722
v -11.982224 0.489855 0.149722
v -11.885004 0.489855 0.149722
v -11.982224 0.581913 0.058267
v -11.885004 0.581913 0.058267
v -11.982224 0.581913 0.149722
v -11.885004 0.581913 0.149722
v -11.982224 0.671026 0.058267
v -11.885004 0.671026 0.058267
v -11.982224 0.671026 0.149722
v -11.885004 0.671026 0.149722
v -12.058818 0.581913 0.149722
v -12.058818 0.581913 0.058267
v -12.058818 0.671026 0.149722
v -12.058818 0.671026 0.058267
vt 0.519178 0.000000
vt 0.625000 0.000000
vt 0.625000 0.250000
vt 0.519178 0.250000
vt 0.519178 0.445311
vt 0.625000 0.445311
vt 0.625000 0.500000
vt 0.519178 0.500000
vt 0.625000 0.750000
vt 0.519178 0.750000
vt 0.519178 0.978476
vt 0.625000 0.978476
vt 0.625000 1.000000
vt 0.519178 1.000000
vt 0.320311 0.500000
vt 0.375000 0.500000
vt 0.375000 0.750000
vt 0.320311 0.750000
vt 0.625000 0.500000
vt 0.625000 0.750000
vt 0.625000 0.750000
vt 0.625000 0.500000
vt 0.853476 0.500000
vt 0.875000 0.500000
vt 0.875000 0.750000
vt 0.853476 0.750000
vt 0.875000 0.750000
vt 0.853476 0.750000
vt 0.625000 0.500000
vt 0.625000 0.750000
vt 0.875000 0.500000
vt 0.625000 0.500000
vt 0.625000 0.750000
vt 0.625000 0.250000
vt 0.625000 0.000000
vt 0.625000 0.000000
vt 0.625000 0.250000
vt 0.625000 0.804689
vt 0.625000 0.804689
vt 0.625000 0.271524
vt 0.625000 0.271524
vt 0.625000 0.804689
vt 0.625000 0.271524
vt 0.788903 0.500000
vt 0.788903 0.750000
vt 0.788903 0.750000
vt 0.788903 0.500000
vt 0.625000 0.356505
vt 0.625000 0.336097
vt 0.625000 0.336097
vt 0.625000 0.356505
vt 0.625000 0.935427
vt 0.625000 0.913903
vt 0.625000 0.913903
vt 0.625000 0.935427
vt 0.625000 0.336097
vt 0.625000 0.356505
vt 0.625000 0.913903
vt 0.625000 0.935427
vt 0.679689 0.500000
vt 0.679689 0.500000
vt 0.625000 0.750000
vt 0.625000 0.804689
vt 0.810427 0.500000
vt 0.788903 0.500000
vt 0.810427 0.500000
vt 0.189573 0.500000
vt 0.211097 0.500000
vt 0.211097 0.750000
vt 0.189573 0.750000
vt 0.519178 0.893495
vt 0.625000 0.893495
vt 0.519178 0.913903
vt 0.519178 0.314573
vt 0.625000 0.314573
vt 0.519178 0.336097
vt 0.519178 0.271524
vt 0.625000 0.293048
vt 0.519178 0.293048
vt 0.146524 0.500000
vt 0.168048 0.500000
vt 0.168048 0.750000
vt 0.146524 0.750000
vt 0.831952 0.500000
vt 0.831952 0.500000
vt 0.853476 0.500000
vt 0.625000 0.978476
vt 0.625000 0.956952
vt 0.625000 0.956952
vt 0.625000 0.978476
vt 0.625000 0.956951
vt 0.625000 0.293048
vt 0.625000 0.314573
vt 0.625000 0.293048
vt 0.625000 0.314573
vt 0.810427 0.750000
vt 0.831952 0.750000
vt 0.831951 0.750000
vt 0.810427 0.750000
vt 0.519178 0.935427
vt 0.519178 0.956951
vt 0.788903 0.750000
vt 0.625000 1.000000
vt 0.625000 1.000000
vt 0.125000 0.500000
vt 0.125000 0.750000
vt 0.519178 0.804689
vt 0.768495 0.500000
vt 0.768495 0.750000
vt 0.679689 0.750000
vt 0.788903 0.750000
vt 0.625000 0.445311
vt 0.625000 0.445311
vt 0.625000 0.893495
vt 0.625000 0.893495
vt 0.625000 0.500000
vt 0.231505 0.500000
vt 0.231505 0.750000
vt 0.519178 0.356505
vt 0.679689 0.500000
vt 0.768495 0.750000
vt 0.768495 0.750000
vt 0.768495 0.500000
vt 0.679689 0.750000
vt 0.679689 0.750000
vt 0.768495 0.500000
vt 0.788903 0.500000
vt 0.625000 0.893495
vt 0.625000 0.913903
vt 0.625000 0.336097
vt 0.625000 0.356505
vt 0.625000 0.445311
vt 0.375000 0.356505
vt 0.508094 0.356505
vt 0.508094 0.445311
vt 0.375000 0.445311
vt 0.375000 0.750000
vt 0.508094 0.750000
vt 0.508094 0.750000
vt 0.375000 0.750000
vt 0.375000 0.336097
vt 0.508094 0.336097
vt 0.375000 0.804689
vt 0.508094 0.804689
vt 0.508094 0.893495
vt 0.375000 0.893495
vt 0.375000 0.956951
vt 0.508094 0.956951
vt 0.508094 0.978476
vt 0.375000 0.978476
vt 0.375000 0.250000
vt 0.508094 0.250000
vt 0.508094 0.271524
vt 0.375000 0.271524
vt 0.375000 0.293048
vt 0.508094 0.293048
vt 0.508094 0.314573
vt 0.375000 0.314573
vt 0.375000 0.913903
vt 0.508094 0.913903
vt 0.508094 0.935427
vt 0.375000 0.935427
vt 0.508094 1.000000
vt 0.375000 1.000000
vt 0.508094 0.500000
vt 0.508094 0.750000
vt 0.375000 0.000000
vt 0.508094 0.000000
vt 0.508094 0.804689
vt 0.375000 0.804689
vt 0.508094 0.804689
vt 0.375000 0.804689
vt 0.320311 0.750000
vt 0.320311 0.750000
vt 0.320311 0.750000
vt 0.375000 0.750000
vt 0.375000 0.750000
vt 0.320311 0.750000
vt 0.508094 0.804689
vt 0.375000 0.804689
vt 0.375000 0.804689
vt 0.508094 0.804689
vt 0.508094 0.750000
vt 0.508094 0.750000
vt 0.519178 0.271524
vt 0.519178 0.250000
vt 0.508094 0.336097
vt 0.508094 0.356505
vt 0.519178 1.000000
vt 0.519178 0.978476
vt 0.508094 0.271524
vt 0.508094 0.293048
vt 0.519178 0.956951
vt 0.508094 0.935427
vt 0.508094 0.956951
vt 0.508094 0.000000
vt 0.508094 0.250000
vt 0.508094 0.445311
vt 0.519178 0.336097
vt 0.519178 0.314573
vt 0.508094 0.913903
vt 0.519178 0.356505
vt 0.519178 0.445311
vt 0.508094 0.978476
vt 0.519178 0.293048
vt 0.508094 0.314573
vt 0.519178 0.913903
vt 0.519178 0.935427
vt 0.508094 1.000000
vt 0.519178 0.000000
vt 1.000000 0.500000
vt 1.000000 1.000000
vt 0.875000 1.000000
vt 0.875000 0.500000
vt 0.750000 1.000000
vt 0.750000 0.500000
vt 0.625000 1.000000
vt 0.625000 0.500000
vt 0.500000 1.000000
vt 0.500000 0.500000
vt 0.375000 1.000000
vt 0.375000 0.500000
vt 0.250000 1.000000
vt 0.250000 0.500000
vt 0.419706 0.419706
vt 0.250000 0.490000
vt 0.080294 0.419706
vt 0.010000 0.250000
vt 0.080294 0.080294
vt 0.250000 0.010000
vt 0.419706 0.080294
vt 0.490000 0.250000
vt 0.125000 1.000000
vt 0.125000 0.500000
vt 0.000000 1.000000
vt 0.000000 0.500000
vt 0.750000 0.490000
vt 0.919706 0.419706
vt 0.990000 0.250000
vt 0.919706 0.080294
vt 0.750000 0.010000
vt 0.580294 0.080294
vt 0.510000 0.250000
vt 0.580294 0.419706
vt 0.375000 0.000000
vt 0.625000 0.000000
vt 0.625000 0.250000
vt 0.375000 0.250000
vt 0.375000 0.500000
vt 0.289606 0.500000
vt 0.289606 0.500000
vt 0.375000 0.500000
vt 0.375000 0.500000
vt 0.625000 0.500000
vt 0.625000 0.750000
vt 0.375000 0.750000
vt 0.375000 0.835394
vt 0.625000 0.835393
vt 0.625000 1.000000
vt 0.375000 1.000000
vt 0.289606 0.500000
vt 0.289606 0.750000
vt 0.710393 0.500000
vt 0.875000 0.500000
vt 0.875000 0.750000
vt 0.710393 0.750000
vt 0.125000 0.500000
vt 0.125000 0.750000
vt 0.625000 0.414606
vt 0.375000 0.414606
vt 0.375000 0.414606
vt 0.625000 0.414606
vt 0.625000 0.414606
vt 0.375000 0.414606
vt 0.375000 0.414607
vt 0.625000 0.414606
vt 0.625000 0.500000
vt 0.625000 0.500000
vt 0.710393 0.500000
vt 0.710393 0.500000
vt 0.625000 0.500000
vt 0.625000 0.500000
vt 0.375000 0.500000
vt 0.375000 0.500000
vt 0.375000 0.500000
vt 0.710393 0.500000
vt 0.289606 0.500000
vt 0.289606 0.500000
vt 0.375000 0.414606
vt 0.375000 0.414606
vt 0.710393 0.500000
vt 0.710393 0.500000
vt 0.625000 0.500000
vt 0.625000 0.500000
vt 0.710393 0.500000
vt 0.625000 0.414606
vt 0.625000 0.414606
vt 0.625000 0.500000
vt 0.710393 0.500000
vt 0.710393 0.500000
vt 0.710393 0.500000
vt 0.625000 0.414606
vt 0.625000 0.414606
vt 0.625000 0.414606
vt 0.625000 0.414606
vt 0.710393 0.500000
vt 0.710393 0.500000
vn -1.0000 0.0000 0.0000
vn 0.0000 0.0000 -1.0000
vn 1.0000 0.0000 0.0000
vn 0.0000 0.0000 1.0000
vn 0.0000 -1.0000 0.0000
vn -0.3082 0.9513 0.0000
vn -0.2435 0.9594 -0.1421
vn 0.0000 1.0000 0.0000
vn -0.9522 0.3053 0.0000
vn -0.5192 0.8546 0.0000
vn -0.7380 0.6748 0.0000
vn -0.7380 0.6749 0.0000
vn -0.2435 0.9594 0.1421
vn 0.0000 0.9706 0.2407
vn 0.0000 0.7089 0.7053
vn 0.0000 0.5989 0.8008
vn 0.0000 0.7232 0.6906
vn 0.0000 0.9996 0.0282
vn 0.0000 -0.9996 0.0282
vn 0.0000 0.9998 -0.0201
vn 0.0000 -0.9998 -0.0201
vn 0.0574 -0.9984 0.0000
vn 0.0574 0.9984 0.0000
vn -0.3827 0.9239 0.0000
vn -0.9239 0.3827 0.0000
vn -0.9239 -0.3827 0.0000
vn -0.3827 -0.9239 0.0000
vn 0.3827 -0.9239 0.0000
vn 0.9239 -0.3827 0.0000
vn 0.9239 0.3827 0.0000
vn 0.3827 0.9239 0.0000
usemtl None
s off
f 129/1/1 2/2/1 4/3/1 130/4/1
f 144/5/2 83/6/2 8/7/2 131/8/2
f 131/8/3 8/7/3 6/9/3 132/10/3
f 140/11/4 52/12/4 2/13/4 129/14/4
f 88/15/5 7/16/5 5/17/5 84/18/5
f 11/19/1 12/20/1 73/21/1 72/22/1
f 58/23/6 10/24/6 9/25/6 53/26/6
f 53/26/7 9/25/7 17/27/7 55/28/7
f 6/9/5 8/7/5 15/29/5 16/30/5
f 9/25/8 10/24/8 18/31/8 17/27/8
f 16/30/3 15/29/3 19/32/3 20/33/3
f 14/34/1 13/35/1 17/36/1 18/37/1
f 91/38/4 16/30/4 20/33/4 92/39/4
f 59/40/2 14/34/2 18/37/2 60/41/2
f 4/3/5 2/2/5 13/35/5 14/34/5
f 89/42/5 6/9/5 16/30/5 91/38/5
f 56/43/5 4/3/5 14/34/5 59/40/5
f 25/44/1 26/45/1 78/46/1 81/47/1
f 61/48/5 22/49/5 27/50/5 64/51/5
f 47/52/5 24/53/5 28/54/5 49/55/5
f 64/51/2 27/50/2 29/56/2 65/57/2
f 49/55/4 28/54/4 30/58/4 50/59/4
f 85/60/4 11/19/4 72/22/4 93/61/4
f 92/39/4 20/33/4 76/62/4 96/63/4
f 43/64/9 25/44/9 29/65/9 45/66/9
f 46/67/5 21/68/5 23/69/5 42/70/5
f 141/71/4 67/72/4 24/53/4 133/73/4
f 138/74/2 41/75/2 22/49/2 134/76/2
f 139/77/2 56/43/2 36/78/2 135/79/2
f 51/80/5 31/81/5 37/82/5 57/83/5
f 58/23/10 38/84/10 40/85/10 60/86/10
f 54/87/4 34/88/4 35/89/4 55/90/4
f 52/12/5 32/91/5 34/88/5 54/87/5
f 41/75/5 36/78/5 39/92/5 44/93/5
f 44/93/2 39/92/2 40/94/2 45/95/2
f 48/96/11 33/97/11 35/98/11 50/99/11
f 43/64/11 38/84/11 33/97/11 48/96/11
f 137/100/4 47/52/4 32/91/4 136/101/4
f 133/73/4 24/53/4 47/52/4 137/100/4
f 25/44/9 43/64/9 48/96/9 26/45/9
f 26/45/9 48/96/9 50/99/9 30/102/9
f 27/50/2 44/93/2 45/95/2 29/56/2
f 22/49/5 41/75/5 44/93/5 27/50/5
f 135/79/2 36/78/2 41/75/2 138/74/2
f 31/81/5 46/67/5 42/70/5 37/82/5
f 38/84/12 43/64/12 45/66/12 40/85/12
f 34/88/4 49/55/4 50/59/4 35/89/4
f 32/91/5 47/52/5 49/55/5 34/88/5
f 2/13/5 52/12/5 54/87/5 13/103/5
f 13/103/4 54/87/4 55/90/4 17/104/4
f 10/24/13 58/23/13 60/86/13 18/31/13
f 3/105/5 51/80/5 57/83/5 1/106/5
f 130/4/2 4/3/2 56/43/2 139/77/2
f 36/78/5 56/43/5 59/40/5 39/92/5
f 39/92/2 59/40/2 60/41/2 40/94/2
f 33/97/10 53/26/10 55/28/10 35/98/10
f 38/84/10 58/23/10 53/26/10 33/97/10
f 136/101/4 32/91/4 52/12/4 140/11/4
f 143/107/4 89/42/4 67/72/4 141/71/4
f 85/60/8 63/108/8 68/109/8 90/110/8
f 26/45/1 30/102/1 80/111/1 78/46/1
f 86/112/2 64/51/2 65/57/2 87/113/2
f 83/6/5 61/48/5 64/51/5 86/112/5
f 24/53/5 67/72/5 69/114/5 28/54/5
f 28/54/4 69/114/4 70/115/4 30/58/4
f 20/33/3 19/32/3 75/116/3 76/62/3
f 21/68/5 66/117/5 62/118/5 23/69/5
f 134/76/2 22/49/2 61/48/2 142/119/2
f 93/61/8 72/22/8 75/116/8 94/120/8
f 72/22/8 73/21/8 76/62/8 75/116/8
f 77/121/8 78/46/8 80/111/8 79/122/8
f 71/123/8 81/47/8 78/46/8 77/121/8
f 95/124/8 77/121/8 79/122/8 96/125/8
f 81/47/8 71/123/8 74/126/8 82/127/8
f 90/110/2 68/109/2 77/121/2 95/124/2
f 30/58/4 70/115/4 79/128/4 80/129/4
f 65/57/2 29/56/2 82/130/2 74/131/2
f 29/65/1 25/44/1 81/47/1 82/127/1
f 68/109/3 63/108/3 71/123/3 77/121/3
f 87/113/2 65/57/2 74/131/2 94/132/2
f 19/32/2 87/113/2 94/132/2 75/116/2
f 12/20/2 90/110/2 95/124/2 73/21/2
f 73/21/8 95/124/8 96/125/8 76/62/8
f 71/123/8 93/61/8 94/120/8 74/126/8
f 8/7/5 83/6/5 86/112/5 15/29/5
f 15/29/2 86/112/2 87/113/2 19/32/2
f 11/19/8 85/60/8 90/110/8 12/20/8
f 132/10/4 6/9/4 89/42/4 143/107/4
f 70/115/4 92/39/4 96/63/4 79/128/4
f 63/108/4 85/60/4 93/61/4 71/123/4
f 67/72/5 89/42/5 91/38/5 69/114/5
f 69/114/4 91/38/4 92/39/4 70/115/4
f 66/117/5 88/15/5 84/18/5 62/118/5
f 142/119/2 61/48/2 83/6/2 144/5/2
f 66/133/2 110/134/2 112/135/2 88/136/2
f 128/137/3 125/138/3 113/139/3 114/140/3
f 21/141/2 102/142/2 110/134/2 66/133/2
f 84/143/4 111/144/4 109/145/4 62/146/4
f 37/147/4 104/148/4 108/149/4 57/150/4
f 3/151/2 98/152/2 107/153/2 51/154/2
f 31/155/2 103/156/2 106/157/2 46/158/2
f 23/159/4 101/160/4 105/161/4 42/162/4
f 42/162/4 105/161/4 104/148/4 37/147/4
f 51/154/2 107/153/2 103/156/2 31/155/2
f 46/158/2 106/157/2 102/142/2 21/141/2
f 62/146/4 109/145/4 101/160/4 23/159/4
f 57/150/4 108/149/4 97/163/4 1/164/4
f 7/16/3 99/165/3 100/166/3 5/17/3
f 88/136/2 112/135/2 99/165/2 7/16/2
f 1/167/1 97/168/1 98/152/1 3/151/1
f 114/140/4 113/139/4 116/169/4 115/170/4
f 125/138/14 126/171/14 116/169/14 113/139/14
f 126/171/1 127/172/1 115/170/1 116/169/1
f 127/173/5 128/137/5 114/140/5 115/174/5
f 124/175/5 121/176/5 118/177/5 120/178/5
f 123/179/1 124/180/1 120/181/1 119/182/1
f 122/183/15 123/179/15 119/182/15 117/184/15
f 121/176/3 122/183/3 117/184/3 118/177/3
f 5/17/3 100/166/3 122/183/3 121/176/3
f 100/166/16 111/144/16 123/179/16 122/183/16
f 111/144/1 84/143/1 124/180/1 123/179/1
f 84/18/5 5/17/5 121/176/5 124/175/5
f 120/178/5 118/177/5 128/137/5 127/173/5
f 119/182/1 120/181/1 127/172/1 126/171/1
f 117/184/17 119/182/17 126/171/17 125/138/17
f 118/177/3 117/184/3 125/138/3 128/137/3
f 130/4/18 139/77/18 159/185/18 145/186/18
f 100/166/4 132/10/4 143/107/4 111/144/4
f 110/134/19 102/142/19 150/187/19 164/188/19
f 111/144/4 143/107/4 141/71/4 109/145/4
f 140/11/20 129/14/20 168/189/20 161/190/20
f 103/156/19 107/153/19 160/191/19 152/192/19
f 136/101/20 140/11/20 161/190/20 153/193/20
f 104/148/21 105/161/21 156/194/21 154/195/21
f 98/152/22 97/168/22 167/196/22 146/197/22
f 112/135/19 110/134/19 164/188/19 166/198/19
f 138/74/18 134/76/18 149/199/18 157/200/18
f 109/145/4 141/71/4 133/73/4 101/160/4
f 105/161/21 101/160/21 148/201/21 156/194/21
f 99/165/3 131/8/3 132/10/3 100/166/3
f 112/135/2 144/5/2 131/8/2 99/165/2
f 134/76/18 142/119/18 163/202/18 149/199/18
f 164/188/2 163/202/2 165/203/2 166/198/2
f 150/187/2 149/199/2 163/202/2 164/188/2
f 154/195/4 153/193/4 161/190/4 162/204/4
f 146/197/2 145/186/2 159/185/2 160/191/2
f 152/192/2 151/205/2 157/200/2 158/206/2
f 148/201/4 147/207/4 155/208/4 156/194/4
f 156/194/4 155/208/4 153/193/4 154/195/4
f 160/191/2 159/185/2 151/205/2 152/192/2
f 158/206/2 157/200/2 149/199/2 150/187/2
f 162/204/4 161/190/4 168/189/4 167/209/4
f 167/196/1 168/210/1 145/186/1 146/197/1
f 102/142/19 106/157/19 158/206/19 150/187/19
f 101/160/3 133/73/3 147/207/3 148/201/3
f 135/79/18 138/74/18 157/200/18 151/205/18
f 108/149/21 104/148/21 154/195/21 162/204/21
f 133/73/20 137/100/20 155/208/20 147/207/20
f 97/163/21 108/149/21 162/204/21 167/209/21
f 142/119/18 144/5/18 165/203/18 163/202/18
f 129/1/23 130/4/23 145/186/23 168/210/23
f 107/153/19 98/152/19 146/197/19 160/191/19
f 137/100/20 136/101/20 153/193/20 155/208/20
f 106/157/19 103/156/19 152/192/19 158/206/19
f 139/77/18 135/79/18 151/205/18 159/185/18
f 144/5/3 112/135/3 166/198/3 165/203/3
f 169/211/24 170/212/24 172/213/24 171/214/24
f 171/214/25 172/213/25 174/215/25 173/216/25
f 173/216/26 174/215/26 176/217/26 175/218/26
f 175/218/27 176/217/27 178/219/27 177/220/27
f 177/220/28 178/219/28 180/221/28 179/222/28
f 179/222/29 180/221/29 182/223/29 181/224/29
f 172/225/2 170/226/2 184/227/2 182/228/2 180/229/2 178/230/2 176/231/2 174/232/2
f 181/224/30 182/223/30 184/233/30 183/234/30
f 183/234/31 184/233/31 170/235/31 169/236/31
f 169/237/4 171/238/4 173/239/4 175/240/4 177/241/4 179/242/4 181/243/4 183/244/4
f 185/245/1 186/246/1 188/247/1 187/248/1
f 210/249/5 209/250/5 200/251/5 199/252/5
f 191/253/3 192/254/3 190/255/3 189/256/3
f 195/257/4 196/258/4 186/259/4 185/260/4
f 193/261/5 191/253/5 189/256/5 195/262/5
f 194/263/8 188/264/8 186/265/8 196/266/8
f 192/254/8 194/263/8 196/266/8 190/255/8
f 187/267/5 193/261/5 195/262/5 185/268/5
f 189/256/4 190/255/4 196/258/4 195/257/4
f 187/248/2 188/247/2 194/269/2 193/270/2
f 200/271/1 197/272/1 201/273/1 204/274/1
f 209/275/1 211/276/1 197/272/1 200/271/1
f 212/277/3 210/249/3 199/252/3 198/278/3
f 198/278/2 197/279/2 213/280/2 214/281/2
f 204/274/2 201/273/2 202/282/2 203/283/2
f 198/278/3 199/252/3 203/283/3 202/282/3
f 203/283/3 199/252/3 205/284/3 207/285/3
f 197/279/8 198/278/8 202/282/8 201/286/8
f 205/284/5 206/287/5 208/288/5 207/285/5
f 204/274/2 203/283/2 207/285/2 208/289/2
f 199/252/4 200/251/4 206/287/4 205/284/4
f 200/271/1 204/274/1 208/289/1 206/290/1
f 194/263/8 192/254/8 212/277/8 211/291/8
f 192/254/3 191/253/3 210/249/3 212/277/3
f 193/270/1 194/269/1 211/276/1 209/275/1
f 191/253/5 193/261/5 209/250/5 210/249/5
f 215/292/4 216/293/4 220/294/4 219/295/4
f 212/277/3 198/278/3 214/281/3 216/293/3
f 197/272/1 211/276/1 215/296/1 213/297/1
f 211/291/4 212/277/4 216/293/4 215/292/4
f 219/295/8 220/294/8 218/298/8 217/299/8
f 217/299/2 213/280/2 222/300/2 224/301/2
f 216/293/3 214/281/3 218/298/3 220/294/3
f 214/281/2 213/280/2 217/299/2 218/298/2
f 222/302/1 221/303/1 223/304/1 224/305/1
f 213/297/5 215/296/5 221/303/5 222/302/5
f 215/292/4 219/295/4 223/306/4 221/307/4
f 219/295/8 217/299/8 224/301/8 223/306/8
