# Blender v2.93.6 OBJ File: 'assets.blend'
# www.blender.org
mtllib stairs_single.mtl
o Stairs_Single_Cube.021
v -14.026092 0.052066 -0.794193
v -14.026092 0.267248 -0.794193
v -14.026092 0.267248 -0.971299
v -14.026092 0.052066 -0.971299
v -14.081713 0.052066 -0.794193
v -14.081713 0.267248 -0.971299
v -14.081713 0.267248 -0.794193
v -14.081713 0.052066 -0.971299
v -14.026092 0.321350 -0.794193
v -14.081713 0.321350 -0.794193
v -14.026092 0.267248 -0.761329
v -14.026092 0.052066 -0.761329
v -14.081713 0.052066 -0.761329
v -14.081713 0.267248 -0.761329
v -14.026092 0.267248 -0.728466
v -14.026092 0.052066 -0.728466
v -14.081713 0.052066 -0.728466
v -14.081713 0.267248 -0.728466
v -14.026092 0.052066 -0.695602
v -14.081713 0.052066 -0.695602
v -14.026092 0.052066 -0.662739
v -14.081713 0.052066 -0.662739
v -14.026092 0.052066 -0.629876
v -14.081713 0.052066 -0.629876
v -14.026092 0.052066 -0.597012
v -14.081713 0.052066 -0.597012
v -14.026092 0.241424 -0.794193
v -14.026092 0.214373 -0.794193
v -14.026092 0.187322 -0.794193
v -14.026092 0.160270 -0.794193
v -14.026092 0.133219 -0.794193
v -14.026092 0.106168 -0.794193
v -14.026092 0.079117 -0.794193
v -14.026092 0.241424 -0.971299
v -14.026092 0.214373 -0.971299
v -14.026092 0.187322 -0.971299
v -14.026092 0.160270 -0.971299
v -14.026092 0.133219 -0.971299
v -14.026092 0.106168 -0.971299
v -14.026092 0.079117 -0.971299
v -14.026092 0.241424 -0.761329
v -14.026092 0.214373 -0.761329
v -14.026092 0.187322 -0.761329
v -14.026092 0.160270 -0.761329
v -14.026092 0.133219 -0.761329
v -14.026092 0.106168 -0.761329
v -14.026092 0.079117 -0.761329
v -14.026092 0.241424 -0.728466
v -14.026092 0.214373 -0.728466
v -14.026092 0.187322 -0.728466
v -14.026092 0.160270 -0.728466
v -14.026092 0.133219 -0.728466
v -14.026092 0.106168 -0.728466
v -14.026092 0.079117 -0.728466
v -14.026092 0.241424 -0.695602
v -14.026092 0.214373 -0.695602
v -14.026092 0.187322 -0.695602
v -14.026092 0.160270 -0.695602
v -14.026092 0.133219 -0.695602
v -14.026092 0.106168 -0.695602
v -14.026092 0.079117 -0.695602
v -14.026092 0.106168 -0.564149
v -14.026092 0.214373 -0.662739
v -14.026092 0.187322 -0.662739
v -14.026092 0.160270 -0.662739
v -14.026092 0.133219 -0.662739
v -14.026092 0.106168 -0.662739
v -14.026092 0.079117 -0.662739
v -14.026092 0.133219 -0.564149
v -14.026092 0.187322 -0.629876
v -14.026092 0.160270 -0.629876
v -14.026092 0.133219 -0.629876
v -14.026092 0.106168 -0.629876
v -14.026092 0.079117 -0.629876
v -14.026092 0.160270 -0.597012
v -14.026092 0.133219 -0.597012
v -14.026092 0.106168 -0.597012
v -14.026092 0.079117 -0.597012
v -14.026092 0.052066 -0.564149
v -14.081713 0.052066 -0.564149
v -14.026092 0.079117 -0.564149
v -14.026092 0.106168 -0.531286
v -14.026092 0.079117 -0.531286
v -14.081713 0.052066 -0.531286
v -14.026092 0.052066 -0.531286
v -14.026092 0.079117 -0.498422
v -14.081713 0.052066 -0.498422
v -14.026092 0.052066 -0.498422
v -14.081713 0.241424 -0.794193
v -14.081713 0.241424 -0.761329
v -14.081713 0.241424 -0.728466
v -14.081713 0.241424 -0.695602
v -14.081713 0.214373 -0.695602
v -14.081713 0.214373 -0.662739
v -14.081713 0.187322 -0.662739
v -14.081713 0.187322 -0.629876
v -14.081713 0.160270 -0.629876
v -14.081713 0.160270 -0.597012
v -14.081713 0.133219 -0.597012
v -14.081713 0.133219 -0.564149
v -14.081713 0.106168 -0.564149
v -14.081713 0.106168 -0.531286
v -14.081713 0.079117 -0.531286
v -14.081713 0.079117 -0.498422
v -14.081713 0.214373 -0.728466
v -14.081713 0.187322 -0.695602
v -14.081713 0.160270 -0.662739
v -14.081713 0.133219 -0.629876
v -14.081713 0.106168 -0.597012
v -14.081713 0.079117 -0.564149
v -14.081713 0.052066 -0.465559
v -14.026092 0.052066 -0.465559
v -14.081713 0.321350 -0.971299
v -14.026092 0.321350 -0.971299
v -14.026092 0.293072 -0.761329
v -14.081713 0.293072 -0.761329
v -14.411952 0.052066 -0.794193
v -14.411952 0.267248 -0.794193
v -14.411952 0.267248 -0.971299
v -14.411952 0.052066 -0.971299
v -14.356331 0.052066 -0.794193
v -14.356331 0.267248 -0.971299
v -14.356331 0.267248 -0.794193
v -14.356331 0.052066 -0.971299
v -14.411952 0.321350 -0.794193
v -14.356331 0.321350 -0.794193
v -14.411952 0.267248 -0.761329
v -14.411952 0.052066 -0.761329
v -14.356331 0.052066 -0.761329
v -14.356331 0.267248 -0.761329
v -14.411952 0.267248 -0.728466
v -14.411952 0.052066 -0.728466
v -14.356331 0.052066 -0.728466
v -14.356331 0.267248 -0.728466
v -14.411952 0.052066 -0.695602
v -14.356331 0.052066 -0.695602
v -14.411952 0.052066 -0.662739
v -14.356331 0.052066 -0.662739
v -14.411952 0.052066 -0.629876
v -14.356331 0.052066 -0.629876
v -14.411952 0.052066 -0.597012
v -14.356331 0.052066 -0.597012
v -14.411952 0.241424 -0.794193
v -14.411952 0.214373 -0.794193
v -14.411952 0.187322 -0.794193
v -14.411952 0.160270 -0.794193
v -14.411952 0.133219 -0.794193
v -14.411952 0.106168 -0.794193
v -14.411952 0.079117 -0.794193
v -14.411952 0.241424 -0.971299
v -14.411952 0.214373 -0.971299
v -14.411952 0.187322 -0.971299
v -14.411952 0.160270 -0.971299
v -14.411952 0.133219 -0.971299
v -14.411952 0.106168 -0.971299
v -14.411952 0.079117 -0.971299
v -14.411952 0.241424 -0.761329
v -14.411952 0.214373 -0.761329
v -14.411952 0.187322 -0.761329
v -14.411952 0.160270 -0.761329
v -14.411952 0.133219 -0.761329
v -14.411952 0.106168 -0.761329
v -14.411952 0.079117 -0.761329
v -14.411952 0.241424 -0.728466
v -14.411952 0.214373 -0.728466
v -14.411952 0.187322 -0.728466
v -14.411952 0.160270 -0.728466
v -14.411952 0.133219 -0.728466
v -14.411952 0.106168 -0.728466
v -14.411952 0.079117 -0.728466
v -14.411952 0.241424 -0.695602
v -14.411952 0.214373 -0.695602
v -14.411952 0.187322 -0.695602
v -14.411952 0.160270 -0.695602
v -14.411952 0.133219 -0.695602
v -14.411952 0.106168 -0.695602
v -14.411952 0.079117 -0.695602
v -14.411952 0.106168 -0.564149
v -14.411952 0.214373 -0.662739
v -14.411952 0.187322 -0.662739
v -14.411952 0.160270 -0.662739
v -14.411952 0.133219 -0.662739
v -14.411952 0.106168 -0.662739
v -14.411952 0.079117 -0.662739
v -14.411952 0.133219 -0.564149
v -14.411952 0.187322 -0.629876
v -14.411952 0.160270 -0.629876
v -14.411952 0.133219 -0.629876
v -14.411952 0.106168 -0.629876
v -14.411952 0.079117 -0.629876
v -14.411952 0.160270 -0.597012
v -14.411952 0.133219 -0.597012
v -14.411952 0.106168 -0.597012
v -14.411952 0.079117 -0.597012
v -14.411952 0.052066 -0.564149
v -14.356331 0.052066 -0.564149
v -14.411952 0.079117 -0.564149
v -14.411952 0.106168 -0.531286
v -14.411952 0.079117 -0.531286
v -14.356331 0.052066 -0.531286
v -14.411952 0.052066 -0.531286
v -14.411952 0.079117 -0.498422
v -14.356331 0.052066 -0.498422
v -14.411952 0.052066 -0.498422
v -14.356331 0.241424 -0.794193
v -14.356331 0.241424 -0.761329
v -14.356331 0.241424 -0.728466
v -14.356331 0.241424 -0.695602
v -14.356331 0.214373 -0.695602
v -14.356331 0.214373 -0.662739
v -14.356331 0.187322 -0.662739
v -14.356331 0.187322 -0.629876
v -14.356331 0.160270 -0.629876
v -14.356331 0.160270 -0.597012
v -14.356331 0.133219 -0.597012
v -14.356331 0.133219 -0.564149
v -14.356331 0.106168 -0.564149
v -14.356331 0.106168 -0.531286
v -14.356331 0.079117 -0.531286
v -14.356331 0.079117 -0.498422
v -14.356331 0.214373 -0.728466
v -14.356331 0.187322 -0.695602
v -14.356331 0.160270 -0.662739
v -14.356331 0.133219 -0.629876
v -14.356331 0.106168 -0.597012
v -14.356331 0.079117 -0.564149
v -14.356331 0.052066 -0.465559
v -14.411952 0.052066 -0.465559
v -14.356331 0.321350 -0.971299
v -14.411952 0.321350 -0.971299
v -14.411952 0.293072 -0.761329
v -14.356331 0.293072 -0.761329
v -14.219022 0.052066 -0.794193
v -14.219022 0.267248 -0.794193
v -14.219022 0.267248 -0.971299
v -14.219022 0.052066 -0.971299
v -14.219022 0.052066 -0.761329
v -14.219022 0.052066 -0.728466
v -14.219022 0.052066 -0.695602
v -14.219022 0.052066 -0.662739
v -14.219022 0.052066 -0.629876
v -14.219022 0.052066 -0.597012
v -14.219022 0.052066 -0.531286
v -14.219022 0.052066 -0.564149
v -14.219022 0.106168 -0.597012
v -14.219022 0.079117 -0.531286
v -14.219022 0.052066 -0.531286
v -14.219022 0.079117 -0.564149
v -14.219022 0.106168 -0.564149
v -14.219022 0.133219 -0.597012
v -14.219022 0.133219 -0.629876
v -14.219022 0.160270 -0.629876
v -14.219022 0.160270 -0.662739
v -14.219022 0.187322 -0.662739
v -14.219022 0.187322 -0.695602
v -14.219022 0.214373 -0.695602
v -14.219022 0.214373 -0.728466
v -14.219022 0.241424 -0.728466
v -14.219022 0.241424 -0.761329
v -14.219022 0.241424 -0.794193
vt 0.593750 0.720257
vt 0.625000 0.720257
vt 0.625000 0.750000
vt 0.593750 0.750000
vt 0.343778 0.720257
vt 0.375000 0.720257
vt 0.375000 0.750000
vt 0.343778 0.750000
vt 0.625000 0.781222
vt 0.656222 0.720257
vt 0.708333 0.720257
vt 0.625000 0.833333
vt 0.291667 0.750000
vt 0.343778 0.750000
vt 0.291667 0.750000
vt 0.625000 0.750000
vt 0.593750 0.750000
vt 0.291667 0.720257
vt 0.375000 0.750000
vt 0.625000 0.781222
vt 0.343778 0.750000
vt 0.291667 0.750000
vt 0.625000 0.750000
vt 0.593750 0.750000
vt 0.625000 0.781222
vt 0.375000 0.750000
vt 0.291667 0.750000
vt 0.343778 0.750000
vt 0.343778 0.750000
vt 0.291667 0.750000
vt 0.375000 0.750000
vt 0.343778 0.750000
vt 0.291667 0.750000
vt 0.375000 0.750000
vt 0.343778 0.750000
vt 0.291667 0.750000
vt 0.375000 0.750000
vt 0.375000 0.750000
vt 0.437500 0.750000
vt 0.468750 0.750000
vt 0.468750 0.750000
vt 0.437500 0.750000
vt 0.375000 0.750000
vt 0.343778 0.750000
vt 0.406250 0.750000
vt 0.406250 0.750000
vt 0.406250 0.750000
vt 0.437500 0.750000
vt 0.468750 0.750000
vt 0.500000 0.750000
vt 0.500000 0.750000
vt 0.406250 0.750000
vt 0.406250 0.750000
vt 0.437500 0.750000
vt 0.437500 0.750000
vt 0.468750 0.750000
vt 0.468750 0.750000
vt 0.500000 0.750000
vt 0.500000 0.750000
vt 0.531250 0.750000
vt 0.531250 0.750000
vt 0.562500 0.750000
vt 0.562500 0.750000
vt 0.531250 0.750000
vt 0.406250 0.750000
vt 0.437500 0.750000
vt 0.468750 0.750000
vt 0.500000 0.750000
vt 0.531250 0.750000
vt 0.562500 0.750000
vt 0.593750 0.750000
vt 0.437500 0.750000
vt 0.406250 0.750000
vt 0.406250 0.750000
vt 0.437500 0.750000
vt 0.468750 0.750000
vt 0.500000 0.750000
vt 0.531250 0.750000
vt 0.562500 0.750000
vt 0.406250 0.750000
vt 0.437500 0.750000
vt 0.468750 0.750000
vt 0.500000 0.750000
vt 0.531250 0.750000
vt 0.562500 0.750000
vt 0.406250 0.720257
vt 0.437500 0.720257
vt 0.468750 0.720257
vt 0.500000 0.720257
vt 0.531250 0.720257
vt 0.562500 0.720257
vt 0.375000 0.750000
vt 0.406250 0.750000
vt 0.375000 0.750000
vt 0.343778 0.750000
vt 0.343778 0.750000
vt 0.302149 0.750000
vt 0.302991 0.750000
vt 0.625000 0.781222
vt 0.625000 0.781222
vt 0.625000 0.781222
vt 0.375000 0.750000
vt 0.343778 0.750000
vt 0.000000 0.000000
vt 0.000000 0.000000
vt 0.000000 0.000000
vt 0.000000 0.000000
vt 0.000000 0.000000
vt 0.000000 0.000000
vt 0.000000 0.000000
vt 0.000000 0.000000
vt 0.000000 0.000000
vt 0.000000 0.000000
vt 0.000000 0.000000
vt 0.000000 0.000000
vt 0.000000 0.000000
vt 0.000000 0.000000
vt 0.000000 0.000000
vt 0.000000 0.000000
vt 0.000000 0.000000
vt 0.000000 0.000000
vt 0.000000 0.000000
vt 0.000000 0.000000
vt 0.000000 0.000000
vt 0.000000 0.000000
vt 0.000000 0.000000
vt 0.000000 0.000000
vt 0.000000 0.000000
vt 0.000000 0.000000
vt 0.000000 0.000000
vt 0.000000 0.000000
vt 0.000000 0.000000
vt 0.000000 0.000000
vt 0.000000 0.000000
vt 0.625000 0.821167
vt 0.312500 0.390611
vt 0.625000 0.821167
vt 0.000000 0.000000
vt 0.000000 0.000000
vt 0.000000 0.000000
vt 0.000000 0.000000
vt 0.000000 0.000000
vt 0.000000 0.000000
vt 0.000000 0.000000
vt 0.000000 0.000000
vt 0.000000 0.000000
vt 0.000000 0.000000
vt 0.000000 0.000000
vt 0.000000 0.000000
vt 0.625000 0.781222
vt 0.625000 0.750000
vt 0.312500 0.375000
vt 0.625000 0.781222
vt 0.000000 0.000000
vt 0.000000 0.000000
vt 0.000000 0.000000
vt 0.000000 0.000000
vt 0.593750 0.720257
vt 0.593750 0.750000
vt 0.625000 0.750000
vt 0.625000 0.720257
vt 0.343778 0.720257
vt 0.343778 0.750000
vt 0.375000 0.750000
vt 0.375000 0.720257
vt 0.625000 0.781222
vt 0.656222 0.720257
vt 0.343778 0.750000
vt 0.593750 0.750000
vt 0.625000 0.750000
vt 0.375000 0.750000
vt 0.625000 0.781222
vt 0.343778 0.750000
vt 0.593750 0.750000
vt 0.625000 0.750000
vt 0.625000 0.781222
vt 0.375000 0.750000
vt 0.343778 0.750000
vt 0.343778 0.750000
vt 0.375000 0.750000
vt 0.343778 0.750000
vt 0.375000 0.750000
vt 0.343778 0.750000
vt 0.375000 0.750000
vt 0.375000 0.750000
vt 0.437500 0.750000
vt 0.437500 0.750000
vt 0.468750 0.750000
vt 0.468750 0.750000
vt 0.343778 0.750000
vt 0.375000 0.750000
vt 0.406250 0.750000
vt 0.406250 0.750000
vt 0.406250 0.750000
vt 0.437500 0.750000
vt 0.468750 0.750000
vt 0.500000 0.750000
vt 0.500000 0.750000
vt 0.406250 0.750000
vt 0.406250 0.750000
vt 0.437500 0.750000
vt 0.437500 0.750000
vt 0.468750 0.750000
vt 0.468750 0.750000
vt 0.500000 0.750000
vt 0.500000 0.750000
vt 0.531250 0.750000
vt 0.531250 0.750000
vt 0.562500 0.750000
vt 0.562500 0.750000
vt 0.531250 0.750000
vt 0.406250 0.750000
vt 0.437500 0.750000
vt 0.468750 0.750000
vt 0.500000 0.750000
vt 0.531250 0.750000
vt 0.562500 0.750000
vt 0.593750 0.750000
vt 0.406250 0.750000
vt 0.437500 0.750000
vt 0.406250 0.750000
vt 0.437500 0.750000
vt 0.468750 0.750000
vt 0.500000 0.750000
vt 0.531250 0.750000
vt 0.562500 0.750000
vt 0.406250 0.750000
vt 0.437500 0.750000
vt 0.468750 0.750000
vt 0.500000 0.750000
vt 0.531250 0.750000
vt 0.562500 0.750000
vt 0.406250 0.720257
vt 0.437500 0.720257
vt 0.468750 0.720257
vt 0.500000 0.720257
vt 0.531250 0.720257
vt 0.562500 0.720257
vt 0.375000 0.750000
vt 0.375000 0.750000
vt 0.406250 0.750000
vt 0.343778 0.750000
vt 0.343778 0.750000
vt 0.625000 0.781222
vt 0.625000 0.781222
vt 0.625000 0.781222
vt 0.343778 0.750000
vt 0.375000 0.750000
vt 0.000000 0.000000
vt 0.000000 0.000000
vt 0.000000 0.000000
vt 0.000000 0.000000
vt 0.000000 0.000000
vt 0.000000 0.000000
vt 0.000000 0.000000
vt 0.000000 0.000000
vt 0.000000 0.000000
vt 0.000000 0.000000
vt 0.000000 0.000000
vt 0.000000 0.000000
vt 0.000000 0.000000
vt 0.000000 0.000000
vt 0.000000 0.000000
vt 0.000000 0.000000
vt 0.000000 0.000000
vt 0.000000 0.000000
vt 0.000000 0.000000
vt 0.000000 0.000000
vt 0.000000 0.000000
vt 0.000000 0.000000
vt 0.000000 0.000000
vt 0.000000 0.000000
vt 0.000000 0.000000
vt 0.000000 0.000000
vt 0.000000 0.000000
vt 0.000000 0.000000
vt 0.000000 0.000000
vt 0.625000 0.781222
vt 0.625000 0.781222
vt 0.312500 0.375000
vt 0.625000 0.750000
vt 0.000000 0.000000
vt 0.000000 0.000000
vt 0.000000 0.000000
vt 0.000000 0.000000
vn 1.0000 0.0000 0.0000
vn 0.0000 -1.0000 0.0000
vn 0.0000 1.0000 0.0000
vn -1.0000 0.0000 0.0000
vn 0.0000 0.7863 0.6179
vn 0.0000 0.7721 0.6355
vn 0.0000 0.0000 1.0000
vn 0.0000 -0.7580 -0.6522
vn -0.0000 -0.7863 -0.6179
usemtl None
s off
f 34/1/1 3/2/1 2/3/1 27/4/1
f 8/5/2 4/6/2 1/7/2 5/8/2
f 7/9/3 6/10/3 235/11/3 234/12/3
f 233/13/2 5/8/2 13/14/2 237/15/2
f 27/4/1 2/3/1 11/16/1 41/17/1
f 236/18/2 8/5/2 5/8/2 233/13/2
f 5/8/2 1/7/2 12/19/2 13/14/2
f 2/3/3 7/9/3 14/20/3 11/16/3
f 237/15/2 13/14/2 17/21/2 238/22/2
f 41/17/1 11/16/1 15/23/1 48/24/1
f 11/16/3 14/20/3 18/25/3 15/23/3
f 13/14/2 12/19/2 16/26/2 17/21/2
f 239/27/2 20/28/2 22/29/2 240/30/2
f 238/22/2 17/21/2 20/28/2 239/27/2
f 17/21/2 16/26/2 19/31/2 20/28/2
f 240/30/2 22/29/2 24/32/2 241/33/2
f 20/28/2 19/31/2 21/34/2 22/29/2
f 241/33/2 24/32/2 26/35/2 242/36/2
f 22/29/2 21/34/2 23/37/2 24/32/2
f 24/32/2 23/37/2 25/38/2 26/35/2
f 77/39/1 76/40/1 69/41/1 62/42/1
f 26/35/2 25/38/2 79/43/2 80/44/2
f 25/38/1 78/45/1 81/46/1 79/43/1
f 23/37/1 74/47/1 78/45/1 25/38/1
f 74/47/1 73/48/1 77/39/1 78/45/1
f 73/48/1 72/49/1 76/40/1 77/39/1
f 72/49/1 71/50/1 75/51/1 76/40/1
f 19/31/1 61/52/1 68/53/1 21/34/1
f 61/52/1 60/54/1 67/55/1 68/53/1
f 60/54/1 59/56/1 66/57/1 67/55/1
f 59/56/1 58/58/1 65/59/1 66/57/1
f 58/58/1 57/60/1 64/61/1 65/59/1
f 57/60/1 56/62/1 63/63/1 64/61/1
f 21/34/1 68/53/1 74/47/1 23/37/1
f 68/53/1 67/55/1 73/48/1 74/47/1
f 67/55/1 66/57/1 72/49/1 73/48/1
f 66/57/1 65/59/1 71/50/1 72/49/1
f 65/59/1 64/61/1 70/64/1 71/50/1
f 16/26/1 54/65/1 61/52/1 19/31/1
f 54/65/1 53/66/1 60/54/1 61/52/1
f 53/66/1 52/67/1 59/56/1 60/54/1
f 52/67/1 51/68/1 58/58/1 59/56/1
f 51/68/1 50/69/1 57/60/1 58/58/1
f 50/69/1 49/70/1 56/62/1 57/60/1
f 49/70/1 48/24/1 55/71/1 56/62/1
f 78/45/1 77/39/1 62/42/1 81/46/1
f 81/46/1 62/42/1 82/72/1 83/73/1
f 12/19/1 47/74/1 54/65/1 16/26/1
f 47/74/1 46/75/1 53/66/1 54/65/1
f 46/75/1 45/76/1 52/67/1 53/66/1
f 45/76/1 44/77/1 51/68/1 52/67/1
f 44/77/1 43/78/1 50/69/1 51/68/1
f 43/78/1 42/79/1 49/70/1 50/69/1
f 42/79/1 41/17/1 48/24/1 49/70/1
f 1/7/1 33/80/1 47/74/1 12/19/1
f 33/80/1 32/81/1 46/75/1 47/74/1
f 32/81/1 31/82/1 45/76/1 46/75/1
f 31/82/1 30/83/1 44/77/1 45/76/1
f 30/83/1 29/84/1 43/78/1 44/77/1
f 29/84/1 28/85/1 42/79/1 43/78/1
f 28/85/1 27/4/1 41/17/1 42/79/1
f 4/6/1 40/86/1 33/80/1 1/7/1
f 40/86/1 39/87/1 32/81/1 33/80/1
f 39/87/1 38/88/1 31/82/1 32/81/1
f 38/88/1 37/89/1 30/83/1 31/82/1
f 37/89/1 36/90/1 29/84/1 30/83/1
f 36/90/1 35/91/1 28/85/1 29/84/1
f 35/91/1 34/1/1 27/4/1 28/85/1
f 85/92/1 83/73/1 86/93/1 88/94/1
f 79/43/1 81/46/1 83/73/1 85/92/1
f 80/44/2 79/43/2 85/92/2 84/95/2
f 84/95/2 85/92/2 88/94/2 87/96/2
f 244/97/2 242/36/2 26/35/2 80/44/2
f 243/98/2 244/97/2 80/44/2 84/95/2
f 14/20/4 7/9/4 89/99/4 90/100/4
f 18/25/4 14/20/4 90/100/4 91/101/4
f 87/96/2 88/94/2 112/102/2 111/103/2
f 48/24/1 15/23/1 55/71/1
f 56/62/1 55/71/1 63/63/1
f 64/61/1 63/63/1 70/64/1
f 71/50/1 70/64/1 75/51/1
f 76/40/1 75/51/1 69/41/1
f 62/42/1 69/41/1 82/72/1
f 83/73/1 82/72/1 86/93/1
f 88/94/1 86/93/1 112/102/1
f 87/96/4 111/103/4 104/104/4
f 103/105/4 104/104/4 102/106/4
f 101/107/4 102/106/4 100/108/4
f 99/109/1 98/110/1 100/108/1
f 97/111/1 96/112/1 98/110/1
f 95/113/1 94/114/1 96/112/1
f 93/115/4 94/114/4 92/116/4
f 18/25/4 91/101/4 92/116/4
f 18/25/5 92/116/5 55/71/5 15/23/5
f 63/63/6 55/71/6 92/116/6 94/114/6
f 70/64/6 63/63/6 94/114/6 96/112/6
f 75/51/6 70/64/6 96/112/6 98/110/6
f 69/41/6 75/51/6 98/110/6 100/108/6
f 82/72/6 69/41/6 100/108/6 102/106/6
f 86/93/6 82/72/6 102/106/6 104/104/6
f 111/103/6 112/102/6 86/93/6 104/104/6
f 247/117/7 84/118/7 103/105/7 246/119/7
f 248/120/3 246/119/3 103/105/3 110/121/3
f 248/120/7 110/121/7 101/107/7 249/122/7
f 251/123/3 250/124/3 99/109/3 108/125/3
f 251/123/7 108/125/7 97/111/7 252/126/7
f 253/127/3 252/126/3 97/111/3 107/128/3
f 253/127/7 107/128/7 95/113/7 254/129/7
f 255/130/3 254/129/3 95/113/3 106/131/3
f 255/130/7 106/131/7 93/115/7 256/132/7
f 257/133/3 256/132/3 93/115/3 105/134/3
f 259/135/3 258/136/3 91/101/3 90/100/3
f 260/137/3 259/135/3 90/100/3 89/99/3
f 105/134/7 91/138/7 258/139/7 257/133/7
f 109/140/7 99/109/7 250/124/7 245/141/7
f 109/140/3 245/141/3 249/122/3 101/107/3
f 7/9/7 234/12/7 260/137/7 89/99/7
f 9/142/4 2/143/4 11/144/4 115/145/4
f 7/146/4 14/147/4 116/148/4 10/149/4
f 10/150/8 9/151/8 115/152/8 116/153/8
f 87/96/4 104/104/4 103/105/4 84/118/4
f 91/138/4 105/134/4 93/115/4 92/116/4
f 93/115/4 106/131/4 95/113/4 94/114/4
f 95/113/1 96/112/1 97/111/1 107/128/1
f 97/111/1 98/110/1 99/109/1 108/125/1
f 99/109/1 100/108/1 101/107/1 109/140/1
f 101/107/4 110/121/4 103/105/4 102/106/4
f 115/145/4 11/144/4 15/154/4
f 116/153/9 115/152/9 15/154/9 18/25/9
f 116/148/4 14/147/4 18/155/4
f 114/156/1 9/142/1 2/143/1 3/2/1
f 113/157/4 6/10/4 7/146/4 10/149/4
f 10/149/2 113/157/2 114/156/2 9/142/2
f 150/158/4 143/159/4 118/160/4 119/161/4
f 124/162/2 121/163/2 117/164/2 120/165/2
f 123/166/3 234/12/3 235/11/3 122/167/3
f 233/13/2 237/15/2 129/168/2 121/163/2
f 143/159/4 157/169/4 127/170/4 118/160/4
f 236/18/2 233/13/2 121/163/2 124/162/2
f 121/163/2 129/168/2 128/171/2 117/164/2
f 118/160/3 127/170/3 130/172/3 123/166/3
f 237/15/2 238/22/2 133/173/2 129/168/2
f 157/169/4 164/174/4 131/175/4 127/170/4
f 127/170/3 131/175/3 134/176/3 130/172/3
f 129/168/2 133/173/2 132/177/2 128/171/2
f 239/27/2 240/30/2 138/178/2 136/179/2
f 238/22/2 239/27/2 136/179/2 133/173/2
f 133/173/2 136/179/2 135/180/2 132/177/2
f 240/30/2 241/33/2 140/181/2 138/178/2
f 136/179/2 138/178/2 137/182/2 135/180/2
f 241/33/2 242/36/2 142/183/2 140/181/2
f 138/178/2 140/181/2 139/184/2 137/182/2
f 140/181/2 142/183/2 141/185/2 139/184/2
f 193/186/4 178/187/4 185/188/4 192/189/4
f 142/183/2 196/190/2 195/191/2 141/185/2
f 141/185/4 195/191/4 197/192/4 194/193/4
f 139/184/4 141/185/4 194/193/4 190/194/4
f 190/194/4 194/193/4 193/186/4 189/195/4
f 189/195/4 193/186/4 192/189/4 188/196/4
f 188/196/4 192/189/4 191/197/4 187/198/4
f 135/180/4 137/182/4 184/199/4 177/200/4
f 177/200/4 184/199/4 183/201/4 176/202/4
f 176/202/4 183/201/4 182/203/4 175/204/4
f 175/204/4 182/203/4 181/205/4 174/206/4
f 174/206/4 181/205/4 180/207/4 173/208/4
f 173/208/4 180/207/4 179/209/4 172/210/4
f 137/182/4 139/184/4 190/194/4 184/199/4
f 184/199/4 190/194/4 189/195/4 183/201/4
f 183/201/4 189/195/4 188/196/4 182/203/4
f 182/203/4 188/196/4 187/198/4 181/205/4
f 181/205/4 187/198/4 186/211/4 180/207/4
f 132/177/4 135/180/4 177/200/4 170/212/4
f 170/212/4 177/200/4 176/202/4 169/213/4
f 169/213/4 176/202/4 175/204/4 168/214/4
f 168/214/4 175/204/4 174/206/4 167/215/4
f 167/215/4 174/206/4 173/208/4 166/216/4
f 166/216/4 173/208/4 172/210/4 165/217/4
f 165/217/4 172/210/4 171/218/4 164/174/4
f 194/193/4 197/192/4 178/187/4 193/186/4
f 197/192/4 199/219/4 198/220/4 178/187/4
f 128/171/4 132/177/4 170/212/4 163/221/4
f 163/221/4 170/212/4 169/213/4 162/222/4
f 162/222/4 169/213/4 168/214/4 161/223/4
f 161/223/4 168/214/4 167/215/4 160/224/4
f 160/224/4 167/215/4 166/216/4 159/225/4
f 159/225/4 166/216/4 165/217/4 158/226/4
f 158/226/4 165/217/4 164/174/4 157/169/4
f 117/164/4 128/171/4 163/221/4 149/227/4
f 149/227/4 163/221/4 162/222/4 148/228/4
f 148/228/4 162/222/4 161/223/4 147/229/4
f 147/229/4 161/223/4 160/224/4 146/230/4
f 146/230/4 160/224/4 159/225/4 145/231/4
f 145/231/4 159/225/4 158/226/4 144/232/4
f 144/232/4 158/226/4 157/169/4 143/159/4
f 120/165/4 117/164/4 149/227/4 156/233/4
f 156/233/4 149/227/4 148/228/4 155/234/4
f 155/234/4 148/228/4 147/229/4 154/235/4
f 154/235/4 147/229/4 146/230/4 153/236/4
f 153/236/4 146/230/4 145/231/4 152/237/4
f 152/237/4 145/231/4 144/232/4 151/238/4
f 151/238/4 144/232/4 143/159/4 150/158/4
f 201/239/4 204/240/4 202/241/4 199/219/4
f 195/191/4 201/239/4 199/219/4 197/192/4
f 196/190/2 200/242/2 201/239/2 195/191/2
f 200/242/2 203/243/2 204/240/2 201/239/2
f 244/97/2 196/190/2 142/183/2 242/36/2
f 243/98/2 200/242/2 196/190/2 244/97/2
f 130/172/1 206/244/1 205/245/1 123/166/1
f 134/176/1 207/246/1 206/244/1 130/172/1
f 203/243/2 227/247/2 228/248/2 204/240/2
f 164/174/4 171/218/4 131/175/4
f 172/210/4 179/209/4 171/218/4
f 180/207/4 186/211/4 179/209/4
f 187/198/4 191/197/4 186/211/4
f 192/189/4 185/188/4 191/197/4
f 178/187/4 198/220/4 185/188/4
f 199/219/4 202/241/4 198/220/4
f 204/240/4 228/248/4 202/241/4
f 203/243/1 220/249/1 227/247/1
f 219/250/1 218/251/1 220/249/1
f 217/252/1 216/253/1 218/251/1
f 215/254/4 216/253/4 214/255/4
f 213/256/4 214/255/4 212/257/4
f 211/258/4 212/257/4 210/259/4
f 209/260/1 208/261/1 210/259/1
f 134/176/1 208/261/1 207/246/1
f 134/176/5 131/175/5 171/218/5 208/261/5
f 179/209/6 210/259/6 208/261/6 171/218/6
f 186/211/6 212/257/6 210/259/6 179/209/6
f 191/197/6 214/255/6 212/257/6 186/211/6
f 185/188/6 216/253/6 214/255/6 191/197/6
f 198/220/6 218/251/6 216/253/6 185/188/6
f 202/241/6 220/249/6 218/251/6 198/220/6
f 227/247/6 220/249/6 202/241/6 228/248/6
f 247/117/7 246/119/7 219/250/7 200/262/7
f 248/120/3 226/263/3 219/250/3 246/119/3
f 248/120/7 249/122/7 217/252/7 226/263/7
f 251/123/3 224/264/3 215/254/3 250/124/3
f 251/123/7 252/126/7 213/256/7 224/264/7
f 253/127/3 223/265/3 213/256/3 252/126/3
f 253/127/7 254/129/7 211/258/7 223/265/7
f 255/130/3 222/266/3 211/258/3 254/129/3
f 255/130/7 256/132/7 209/260/7 222/266/7
f 257/133/3 221/267/3 209/260/3 256/132/3
f 259/135/3 206/244/3 207/246/3 258/136/3
f 260/137/3 205/245/3 206/244/3 259/135/3
f 221/267/7 257/133/7 258/139/7 207/268/7
f 225/269/7 245/141/7 250/124/7 215/254/7
f 225/269/3 217/252/3 249/122/3 245/141/3
f 123/166/7 205/245/7 260/137/7 234/12/7
f 125/270/1 231/271/1 127/272/1 118/273/1
f 123/274/1 126/275/1 232/276/1 130/277/1
f 126/278/8 232/279/8 231/280/8 125/281/8
f 203/243/1 200/262/1 219/250/1 220/249/1
f 207/268/1 208/261/1 209/260/1 221/267/1
f 209/260/1 210/259/1 211/258/1 222/266/1
f 211/258/4 223/265/4 213/256/4 212/257/4
f 213/256/4 224/264/4 215/254/4 214/255/4
f 215/254/4 225/269/4 217/252/4 216/253/4
f 217/252/1 218/251/1 219/250/1 226/263/1
f 231/271/1 131/282/1 127/272/1
f 232/279/9 134/176/9 131/282/9 231/280/9
f 232/276/1 134/283/1 130/277/1
f 230/284/4 119/161/4 118/273/4 125/270/4
f 229/285/1 126/275/1 123/274/1 122/167/1
f 126/275/2 125/270/2 230/284/2 229/285/2
