# Blender v2.93.6 OBJ File: 'assets.blend'
# www.blender.org
mtllib academy_tower.mtl
o Academy_Tower_Cube.019
v -18.185324 0.041875 -1.688462
v -18.185324 1.347079 -1.688462
v -18.413784 0.041875 -1.916922
v -18.413784 1.347079 -1.916922
v -17.776220 0.041875 -2.097565
v -17.776220 1.347079 -2.097565
v -18.004681 0.041875 -2.326025
v -18.004681 1.347079 -2.326025
v -18.311508 0.041875 -2.223749
v -18.311508 1.347079 -2.223749
v -17.980772 0.041875 -1.893013
v -17.980772 1.347079 -1.893013
v -18.344856 0.041875 -1.781297
v -18.344856 1.347079 -1.781297
v -17.869057 0.041875 -2.257098
v -17.869057 1.347079 -2.257098
v -18.106956 1.347079 -2.019198
v -18.106956 0.041875 -2.019198
vt 0.375000 0.125000
vt 0.625000 0.125000
vt 0.625000 0.187500
vt 0.375000 0.187500
vt 0.375000 0.375000
vt 0.625000 0.375000
vt 0.625000 0.562500
vt 0.375000 0.562500
vt 0.375000 0.625000
vt 0.625000 0.625000
vt 0.625000 0.702110
vt 0.375000 0.702110
vt 0.375000 0.875000
vt 0.625000 0.875000
vt 0.625000 1.000000
vt 0.375000 1.000000
vt 0.250000 0.625000
vt 0.250000 0.702110
vt 0.750000 0.625000
vt 0.875000 0.625000
vt 0.875000 0.702110
vt 0.750000 0.702110
vt 0.125000 0.625000
vt 0.125000 0.702110
vt 0.125000 0.562500
vt 0.250000 0.500000
vt 0.750000 0.500000
vt 0.875000 0.562500
vt 0.375000 0.047890
vt 0.625000 0.047890
vn -0.8915 0.0000 0.4531
vn -0.3162 0.0000 -0.9487
vn 0.8643 0.0000 -0.5030
vn 0.7071 0.0000 0.7071
vn 0.0000 -1.0000 0.0000
vn 0.0000 1.0000 -0.0000
vn -0.9487 0.0000 -0.3162
vn 0.4531 0.0000 -0.8915
vn -0.5030 0.0000 0.8643
usemtl None
s off
f 13/1/1 14/2/1 4/3/1 3/4/1
f 9/5/2 10/6/2 8/7/2 7/8/2
f 15/9/3 16/10/3 6/11/3 5/12/3
f 11/13/4 12/14/4 2/15/4 1/16/4
f 18/17/5 15/9/5 5/12/5 11/18/5
f 17/19/6 14/20/6 2/21/6 12/22/6
f 16/10/6 17/19/6 12/22/6 6/11/6
f 13/23/5 18/17/5 11/18/5 1/24/5
f 5/12/4 6/11/4 12/14/4 11/13/4
f 3/4/7 4/3/7 10/6/7 9/5/7
f 3/25/5 9/26/5 18/17/5 13/23/5
f 8/7/6 10/27/6 17/19/6 16/10/6
f 10/27/6 4/28/6 14/20/6 17/19/6
f 9/26/5 7/8/5 15/9/5 18/17/5
f 7/8/8 8/7/8 16/10/8 15/9/8
f 1/29/9 2/30/9 14/2/9 13/1/9
