# Blender v2.93.6 OBJ File: 'assets.blend'
# www.blender.org
mtllib basket_handle.mtl
o Basket_Handle_randomprops
v 16.969200 0.208661 -0.058032
v 16.977821 0.208661 -0.072808
v 16.979053 0.208661 -0.074919
v 16.987673 0.208661 -0.089696
v 17.023125 0.208661 -0.099023
v 17.054790 0.208661 -0.080550
v 17.064117 0.208661 -0.045098
v 17.055805 0.208661 -0.030849
v 17.053957 0.208661 -0.027682
v 17.045645 0.208661 -0.013434
v 17.010191 0.208661 -0.004106
v 16.978527 0.208661 -0.022579
v 17.026722 0.233387 -0.125410
v 16.971558 0.233387 -0.110896
v 16.971558 0.258701 -0.110896
v 17.026722 0.258701 -0.125410
v 17.088541 0.228783 -0.041770
v 17.074413 0.228783 -0.095467
v 17.075991 0.231621 -0.096666
v 17.090504 0.231621 -0.041502
v 17.006865 0.228783 0.020317
v 17.060560 0.228783 0.006190
v 17.061760 0.231621 0.007767
v 17.006596 0.231621 0.022281
v 16.944777 0.228783 -0.061360
v 16.958904 0.228783 -0.007663
v 16.957327 0.231621 -0.006464
v 16.942814 0.231621 -0.061627
v 17.026453 0.228783 -0.123447
v 17.026722 0.231621 -0.125410
v 17.075951 0.228783 -0.020188
v 17.077570 0.231621 -0.019331
v 16.957834 0.228783 -0.083741
v 16.956228 0.231621 -0.084619
v 16.972757 0.228783 -0.109319
v 16.971558 0.231621 -0.110896
v 17.073715 0.258701 -0.094937
v 17.026335 0.258701 -0.122579
v 17.025839 0.230045 -0.118930
v 17.070784 0.230045 -0.092708
v 17.090504 0.233387 -0.041502
v 17.075991 0.233387 -0.096666
v 17.075991 0.258701 -0.096666
v 17.090504 0.258701 -0.041502
v 17.006596 0.233387 0.022281
v 17.061760 0.233387 0.007767
v 17.061760 0.258701 0.007767
v 17.006596 0.258701 0.022281
v 16.942814 0.233387 -0.061627
v 16.957327 0.233387 -0.006464
v 16.957327 0.258701 -0.006464
v 16.942814 0.258701 -0.061627
v 17.077570 0.233387 -0.019331
v 17.077570 0.258701 -0.019331
v 16.956228 0.233387 -0.084619
v 16.956228 0.258701 -0.084619
v 17.073715 0.262133 -0.094937
v 17.026335 0.262133 -0.122579
v 16.970097 0.258646 -0.112819
v 17.027048 0.258646 -0.127803
v 17.087673 0.258701 -0.041888
v 17.087673 0.262133 -0.041888
v 17.072470 0.258701 -0.015829
v 17.060030 0.258701 0.005492
v 17.060030 0.262133 0.005492
v 17.072470 0.262133 -0.015829
v 17.077913 0.258646 -0.098128
v 17.006983 0.258701 0.019449
v 17.006983 0.262133 0.019449
v 17.007479 0.230045 0.015800
v 17.057802 0.230045 0.002561
v 17.048414 0.214135 -0.009789
v 17.009573 0.214135 0.000430
v 17.075233 0.258701 -0.020567
v 17.084024 0.230045 -0.042385
v 17.072224 0.230045 -0.022160
v 16.959602 0.258701 -0.008193
v 16.962534 0.230045 -0.010421
v 16.958544 0.258701 -0.083352
v 16.945644 0.258701 -0.061241
v 16.949293 0.230045 -0.060744
v 16.961531 0.230045 -0.081719
v 16.973286 0.258701 -0.108622
v 16.975515 0.230045 -0.105690
v 16.964664 0.214135 -0.058650
v 16.974884 0.214135 -0.019809
v 17.057522 0.214135 -0.025400
v 17.059546 0.214135 -0.028869
v 17.068653 0.214135 -0.044480
v 17.058434 0.214135 -0.083320
v 17.023745 0.214135 -0.103559
v 16.984903 0.214135 -0.093340
v 16.975458 0.214135 -0.077151
v 16.974110 0.214135 -0.074839
v 16.945644 0.262133 -0.061241
v 16.940420 0.262189 -0.061953
v 16.955404 0.262189 -0.005002
v 16.959602 0.262133 -0.008193
v 17.006269 0.262189 0.024674
v 17.063221 0.262189 0.009690
v 17.075233 0.262133 -0.020567
v 17.079544 0.262189 -0.018286
v 17.092897 0.262189 -0.041176
v 17.077913 0.262189 -0.098128
v 17.027048 0.262189 -0.127803
v 16.970097 0.262189 -0.112819
v 16.973286 0.262133 -0.108622
v 17.092897 0.258646 -0.041176
v 16.960386 0.258701 -0.086511
v 16.960386 0.262133 -0.086511
v 17.079544 0.258646 -0.018286
v 16.954269 0.258646 -0.085691
v 16.940420 0.258646 -0.061953
v 16.954269 0.262189 -0.085691
v 16.955404 0.258646 -0.005002
v 17.006269 0.258646 0.024674
v 17.063221 0.258646 0.009690
v 16.958544 0.262133 -0.083352
v 16.979425 0.211289 -0.100545
v 17.024965 0.211289 -0.112526
v 16.955698 0.211289 -0.059872
v 16.966770 0.211289 -0.078852
v 17.008352 0.211289 0.009397
v 16.967678 0.211289 -0.014332
v 17.077620 0.211289 -0.043258
v 17.066942 0.211289 -0.024955
v 17.065639 0.211289 -0.088797
v 17.053890 0.211289 -0.002584
v 17.074696 0.231621 -0.014404
v 17.074696 0.233387 -0.014404
v 17.064569 0.211289 -0.020888
v 17.073153 0.228783 -0.015392
v 17.076576 0.258646 -0.013200
v 17.076576 0.262189 -0.013200
v 17.074696 0.258701 -0.014404
v 17.069601 0.230045 -0.017665
v 16.958143 0.231621 -0.087904
v 16.958143 0.233387 -0.087904
v 16.968353 0.211289 -0.081564
v 16.959700 0.228783 -0.086938
v 16.956247 0.262189 -0.089082
v 16.958143 0.258701 -0.087904
v 16.956247 0.258646 -0.089082
v 16.963278 0.230045 -0.084715
v 17.072470 0.300711 -0.015829
v 17.038292 0.333888 -0.036086
v 17.040779 0.333888 -0.040350
v 17.075233 0.300711 -0.020567
v 16.956247 0.300767 -0.089082
v 16.984505 0.340796 -0.072663
v 16.984505 0.333888 -0.072663
v 16.960386 0.300711 -0.086511
v 16.958544 0.300711 -0.083352
v 16.982470 0.333888 -0.069172
v 16.982470 0.340796 -0.069172
v 16.954269 0.300767 -0.085691
v 17.076576 0.300767 -0.013200
v 17.038292 0.340796 -0.036086
v 17.040779 0.340796 -0.040350
v 17.079544 0.300767 -0.018286
v 17.075233 0.263839 -0.020567
v 17.079544 0.263894 -0.018286
v 17.076576 0.263894 -0.013200
v 17.072470 0.263839 -0.015829
v 16.954269 0.264016 -0.085691
v 16.956247 0.264016 -0.089082
v 16.958544 0.263961 -0.083352
v 16.960386 0.263961 -0.086511
vt 0.000000 0.000000
vt 0.000000 0.000000
vt 0.000000 0.000000
vt 0.000000 0.000000
vt 0.000000 0.000000
vt 0.000000 0.000000
vt 0.000000 0.000000
vt 0.000000 0.000000
vt 0.000000 0.000000
vt 0.000000 0.000000
vt 0.000000 0.000000
vt 0.000000 0.000000
vt 0.000000 0.000000
vt 0.000000 0.000000
vt 0.000000 0.000000
vt 0.000000 0.000000
vt 0.000000 0.000000
vt 0.000000 0.000000
vt 0.000000 0.000000
vt 0.000000 0.000000
vt 0.000000 0.000000
vt 0.000000 0.000000
vt 0.000000 0.000000
vt 0.000000 0.000000
vt 0.000000 0.000000
vt 0.000000 0.000000
vt 0.000000 0.000000
vt 0.000000 0.000000
vt 0.000000 0.000000
vt 0.000000 0.000000
vt 0.000000 0.000000
vt 0.000000 0.000000
vt 0.000000 0.000000
vt 0.000000 0.000000
vt 0.000000 0.000000
vt 0.000000 0.000000
vt 0.000000 0.000000
vt 0.000000 0.000000
vt 0.000000 0.000000
vt 0.000000 0.000000
vt 0.000000 0.000000
vt 0.000000 0.000000
vt 0.000000 0.000000
vt 0.000000 0.000000
vt 0.000000 0.000000
vt 0.000000 0.000000
vt 0.000000 0.000000
vt 0.000000 0.000000
vt 0.000000 0.000000
vt 0.000000 0.000000
vt 0.000000 0.000000
vt 0.000000 0.000000
vt 0.000000 0.000000
vt 0.000000 0.000000
vt 0.000000 0.000000
vt 0.000000 0.000000
vt 0.000000 0.000000
vt 0.000000 0.000000
vt 0.000000 0.000000
vt 0.000000 0.000000
vt 0.000000 0.000000
vt 0.000000 0.000000
vt 0.000000 0.000000
vt 0.000000 0.000000
vt 0.000000 0.000000
vt 0.000000 0.000000
vt 0.000000 0.000000
vt 0.000000 0.000000
vt 0.000000 0.000000
vt 0.000000 0.000000
vt 0.000000 0.000000
vt 0.000000 0.000000
vt 0.000000 0.000000
vt 0.000000 0.000000
vt 0.000000 0.000000
vt 0.000000 0.000000
vt 0.000000 0.000000
vt 0.000000 0.000000
vt 0.000000 0.000000
vt 0.000000 0.000000
vt 0.000000 0.000000
vt 0.000000 0.000000
vt 0.000000 0.000000
vt 0.000000 0.000000
vt 0.000000 0.000000
vt 0.000000 0.000000
vt 0.000000 0.000000
vt 0.000000 0.000000
vt 0.000000 0.000000
vt 0.000000 0.000000
vt 0.000000 0.000000
vt 0.000000 0.000000
vt 0.000000 0.000000
vt 0.000000 0.000000
vt 0.000000 0.000000
vt 0.000000 0.000000
vt 0.000000 0.000000
vt 0.000000 0.000000
vt 0.000000 0.000000
vt 0.000000 0.000000
vt 0.000000 0.000000
vt 0.000000 0.000000
vt 0.000000 0.000000
vt 0.000000 0.000000
vt 0.000000 0.000000
vt 0.000000 0.000000
vt 0.000000 0.000000
vt 0.000000 0.000000
vt 0.000000 0.000000
vt 0.000000 0.000000
vt 0.000000 0.000000
vt 0.000000 0.000000
vt 0.000000 0.000000
vt 0.000000 0.000000
vt 0.000000 0.000000
vt 0.000000 0.000000
vt 0.000000 0.000000
vt 0.000000 0.000000
vt 0.000000 0.000000
vt 0.000000 0.000000
vt 0.000000 0.000000
vt 0.000000 0.000000
vt 0.000000 0.000000
vt 0.000000 0.000000
vt 0.000000 0.000000
vt 0.000000 0.000000
vt 0.000000 0.000000
vt 0.000000 0.000000
vt 0.000000 0.000000
vt 0.000000 0.000000
vt 0.000000 0.000000
vt 0.000000 0.000000
vt 0.000000 0.000000
vt 0.000000 0.000000
vt 0.000000 0.000000
vt 0.000000 0.000000
vt 0.000000 0.000000
vt 0.000000 0.000000
vt 0.000000 0.000000
vt 0.000000 0.000000
vt 0.000000 0.000000
vt 0.000000 0.000000
vt 0.000000 0.000000
vt 0.000000 0.000000
vt 0.000000 0.000000
vt 0.000000 0.000000
vt 0.000000 0.000000
vt 0.000000 0.000000
vt 0.000000 0.000000
vt 0.000000 0.000000
vt 0.000000 0.000000
vt 0.000000 0.000000
vt 0.000000 0.000000
vt 0.000000 0.000000
vt 0.000000 0.000000
vt 0.000000 0.000000
vt 0.000000 0.000000
vt 0.000000 0.000000
vt 0.000000 0.000000
vt 0.000000 0.000000
vt 0.000000 0.000000
vt 0.000000 0.000000
vt 0.000000 0.000000
vt 0.000000 0.000000
vt 0.000000 0.000000
vt 0.000000 0.000000
vt 0.000000 0.000000
vt 0.000000 0.000000
vn -0.0000 -1.0000 0.0000
vn -0.2544 0.0000 -0.9671
vn 0.8128 -0.5419 -0.2138
vn 0.2138 -0.5421 0.8127
vn -0.8128 -0.5419 0.2138
vn 0.4235 -0.5421 -0.7258
vn 0.7257 -0.5424 0.4233
vn -0.4235 -0.5421 0.7258
vn -0.7259 -0.5420 -0.4235
vn -0.2138 -0.5421 -0.8127
vn -0.5004 0.1179 0.8577
vn 0.9671 0.0000 -0.2544
vn 0.2544 0.0000 0.9671
vn -0.9671 0.0000 0.2544
vn 0.5039 0.0000 -0.8637
vn 0.8638 0.0000 0.5039
vn -0.5039 -0.0000 0.8637
vn -0.8637 0.0000 -0.5039
vn -0.5039 0.0000 0.8638
vn 0.0063 -0.9997 0.0241
vn -0.9671 0.0000 0.2545
vn -0.0126 -0.9997 0.0215
vn -0.1890 0.6693 -0.7185
vn -0.8577 0.1179 -0.5004
vn 0.5004 0.1179 -0.8577
vn 0.8577 0.1179 0.5004
vn 0.2527 0.1179 0.9603
vn -0.9603 0.1179 0.2527
vn -0.2527 0.1179 -0.9603
vn 0.9603 0.1179 -0.2527
vn 0.0000 1.0000 0.0000
vn 0.7185 0.6693 -0.1891
vn -0.3744 0.6693 0.6417
vn -0.6417 0.6694 -0.3744
vn 0.3744 0.6693 -0.6417
vn 0.6417 0.6693 0.3744
vn 0.1890 0.6693 0.7185
vn -0.7185 0.6693 0.1891
vn 0.0110 0.9999 -0.0029
vn 0.0058 0.9999 -0.0099
vn -0.0029 0.9999 -0.0110
vn -0.0099 0.9999 -0.0057
vn -0.0110 0.9999 0.0029
vn -0.0058 0.9999 0.0099
vn 0.0029 0.9999 0.0110
vn -0.0241 -0.9997 0.0063
vn 0.2544 -0.0001 0.9671
vn 0.9671 0.0000 -0.2545
vn -0.0216 -0.9997 -0.0126
vn 0.5039 0.0000 -0.8638
vn 0.0215 -0.9997 0.0126
vn 0.0241 -0.9997 -0.0063
vn 0.0126 -0.9997 -0.0215
vn -0.0063 -0.9997 -0.0241
vn 0.0099 0.9999 0.0058
vn -0.0520 -0.9789 -0.1976
vn -0.1765 -0.9789 -0.1030
vn -0.1030 -0.9789 0.1765
vn 0.1765 -0.9789 0.1030
vn 0.1029 -0.9789 -0.1765
vn -0.1976 -0.9789 0.0520
vn 0.0520 -0.9789 0.1976
vn 0.1976 -0.9789 -0.0520
vn -0.2199 -0.5030 -0.8358
vn -0.7465 -0.5031 -0.4355
vn -0.4355 -0.5031 0.7465
vn 0.7465 -0.5030 0.4355
vn 0.4355 -0.5031 -0.7465
vn -0.8358 -0.5031 0.2199
vn 0.2199 -0.5030 0.8358
vn 0.8358 -0.5031 -0.2199
vn 0.8637 0.0000 0.5039
vn 0.7465 -0.5031 0.4355
vn 0.7466 -0.5029 0.4355
vn 0.1764 -0.9789 0.1029
vn 0.8637 0.0000 0.5040
vn -0.0215 -0.9997 -0.0126
vn -0.0099 0.9999 -0.0058
vn -0.6418 0.6693 -0.3744
vn -0.6417 0.6693 -0.3744
vn -0.8577 0.1180 -0.5004
vn -0.8638 -0.0004 -0.5038
vn 0.8638 0.0001 0.5039
vn 0.7258 -0.5421 0.4235
vn 0.7257 -0.5424 0.4234
vn -0.8639 0.0000 -0.5036
vn -0.7465 -0.5030 -0.4355
vn -0.7464 -0.5031 -0.4356
vn -0.1764 -0.9789 -0.1029
vn -0.8638 0.0000 -0.5038
vn 0.6418 0.6693 0.3744
vn 0.6417 0.6695 0.3742
vn 0.8578 0.1179 0.5003
vn -0.8639 0.0000 -0.5037
vn -0.7257 -0.5422 -0.4234
vn -0.7260 -0.5419 -0.4234
vn -0.5537 -0.7676 -0.3229
vn 0.5129 -0.0119 -0.8584
vn -0.4949 -0.0121 0.8689
vn -0.5220 -0.0143 0.8528
vn 0.4854 -0.0141 -0.8742
vn 0.6620 -0.6424 0.3861
vn -0.5099 0.0000 0.8602
vn 0.4979 0.0000 -0.8672
vn 0.4677 0.0000 -0.8839
vn -0.5392 0.0000 0.8422
vn -0.4800 -0.0000 0.8773
vn 0.5277 -0.0000 -0.8494
vn -0.6691 0.6324 -0.3902
vn 0.5769 0.7442 0.3366
vn 0.5277 0.0000 -0.8495
usemtl Default_OBJ
s off
f 1/1/1 2/2/1 3/3/1 4/4/1 5/5/1 6/6/1 7/7/1 8/8/1 9/9/1 10/10/1 11/11/1 12/12/1
f 13/13/2 14/14/2 15/15/2 16/16/2
f 17/17/3 18/18/3 19/19/3 20/20/3
f 21/21/4 22/22/4 23/23/4 24/24/4
f 25/25/5 26/26/5 27/27/5 28/28/5
f 18/18/6 29/29/6 30/30/6 19/19/6
f 31/31/7 17/17/7 20/20/7 32/32/7
f 26/26/8 21/21/8 24/24/8 27/27/8
f 33/33/9 25/25/9 28/28/9 34/34/9
f 29/29/10 35/35/10 36/36/10 30/30/10
f 37/37/11 38/38/11 39/39/11 40/40/11
f 41/41/12 42/42/12 43/43/12 44/44/12
f 45/45/13 46/46/13 47/47/13 48/48/13
f 49/49/14 50/50/14 51/51/14 52/52/14
f 42/42/15 13/13/15 16/16/15 43/43/15
f 53/53/16 41/41/16 44/44/16 54/54/16
f 50/50/17 45/45/17 48/48/17 51/51/17
f 55/55/18 49/49/18 52/52/18 56/56/18
f 38/38/19 37/37/19 57/57/19 58/58/19
f 16/16/20 15/15/20 59/59/20 60/60/20
f 37/37/21 61/61/21 62/62/21 57/57/21
f 63/63/18 64/64/18 65/65/18 66/66/18
f 43/43/22 16/16/22 60/60/22 67/67/22
f 64/64/2 68/68/2 69/69/2 65/65/2
f 70/70/23 71/71/23 72/72/23 73/73/23
f 74/74/24 61/61/24 75/75/24 76/76/24
f 77/77/25 68/68/25 70/70/25 78/78/25
f 79/79/26 80/80/26 81/81/26 82/82/26
f 38/38/27 83/83/27 84/84/27 39/39/27
f 61/61/28 37/37/28 40/40/28 75/75/28
f 68/68/29 64/64/29 71/71/29 70/70/29
f 80/80/30 77/77/30 78/78/30 81/81/30
f 85/85/31 86/86/31 73/73/31 72/72/31 87/87/31 88/88/31 89/89/31 90/90/31 91/91/31 92/92/31 93/93/31 94/94/31
f 81/81/32 78/78/32 86/86/32 85/85/32
f 40/40/33 39/39/33 91/91/33 90/90/33
f 76/76/34 75/75/34 89/89/34 88/88/34
f 78/78/35 70/70/35 73/73/35 86/86/35
f 82/82/36 81/81/36 85/85/36 94/94/36
f 39/39/37 84/84/37 92/92/37 91/91/37
f 75/75/38 40/40/38 90/90/38 89/89/38
f 95/95/39 96/96/39 97/97/39 98/98/39
f 98/98/40 97/97/40 99/99/40 69/69/40
f 69/69/41 99/99/41 100/100/41 65/65/41
f 101/101/42 102/102/42 103/103/42 62/62/42
f 62/62/43 103/103/43 104/104/43 57/57/43
f 57/57/44 104/104/44 105/105/44 58/58/44
f 58/58/45 105/105/45 106/106/45 107/107/45
f 44/44/46 43/43/46 67/67/46 108/108/46
f 83/83/47 38/38/47 58/58/47 107/107/47
f 109/109/16 83/83/16 107/107/16 110/110/16
f 77/77/48 80/80/48 95/95/48 98/98/48
f 54/54/49 44/44/49 108/108/49 111/111/49
f 68/68/50 77/77/50 98/98/50 69/69/50
f 60/60/2 59/59/2 106/106/2 105/105/2
f 67/67/15 60/60/15 105/105/15 104/104/15
f 108/108/12 67/67/12 104/104/12 103/103/12
f 111/111/16 108/108/16 103/103/16 102/102/16
f 112/112/18 113/113/18 96/96/18 114/114/18
f 113/113/14 115/115/14 97/97/14 96/96/14
f 115/115/17 116/116/17 99/99/17 97/97/17
f 116/116/13 117/117/13 100/100/13 99/99/13
f 56/56/51 52/52/51 113/113/51 112/112/51
f 52/52/52 51/51/52 115/115/52 113/113/52
f 51/51/53 48/48/53 116/116/53 115/115/53
f 48/48/54 47/47/54 117/117/54 116/116/54
f 118/118/55 114/114/55 96/96/55 95/95/55
f 5/5/56 4/4/56 119/119/56 120/120/56
f 2/2/57 1/1/57 121/121/57 122/122/57
f 12/12/58 11/11/58 123/123/58 124/124/58
f 8/8/59 7/7/59 125/125/59 126/126/59
f 6/6/60 5/5/60 120/120/60 127/127/60
f 1/1/61 12/12/61 124/124/61 121/121/61
f 11/11/62 10/10/62 128/128/62 123/123/62
f 7/7/63 6/6/63 127/127/63 125/125/63
f 120/120/64 119/119/64 35/35/64 29/29/64
f 122/122/65 121/121/65 25/25/65 33/33/65
f 124/124/66 123/123/66 21/21/66 26/26/66
f 126/126/67 125/125/67 17/17/67 31/31/67
f 127/127/68 120/120/68 29/29/68 18/18/68
f 121/121/69 124/124/69 26/26/69 25/25/69
f 123/123/70 128/128/70 22/22/70 21/21/70
f 125/125/71 127/127/71 18/18/71 17/17/71
f 34/34/18 28/28/18 49/49/18 55/55/18
f 27/27/17 24/24/17 45/45/17 50/50/17
f 32/32/16 20/20/16 41/41/16 53/53/16
f 19/19/50 30/30/50 13/13/50 42/42/50
f 28/28/14 27/27/14 50/50/14 49/49/14
f 24/24/13 23/23/13 46/46/13 45/45/13
f 20/20/12 19/19/12 42/42/12 41/41/12
f 30/30/2 36/36/2 14/14/2 13/13/2
f 23/23/72 129/129/72 130/130/72 46/46/72
f 129/129/16 32/32/16 53/53/16 130/130/16
f 128/128/73 131/131/73 132/132/73 22/22/73
f 131/131/74 126/126/74 31/31/74 132/132/74
f 10/10/75 9/9/75 131/131/75 128/128/75
f 9/9/75 8/8/75 126/126/75 131/131/75
f 117/117/76 133/133/76 134/134/76 100/100/76
f 133/133/72 111/111/72 102/102/72 134/134/72
f 47/47/77 135/135/77 133/133/77 117/117/77
f 135/135/77 54/54/77 111/111/77 133/133/77
f 65/65/78 100/100/78 134/134/78 66/66/78
f 71/71/79 136/136/79 87/87/79 72/72/79
f 136/136/80 76/76/80 88/88/80 87/87/80
f 64/64/24 63/63/24 136/136/24 71/71/24
f 63/63/81 74/74/81 76/76/81 136/136/81
f 61/61/18 74/74/18 101/101/18 62/62/18
f 74/74/82 63/63/82 66/66/82 101/101/82
f 46/46/72 130/130/72 135/135/72 47/47/72
f 130/130/83 53/53/83 54/54/83 135/135/83
f 22/22/84 132/132/84 129/129/84 23/23/84
f 132/132/85 31/31/85 32/32/85 129/129/85
f 36/36/18 137/137/18 138/138/18 14/14/18
f 137/137/86 34/34/86 55/55/86 138/138/86
f 119/119/87 139/139/87 140/140/87 35/35/87
f 139/139/88 122/122/88 33/33/88 140/140/88
f 4/4/89 3/3/89 139/139/89 119/119/89
f 3/3/57 2/2/57 122/122/57 139/139/57
f 107/107/55 106/106/55 141/141/55 110/110/55
f 15/15/51 142/142/51 143/143/51 59/59/51
f 142/142/51 56/56/51 112/112/51 143/143/51
f 59/59/18 143/143/18 141/141/18 106/106/18
f 143/143/90 112/112/90 114/114/90 141/141/90
f 80/80/16 79/79/16 118/118/16 95/95/16
f 79/79/16 109/109/16 110/110/16 118/118/16
f 84/84/91 144/144/91 93/93/91 92/92/91
f 144/144/92 82/82/92 94/94/92 93/93/92
f 83/83/26 109/109/26 144/144/26 84/84/26
f 109/109/93 79/79/93 82/82/93 144/144/93
f 14/14/18 138/138/18 142/142/18 15/15/18
f 138/138/94 55/55/94 56/56/94 142/142/94
f 35/35/95 140/140/95 137/137/95 36/36/95
f 140/140/96 33/33/96 34/34/96 137/137/96
f 145/145/97 146/146/97 147/147/97 148/148/97
f 149/149/98 150/150/98 151/151/98 152/152/98
f 153/153/99 154/154/99 155/155/99 156/156/99
f 145/145/100 157/157/100 158/158/100 146/146/100
f 148/148/101 147/147/101 159/159/101 160/160/101
f 153/153/102 152/152/102 151/151/102 154/154/102
f 155/155/103 154/154/103 146/146/103 158/158/103
f 154/154/1 151/151/1 147/147/1 146/146/1
f 151/151/104 150/150/104 159/159/104 147/147/104
f 150/150/31 155/155/31 158/158/31 159/159/31
f 161/161/105 148/148/105 160/160/105 162/162/105
f 162/162/72 160/160/72 157/157/72 163/163/72
f 164/164/106 163/163/106 157/157/106 145/145/106
f 164/164/90 145/145/90 148/148/90 161/161/90
f 165/165/90 156/156/90 149/149/90 166/166/90
f 167/167/107 153/153/107 156/156/107 165/165/107
f 166/166/108 149/149/108 152/152/108 168/168/108
f 167/167/16 168/168/16 152/152/16 153/153/16
f 156/156/109 155/155/109 150/150/109 149/149/109
f 160/160/110 159/159/110 158/158/110 157/157/110
f 66/66/90 164/164/90 161/161/90 101/101/90
f 66/66/106 134/134/106 163/163/106 164/164/106
f 102/102/72 162/162/72 163/163/72 134/134/72
f 101/101/105 161/161/105 162/162/105 102/102/105
f 118/118/16 110/110/16 168/168/16 167/167/16
f 141/141/111 166/166/111 168/168/111 110/110/111
f 118/118/107 167/167/107 165/165/107 114/114/107
f 114/114/90 165/165/90 166/166/90 141/141/90
