# Blender v2.93.6 OBJ File: 'assets.blend'
# www.blender.org
mtllib bin.mtl
o Storage_Box_Cube.012
v 17.851175 0.157850 0.073897
v 17.851175 0.243736 0.073897
v 17.851175 0.157850 -0.073897
v 17.851175 0.243736 -0.073897
v 17.998968 0.157850 0.073897
v 17.998968 0.243736 0.073897
v 17.998968 0.157850 -0.073897
v 17.998968 0.243736 -0.073897
v 17.860325 0.243736 0.064747
v 17.860325 0.243736 -0.064747
v 17.989819 0.243736 -0.064747
v 17.989819 0.243736 0.064747
v 17.860325 0.182509 0.064747
v 17.860325 0.182509 -0.064747
v 17.989819 0.182509 -0.064747
v 17.989819 0.182509 0.064747
v 17.908146 0.208948 0.073897
v 17.908146 0.228620 0.073897
v 17.941998 0.228620 0.073897
v 17.941998 0.208948 0.073897
v 17.908146 0.228620 -0.073897
v 17.908146 0.208948 -0.073897
v 17.941998 0.208948 -0.073897
v 17.941998 0.228620 -0.073897
v 17.941998 0.228620 0.064747
v 17.908146 0.228620 0.064747
v 17.941998 0.208948 0.064747
v 17.908146 0.208948 0.064747
v 17.908146 0.228620 -0.064747
v 17.941998 0.228620 -0.064747
v 17.908146 0.208948 -0.064747
v 17.941998 0.208948 -0.064747
vt 0.375000 0.000000
vt 0.625000 0.000000
vt 0.625000 0.250000
vt 0.375000 0.250000
vt 0.625000 0.500000
vt 0.375000 0.500000
vt 0.375000 0.500000
vt 0.625000 0.500000
vt 0.625000 0.750000
vt 0.375000 0.750000
vt 0.125000 0.750000
vt 0.375000 0.750000
vt 0.125000 0.750000
vt 0.125000 0.500000
vt 0.625000 0.000000
vt 0.625000 0.250000
vt 0.625000 0.000000
vt 0.625000 0.000000
vt 0.625000 0.000000
vt 0.625000 1.000000
vt 0.625000 0.750000
vt 0.625000 1.000000
vt 0.625000 0.500000
vt 0.625000 0.500000
vt 0.875000 0.500000
vt 0.875000 0.750000
vt 0.625000 0.750000
vt 0.625000 0.500000
vt 0.875000 0.500000
vt 0.625000 0.250000
vt 0.625000 1.000000
vt 0.625000 0.750000
vt 0.375000 0.000000
vt 0.625000 0.000000
vt 0.125000 0.500000
vt 0.625000 0.250000
vt 0.375000 0.250000
vt 0.875000 0.750000
vt 0.625000 0.750000
vt 0.625000 0.750000
vt 0.625000 1.000000
vt 0.625000 0.250000
vt 0.625000 0.250000
vt 0.625000 0.500000
vn -1.0000 0.0000 0.0000
vn -0.0000 0.0000 -1.0000
vn 1.0000 0.0000 0.0000
vn 0.0000 0.0000 1.0000
vn 0.0000 -1.0000 0.0000
vn 0.0000 1.0000 0.0000
usemtl None
s off
f 1/1/1 2/2/1 4/3/1 3/4/1
f 8/5/2 7/6/2 23/7/2 24/8/2
f 7/6/3 8/5/3 6/9/3 5/10/3
f 1/11/4 5/10/4 20/12/4 17/13/4
f 3/14/5 7/6/5 5/10/5 1/11/5
f 4/3/6 2/2/6 9/15/6 10/16/6
f 13/17/2 9/15/2 26/18/2 28/19/2
f 2/20/6 6/9/6 12/21/6 9/22/6
f 8/5/6 4/3/6 10/16/6 11/23/6
f 6/9/6 8/5/6 11/23/6 12/21/6
f 15/24/6 14/25/6 13/26/6 16/27/6
f 14/25/4 15/24/4 32/28/4 31/29/4
f 12/21/1 11/23/1 15/24/1 16/27/1
f 10/16/3 9/15/3 13/17/3 14/30/3
f 6/9/4 2/20/4 18/31/4 19/32/4
f 5/10/4 6/9/4 19/32/4 20/12/4
f 2/2/4 1/1/4 17/33/4 18/34/4
f 7/6/2 3/14/2 22/35/2 23/7/2
f 4/3/2 8/5/2 24/8/2 21/36/2
f 3/4/2 4/3/2 21/36/2 22/37/2
f 16/27/2 13/26/2 28/38/2 27/39/2
f 9/22/2 12/21/2 25/40/2 26/41/2
f 12/21/2 16/27/2 27/39/2 25/40/2
f 10/16/4 14/30/4 31/42/4 29/43/4
f 11/23/4 10/16/4 29/43/4 30/44/4
f 15/24/4 11/23/4 30/44/4 32/28/4
f 23/7/6 22/35/6 31/29/6 32/28/6
f 22/35/3 21/36/3 29/43/3 31/29/3
f 24/8/5 30/44/5 29/43/5 21/36/5
f 24/8/1 23/7/1 32/28/1 30/44/1
f 18/34/3 17/33/3 28/19/3 26/18/3
f 17/33/6 20/12/6 27/39/6 28/19/6
f 20/12/1 19/32/1 25/40/1 27/39/1
f 18/34/5 26/18/5 25/40/5 19/32/5
