# Blender v2.93.6 OBJ File: 'assets.blend'
# www.blender.org
mtllib rice.mtl
o Rice_Plane.001
v 15.797123 0.025463 0.005683
v 15.823330 0.070811 0.005683
v 15.797123 0.025463 -0.005683
v 15.823330 0.070811 -0.005683
v 15.793922 0.025647 0.001727
v 15.862397 0.176426 0.001532
v 15.793922 0.025647 -0.001727
v 15.862859 0.176345 -0.000165
v 15.798779 0.026679 0.001727
v 15.864484 0.175382 0.001841
v 15.798779 0.026679 -0.001727
v 15.864945 0.175301 0.000144
v 15.789667 0.066444 0.001727
v 15.789667 0.066444 -0.001727
v 15.794645 0.065951 -0.001727
v 15.794645 0.065951 0.001727
v 15.824898 0.127911 0.000551
v 15.825820 0.127750 -0.002844
v 15.829993 0.125662 -0.002226
v 15.829071 0.125823 0.001169
v 15.834986 0.132067 0.000799
v 15.844464 0.129862 -0.020742
v 15.861282 0.171646 -0.000402
v 15.877335 0.165741 -0.022928
v 15.853307 0.115544 -0.029724
v 15.888247 0.153531 -0.031983
v 15.856399 0.103752 -0.035387
v 15.881795 0.114617 -0.043777
v 15.843672 0.145500 0.001094
v 15.858068 0.128308 0.006797
v 15.863246 0.174203 -0.000988
v 15.880530 0.153165 0.004226
v 15.862410 0.114283 0.000671
v 15.885871 0.141169 -0.002060
v 15.862710 0.104863 -0.004442
v 15.877540 0.111604 -0.012244
v 15.801102 0.026966 -0.003130
v 15.813624 0.089317 -0.009632
v 15.788738 0.024764 -0.005710
v 15.801097 0.091920 -0.012212
v 15.792850 0.029670 0.008974
v 15.813085 0.080957 0.018443
v 15.797939 0.030561 -0.003173
v 15.818236 0.079872 0.006295
v 15.844777 0.077428 0.003694
v 15.844777 0.077428 -0.003694
v 15.852682 0.071833 0.002389
v 15.852682 0.071833 -0.002389
v 15.820930 0.088686 0.030411
v 15.826082 0.087601 0.018264
v 15.822577 0.078893 0.038851
v 15.826082 0.078502 0.027407
v 15.820393 0.065789 0.039103
v 15.822354 0.065571 0.032698
v 15.822369 0.107986 -0.015270
v 15.814634 0.109593 -0.016863
v 15.817674 0.099394 -0.018989
v 15.809939 0.101001 -0.020582
v 15.788454 0.027922 0.002913
v 15.779693 0.110222 -0.000522
v 15.794784 0.024147 -0.008486
v 15.787324 0.106136 -0.010937
v 15.774788 0.136754 -0.005481
v 15.779500 0.134231 -0.011912
v 15.774917 0.157139 -0.008160
v 15.779628 0.154616 -0.014591
v 15.803971 0.031071 -0.008871
v 15.810159 0.156296 -0.001781
v 15.793096 0.025326 -0.001679
v 15.798583 0.150078 0.003938
v 15.812222 0.196666 0.004882
v 15.803263 0.194035 0.008413
v 15.810872 0.227683 0.007200
v 15.803724 0.223844 0.010731
vt 0.000000 0.000000
vt 1.000000 0.000000
vt 1.000000 1.000000
vt 0.000000 1.000000
vt 0.541544 0.000000
vt 0.625000 0.000000
vt 0.625000 0.250000
vt 0.541544 0.250000
vt 0.625000 0.500000
vt 0.541544 0.500000
vt 0.625000 0.750000
vt 0.541544 0.750000
vt 0.625000 1.000000
vt 0.541544 1.000000
vt 0.125000 0.500000
vt 0.375000 0.500000
vt 0.375000 0.750000
vt 0.125000 0.750000
vt 0.875000 0.500000
vt 0.875000 0.750000
vt 0.434105 0.750000
vt 0.434105 1.000000
vt 0.375000 1.000000
vt 0.434105 0.500000
vt 0.375000 0.250000
vt 0.434105 0.250000
vt 0.375000 0.000000
vt 0.434105 0.000000
vt 0.000000 0.000000
vt 1.000000 0.000000
vt 1.000000 1.000000
vt 0.000000 1.000000
vt 1.000000 0.000000
vt 1.000000 1.000000
vt 1.000000 0.000000
vt 1.000000 1.000000
vt 0.000000 0.000000
vt 1.000000 0.000000
vt 1.000000 1.000000
vt 0.000000 1.000000
vt 1.000000 0.000000
vt 1.000000 1.000000
vt 1.000000 0.000000
vt 1.000000 1.000000
vt 0.000000 0.000000
vt 1.000000 0.000000
vt 1.000000 1.000000
vt 0.000000 1.000000
vt 0.000000 0.000000
vt 1.000000 0.000000
vt 1.000000 1.000000
vt 0.000000 1.000000
vt 1.000000 0.000000
vt 1.000000 1.000000
vt 1.000000 0.000000
vt 1.000000 1.000000
vt 1.000000 0.000000
vt 1.000000 1.000000
vt 1.000000 0.000000
vt 1.000000 1.000000
vt 1.000000 0.000000
vt 1.000000 1.000000
vt 1.000000 0.000000
vt 1.000000 1.000000
vt 1.000000 0.000000
vt 1.000000 1.000000
vt 0.000000 0.000000
vt 1.000000 0.000000
vt 1.000000 1.000000
vt 0.000000 1.000000
vt 1.000000 0.000000
vt 1.000000 1.000000
vt 1.000000 0.000000
vt 1.000000 1.000000
vt 0.000000 0.000000
vt 1.000000 0.000000
vt 1.000000 1.000000
vt 0.000000 1.000000
vt 1.000000 0.000000
vt 1.000000 1.000000
vt 1.000000 0.000000
vt 1.000000 1.000000
vn -0.8658 0.5004 0.0000
vn -0.7664 0.5972 -0.2366
vn 0.1261 -0.0415 -0.9912
vn 0.7881 -0.5664 0.2411
vn -0.1131 0.0674 0.9913
vn 0.2078 -0.9782 0.0000
vn 0.4373 0.8961 0.0764
vn -0.0000 -0.0000 1.0000
vn 0.9945 0.1047 0.0000
vn 0.0000 0.0000 -1.0000
vn -0.9946 -0.1037 0.0000
vn -0.0545 0.0456 0.9975
vn 0.8572 -0.4990 0.1272
vn 0.0545 -0.0455 -0.9975
vn -0.8585 0.4968 -0.1273
vn 0.6933 -0.5213 0.4976
vn 0.3875 -0.3033 0.8705
vn 0.4105 -0.3210 0.8535
vn -0.1202 0.1792 0.9764
vn 0.4027 -0.2677 0.8753
vn 0.5528 -0.4006 0.7307
vn -0.1990 0.1357 0.9706
vn -0.8409 0.4061 -0.3577
vn -0.2948 0.9555 0.0000
vn 0.5777 0.8163 0.0000
vn -0.4418 0.8574 -0.2640
vn 0.8836 0.3579 0.3018
vn 0.9436 -0.1516 0.2942
vn -0.1217 0.3388 0.9330
vn 0.2474 0.2677 -0.9312
vn -0.8542 -0.1026 -0.5097
vn -0.8253 -0.2475 -0.5076
vn -0.8176 -0.0699 -0.5716
vn 0.5242 -0.0676 0.8489
vn 0.4598 -0.1523 0.8749
vn 0.4218 -0.0628 0.9045
usemtl None
s off
f 1/1/1 2/2/1 4/3/1 3/4/1
f 17/5/2 6/6/2 8/7/2 18/8/2
f 18/8/3 8/7/3 12/9/3 19/10/3
f 19/10/4 12/9/4 10/11/4 20/12/4
f 20/12/5 10/11/5 6/13/5 17/14/5
f 7/15/6 11/16/6 9/17/6 5/18/6
f 12/9/7 8/19/7 6/20/7 10/11/7
f 9/17/8 16/21/8 13/22/8 5/23/8
f 11/16/9 15/24/9 16/21/9 9/17/9
f 7/25/10 14/26/10 15/24/10 11/16/10
f 5/27/11 13/28/11 14/26/11 7/25/11
f 16/21/12 20/12/12 17/14/12 13/22/12
f 15/24/13 19/10/13 20/12/13 16/21/13
f 14/26/14 18/8/14 19/10/14 15/24/14
f 13/28/15 17/5/15 18/8/15 14/26/15
f 21/29/16 22/30/16 24/31/16 23/32/16
f 24/31/17 22/30/17 25/33/17 26/34/17
f 26/34/18 25/33/18 27/35/18 28/36/18
f 29/37/19 30/38/19 32/39/19 31/40/19
f 32/39/20 30/38/20 33/41/20 34/42/20
f 34/42/21 33/41/21 35/43/21 36/44/21
f 37/45/22 38/46/22 40/47/22 39/48/22
f 41/49/23 42/50/23 44/51/23 43/52/23
f 4/3/24 2/2/24 45/53/24 46/54/24
f 46/54/25 45/53/25 47/55/25 48/56/25
f 44/51/26 42/50/26 49/57/26 50/58/26
f 50/58/27 49/57/27 51/59/27 52/60/27
f 52/60/28 51/59/28 53/61/28 54/62/28
f 40/47/29 38/46/29 55/63/29 56/64/29
f 56/64/30 55/63/30 57/65/30 58/66/30
f 59/67/31 60/68/31 62/69/31 61/70/31
f 62/69/32 60/68/32 63/71/32 64/72/32
f 64/72/33 63/71/33 65/73/33 66/74/33
f 67/75/34 68/76/34 70/77/34 69/78/34
f 70/77/35 68/76/35 71/79/35 72/80/35
f 72/80/36 71/79/36 73/81/36 74/82/36
