# Blender v2.93.6 OBJ File: 'assets.blend'
# www.blender.org
mtllib rock_3.mtl
o Rock_3_Cube.026
v 19.274624 -0.001040 0.048335
v 19.288012 0.081897 0.039474
v 19.261959 -0.001040 -0.042762
v 19.279781 0.110124 -0.023151
v 19.328747 -0.001040 0.047163
v 19.315647 0.083405 0.037294
v 19.333874 -0.001040 -0.044954
v 19.323029 0.110463 -0.021200
v 19.275681 0.039836 0.049057
v 19.266260 0.056025 -0.036658
v 19.339363 0.055856 -0.032775
v 19.329948 0.037475 0.048528
v 19.254673 -0.001040 -0.000047
v 19.276232 0.110460 0.000405
v 19.349537 -0.001040 -0.001313
v 19.329233 0.108155 0.001775
v 19.348425 0.054810 0.002183
v 19.257887 0.056761 0.000629
v 19.264687 0.057008 0.035428
v 19.279949 0.110775 0.022610
v 19.339602 0.056761 0.034830
v 19.337563 -0.001040 0.036717
v 19.264530 -0.001040 0.037148
v 19.324213 0.109233 0.021191
v 19.287657 0.126203 0.002727
v 19.288689 0.126102 -0.013268
v 19.316036 0.125860 -0.013510
v 19.317484 0.127442 0.001012
v 19.315584 0.126623 0.013724
v 19.290285 0.125233 0.014267
v 19.265560 0.029296 -0.036741
v 19.337862 0.028909 -0.035121
v 19.340580 0.026821 0.036364
v 19.267498 0.030421 0.034998
v 19.255409 0.028268 0.000553
v 19.349592 0.029867 -0.001145
v 19.330387 0.019712 0.048913
v 19.272743 0.019348 0.048875
vt 0.500000 0.125000
vt 0.625000 0.125000
vt 0.625000 0.250000
vt 0.500000 0.250000
vt 0.625000 0.500000
vt 0.500000 0.500000
vt 0.500000 0.625000
vt 0.625000 0.625000
vt 0.625000 0.750000
vt 0.500000 0.750000
vt 0.492694 0.782066
vt 0.593048 0.795699
vt 0.593048 0.954301
vt 0.492416 0.969317
vt 0.125000 0.625000
vt 0.375000 0.625000
vt 0.375000 0.750000
vt 0.125000 0.750000
vt 0.625000 0.500000
vt 0.625000 0.625000
vt 0.451581 0.781047
vt 0.451442 0.969644
vt 0.437500 0.625000
vt 0.437500 0.750000
vt 0.437500 0.250000
vt 0.437500 0.500000
vt 0.437500 0.125000
vt 0.437500 0.000000
vt 0.500000 0.000000
vt 0.625000 0.250000
vt 0.125000 0.500000
vt 0.375000 0.500000
vt 0.625000 0.000000
vt 0.625000 1.000000
vt 0.500000 1.000000
vt 0.410468 0.780029
vt 0.410468 0.969971
vt 0.375000 1.000000
vt 0.437500 1.000000
vt 0.875000 0.625000
vt 0.875000 0.750000
vt 0.625000 0.750000
vt 0.875000 0.500000
vt 0.625000 0.000000
vt 0.625000 0.125000
vt 0.625000 1.000000
vt 0.375000 0.000000
vt 0.375000 0.125000
vt 0.375000 0.250000
vn -0.9352 0.2997 -0.1885
vn 0.0485 0.2257 -0.9730
vn 0.9170 0.3295 0.2247
vn 0.0346 0.2308 0.9724
vn 0.0000 -1.0000 0.0000
vn 0.8536 0.4942 -0.1646
vn 0.0045 0.0050 1.0000
vn 0.9686 0.0298 0.2467
vn 0.0379 0.0436 -0.9983
vn -0.9690 0.0565 -0.2405
vn -0.9646 -0.0083 0.2634
vn 0.9571 0.0253 -0.2886
vn 0.0205 0.4876 -0.8728
vn 0.9188 0.3255 -0.2233
vn -0.9346 0.3128 0.1693
vn -0.4919 0.3300 0.8057
vn 0.7813 -0.0926 0.6172
vn 0.0431 0.5154 0.8559
vn -0.8630 -0.0043 0.5051
vn 0.4694 0.3468 0.8120
vn -0.0444 0.9962 0.0748
vn -0.0193 0.9983 -0.0548
vn -0.7857 0.5977 0.1594
vn 0.8428 0.5081 0.1774
vn -0.8194 0.5642 -0.1012
vn 0.0262 0.4434 0.8960
vn -0.8456 0.0343 0.5327
vn 0.7727 0.0485 0.6329
vn 0.9430 -0.0080 -0.3327
vn -0.9546 0.0656 0.2905
vn -0.9730 0.0941 -0.2108
vn -0.0032 0.2547 -0.9670
vn 0.9628 -0.0495 0.2655
vn 0.0103 -0.0555 0.9984
usemtl None
s off
f 18/1/1 14/2/1 4/3/1 10/4/1
f 10/4/2 4/3/2 8/5/2 11/6/2
f 17/7/3 16/8/3 24/9/3 21/10/3
f 12/11/4 6/12/4 2/13/4 9/14/4
f 13/15/5 15/16/5 22/17/5 23/18/5
f 16/8/6 8/5/6 27/19/6 28/20/6
f 37/21/7 12/11/7 9/14/7 38/22/7
f 36/23/8 17/7/8 21/10/8 33/24/8
f 31/25/9 10/4/9 11/6/9 32/26/9
f 35/27/10 18/1/10 10/4/10 31/25/10
f 34/28/11 19/29/11 18/1/11 35/27/11
f 32/26/12 11/6/12 17/7/12 36/23/12
f 8/5/13 4/3/13 26/30/13 27/19/13
f 3/31/5 7/32/5 15/16/5 13/15/5
f 11/6/14 8/5/14 16/8/14 17/7/14
f 19/29/15 20/33/15 14/2/15 18/1/15
f 9/14/16 2/13/16 20/34/16 19/35/16
f 37/21/17 5/36/17 22/17/17 33/24/17
f 5/36/5 1/37/5 23/38/5 22/17/5
f 2/13/18 6/12/18 24/9/18 20/34/18
f 38/22/19 9/14/19 19/35/19 34/39/19
f 6/12/20 12/11/20 21/10/20 24/9/20
f 28/20/21 25/40/21 30/41/21 29/42/21
f 27/19/22 26/43/22 25/40/22 28/20/22
f 14/2/23 20/33/23 30/44/23 25/45/23
f 24/9/24 16/8/24 28/20/24 29/42/24
f 4/3/25 14/2/25 25/45/25 26/30/25
f 20/34/26 24/9/26 29/42/26 30/46/26
f 1/37/27 38/22/27 34/39/27 23/38/27
f 12/11/28 37/21/28 33/24/28 21/10/28
f 7/32/29 32/26/29 36/23/29 15/16/29
f 23/47/30 34/28/30 35/27/30 13/48/30
f 13/48/31 35/27/31 31/25/31 3/49/31
f 3/49/32 31/25/32 32/26/32 7/32/32
f 15/16/33 36/23/33 33/24/33 22/17/33
f 5/36/34 37/21/34 38/22/34 1/37/34
