# Blender v2.93.6 OBJ File: 'assets.blend'
# www.blender.org
mtllib rock_1.mtl
o Rock_1_Cube.027
v 18.532051 0.023744 0.048335
v 18.545439 0.069658 0.039474
v 18.524044 0.022649 -0.035765
v 18.537207 0.085645 -0.023151
v 18.586174 0.022104 0.047163
v 18.573074 0.071165 0.037294
v 18.595959 0.021090 -0.037957
v 18.580456 0.085984 -0.021200
v 18.533108 0.045941 0.049057
v 18.523687 0.054364 -0.036658
v 18.596790 0.054194 -0.032775
v 18.587376 0.043581 0.048528
v 18.512100 0.023265 -0.000047
v 18.533659 0.090612 0.000405
v 18.606964 0.022568 -0.001313
v 18.586660 0.088308 0.001775
v 18.605852 0.053149 0.002183
v 18.515314 0.055099 0.000629
v 18.522114 0.055346 0.035428
v 18.537376 0.086296 0.022610
v 18.597029 0.055099 0.034830
v 18.594990 0.020765 0.036717
v 18.521957 0.024434 0.037148
v 18.581640 0.084754 0.021191
vt 0.500000 0.125000
vt 0.625000 0.125000
vt 0.625000 0.250000
vt 0.500000 0.250000
vt 0.625000 0.500000
vt 0.500000 0.500000
vt 0.500000 0.625000
vt 0.625000 0.625000
vt 0.625000 0.750000
vt 0.500000 0.750000
vt 0.492694 0.782066
vt 0.593048 0.795699
vt 0.593048 0.954301
vt 0.492416 0.969317
vt 0.125000 0.625000
vt 0.375000 0.625000
vt 0.375000 0.750000
vt 0.125000 0.750000
vt 0.875000 0.625000
vt 0.875000 0.750000
vt 0.410468 0.780029
vt 0.410468 0.969971
vt 0.375000 0.250000
vt 0.375000 0.500000
vt 0.375000 0.125000
vt 0.375000 0.000000
vt 0.500000 0.000000
vt 0.875000 0.500000
vt 0.125000 0.500000
vt 0.625000 0.000000
vt 0.625000 1.000000
vt 0.500000 1.000000
vt 0.375000 1.000000
vn -0.8650 0.4548 -0.2121
vn 0.0460 0.3709 -0.9275
vn 0.8348 0.4968 0.2373
vn 0.0345 0.3769 0.9256
vn -0.0261 -0.9996 -0.0091
vn 0.0389 0.9816 0.1868
vn 0.0139 -0.0484 0.9987
vn 0.9591 -0.0207 0.2823
vn 0.0124 0.0659 -0.9977
vn -0.9623 0.0423 -0.2686
vn -0.9730 0.0560 0.2240
vn 0.9620 0.0410 -0.2699
vn 0.0256 0.9874 -0.1562
vn -0.0129 -0.9995 0.0287
vn 0.8424 0.4859 -0.2327
vn -0.8600 0.4726 0.1924
vn -0.4468 0.5230 0.7258
vn 0.8019 -0.0410 0.5961
vn -0.0413 -0.9986 0.0324
vn 0.0342 0.7364 0.6757
vn -0.7557 0.0295 0.6542
vn 0.4358 0.5392 0.7207
usemtl None
s off
f 18/1/1 14/2/1 4/3/1 10/4/1
f 10/4/2 4/3/2 8/5/2 11/6/2
f 17/7/3 16/8/3 24/9/3 21/10/3
f 12/11/4 6/12/4 2/13/4 9/14/4
f 13/15/5 15/16/5 22/17/5 23/18/5
f 16/8/6 14/19/6 20/20/6 24/9/6
f 5/21/7 12/11/7 9/14/7 1/22/7
f 15/16/8 17/7/8 21/10/8 22/17/8
f 3/23/9 10/4/9 11/6/9 7/24/9
f 13/25/10 18/1/10 10/4/10 3/23/10
f 23/26/11 19/27/11 18/1/11 13/25/11
f 7/24/12 11/6/12 17/7/12 15/16/12
f 8/5/13 4/28/13 14/19/13 16/8/13
f 3/29/14 7/24/14 15/16/14 13/15/14
f 11/6/15 8/5/15 16/8/15 17/7/15
f 19/27/16 20/30/16 14/2/16 18/1/16
f 9/14/17 2/13/17 20/31/17 19/32/17
f 12/11/18 5/21/18 22/17/18 21/10/18
f 5/21/19 1/22/19 23/33/19 22/17/19
f 2/13/20 6/12/20 24/9/20 20/31/20
f 1/22/21 9/14/21 19/32/21 23/33/21
f 6/12/22 12/11/22 21/10/22 24/9/22
