# Blender v2.93.6 OBJ File: 'assets.blend'
# www.blender.org
mtllib rock_2.mtl
o Rock_2_Cube.024
v 19.127522 0.021939 0.053041
v 19.146086 0.077480 0.038340
v 19.119139 0.022086 -0.042660
v 19.135509 0.096180 -0.021803
v 19.189531 0.019837 0.051108
v 19.173105 0.077335 0.035876
v 19.197662 0.015061 -0.042586
v 19.178169 0.096756 -0.018757
v 19.136015 0.047922 0.050973
v 19.124838 0.057303 -0.034414
v 19.198767 0.058649 -0.032217
v 19.185486 0.044667 0.049303
v 19.104584 0.020553 -0.000239
v 19.130266 0.103273 -0.001587
v 19.212130 0.019461 0.000761
v 19.188076 0.102223 0.003425
v 19.205191 0.059657 0.001860
v 19.113638 0.059669 -0.000664
v 19.118958 0.062215 0.037056
v 19.137543 0.097497 0.021741
v 19.194561 0.061103 0.035221
v 19.203974 0.016130 0.040566
v 19.116037 0.022722 0.041744
v 19.180244 0.096372 0.020243
v 19.136679 0.117859 0.001103
v 19.140570 0.113440 -0.016641
v 19.175472 0.113566 -0.016757
v 19.181252 0.115734 0.001692
v 19.178709 0.112333 0.014403
v 19.143618 0.113972 0.015252
v 19.120789 0.043067 -0.043248
v 19.199163 0.040225 -0.045789
v 19.203424 0.042105 0.040029
v 19.114849 0.041430 0.039950
v 19.104176 0.041123 0.001752
v 19.216778 0.037118 0.000134
v 19.187113 0.037171 0.056414
v 19.127605 0.035453 0.051970
vt 0.500000 0.125000
vt 0.625000 0.125000
vt 0.625000 0.250000
vt 0.500000 0.250000
vt 0.625000 0.500000
vt 0.500000 0.500000
vt 0.500000 0.625000
vt 0.625000 0.625000
vt 0.625000 0.750000
vt 0.500000 0.750000
vt 0.492694 0.782066
vt 0.593048 0.795699
vt 0.593048 0.954301
vt 0.492416 0.969317
vt 0.125000 0.625000
vt 0.375000 0.625000
vt 0.375000 0.750000
vt 0.125000 0.750000
vt 0.625000 0.500000
vt 0.625000 0.625000
vt 0.451581 0.781047
vt 0.451442 0.969644
vt 0.437500 0.625000
vt 0.437500 0.750000
vt 0.437500 0.250000
vt 0.437500 0.500000
vt 0.437500 0.125000
vt 0.437500 0.000000
vt 0.500000 0.000000
vt 0.625000 0.250000
vt 0.125000 0.500000
vt 0.375000 0.500000
vt 0.625000 0.000000
vt 0.625000 1.000000
vt 0.500000 1.000000
vt 0.410468 0.780029
vt 0.410468 0.969971
vt 0.375000 1.000000
vt 0.437500 1.000000
vt 0.875000 0.625000
vt 0.875000 0.750000
vt 0.625000 0.750000
vt 0.875000 0.500000
vt 0.625000 0.000000
vt 0.625000 0.125000
vt 0.625000 1.000000
vt 0.375000 0.000000
vt 0.375000 0.125000
vt 0.375000 0.250000
vn -0.8820 0.3384 -0.3281
vn 0.0371 0.3248 -0.9450
vn 0.8474 0.4019 0.3470
vn 0.0669 0.3875 0.9194
vn -0.0393 -0.9991 -0.0126
vn 0.8771 0.2789 -0.3910
vn -0.0181 0.3815 0.9242
vn 0.8628 0.4429 0.2436
vn 0.0037 0.5654 -0.8248
vn -0.8579 0.4133 -0.3052
vn -0.9218 0.3426 0.1813
vn 0.8963 0.3593 -0.2599
vn 0.0351 0.2033 -0.9785
vn -0.0438 -0.9985 0.0333
vn 0.8429 0.4491 -0.2964
vn -0.8777 0.4337 0.2040
vn -0.3139 0.4894 0.8136
vn 0.6591 -0.0375 0.7511
vn -0.0548 -0.9906 0.1252
vn 0.0553 0.6367 0.7691
vn -0.5102 0.2870 0.8107
vn 0.3880 0.4812 0.7861
vn 0.0465 0.9660 0.2545
vn 0.0258 0.9833 -0.1803
vn -0.8267 0.3829 0.4123
vn 0.8468 0.3443 0.4054
vn -0.8611 0.3904 -0.3257
vn 0.0407 0.3500 0.9359
vn -0.6867 0.0409 0.7258
vn 0.4516 0.5086 0.7330
vn 0.9292 -0.1632 -0.3316
vn -0.9629 -0.0404 0.2670
vn -0.9417 0.0394 -0.3342
vn -0.0207 -0.0805 -0.9965
vn 0.9617 -0.0833 0.2613
vn -0.0209 -0.1375 0.9903
usemtl None
s off
f 18/1/1 14/2/1 4/3/1 10/4/1
f 10/4/2 4/3/2 8/5/2 11/6/2
f 17/7/3 16/8/3 24/9/3 21/10/3
f 12/11/4 6/12/4 2/13/4 9/14/4
f 13/15/5 15/16/5 22/17/5 23/18/5
f 16/8/6 8/5/6 27/19/6 28/20/6
f 37/21/7 12/11/7 9/14/7 38/22/7
f 36/23/8 17/7/8 21/10/8 33/24/8
f 31/25/9 10/4/9 11/6/9 32/26/9
f 35/27/10 18/1/10 10/4/10 31/25/10
f 34/28/11 19/29/11 18/1/11 35/27/11
f 32/26/12 11/6/12 17/7/12 36/23/12
f 8/5/13 4/3/13 26/30/13 27/19/13
f 3/31/14 7/32/14 15/16/14 13/15/14
f 11/6/15 8/5/15 16/8/15 17/7/15
f 19/29/16 20/33/16 14/2/16 18/1/16
f 9/14/17 2/13/17 20/34/17 19/35/17
f 37/21/18 5/36/18 22/17/18 33/24/18
f 5/36/19 1/37/19 23/38/19 22/17/19
f 2/13/20 6/12/20 24/9/20 20/34/20
f 38/22/21 9/14/21 19/35/21 34/39/21
f 6/12/22 12/11/22 21/10/22 24/9/22
f 28/20/23 25/40/23 30/41/23 29/42/23
f 27/19/24 26/43/24 25/40/24 28/20/24
f 14/2/25 20/33/25 30/44/25 25/45/25
f 24/9/26 16/8/26 28/20/26 29/42/26
f 4/3/27 14/2/27 25/45/27 26/30/27
f 20/34/28 24/9/28 29/42/28 30/46/28
f 1/37/29 38/22/29 34/39/29 23/38/29
f 12/11/30 37/21/30 33/24/30 21/10/30
f 7/32/31 32/26/31 36/23/31 15/16/31
f 23/47/32 34/28/32 35/27/32 13/48/32
f 13/48/33 35/27/33 31/25/33 3/49/33
f 3/49/34 31/25/34 32/26/34 7/32/34
f 15/16/35 36/23/35 33/24/35 22/17/35
f 5/36/36 37/21/36 38/22/36 1/37/36
