# Blender v2.93.6 OBJ File: 'assets.blend'
# www.blender.org
mtllib basket.mtl
o Basket_Wide_randomprops.002
v 17.435419 0.192133 -0.184060
v 17.471828 0.192133 -0.199141
v 17.508238 0.192133 -0.184060
v 17.523317 0.192133 -0.147652
v 17.508238 0.192133 -0.111243
v 17.471828 0.192133 -0.096162
v 17.435419 0.192133 -0.111243
v 17.420340 0.192133 -0.147652
v 17.517170 0.211887 -0.192994
v 17.471828 0.211887 -0.211775
v 17.471828 0.235187 -0.211775
v 17.517170 0.235187 -0.192994
v 17.535952 0.211887 -0.147652
v 17.517170 0.211887 -0.102310
v 17.471828 0.211887 -0.083528
v 17.426487 0.211887 -0.102310
v 17.407705 0.211887 -0.147652
v 17.426487 0.211887 -0.192994
v 17.533493 0.235187 -0.147652
v 17.515432 0.235187 -0.191255
v 17.513191 0.210532 -0.189015
v 17.530325 0.210532 -0.147652
v 17.535952 0.235187 -0.147652
v 17.517170 0.235187 -0.102310
v 17.471828 0.235187 -0.083528
v 17.426487 0.235187 -0.102310
v 17.407705 0.235187 -0.147652
v 17.426487 0.235187 -0.192994
v 17.428225 0.235187 -0.191255
v 17.471828 0.235187 -0.209317
v 17.410164 0.235187 -0.147652
v 17.428225 0.235187 -0.104048
v 17.471828 0.235187 -0.085987
v 17.515432 0.235187 -0.104048
v 17.430466 0.210532 -0.106289
v 17.471828 0.210532 -0.089156
v 17.471828 0.196843 -0.102503
v 17.439903 0.196843 -0.115727
v 17.513191 0.210532 -0.106289
v 17.413332 0.210532 -0.147652
v 17.430466 0.210532 -0.189015
v 17.471828 0.210532 -0.206148
v 17.439903 0.196843 -0.179577
v 17.426680 0.196843 -0.147652
v 17.503754 0.196843 -0.115727
v 17.516977 0.196843 -0.147652
v 17.503754 0.196843 -0.179577
v 17.471828 0.196843 -0.192801
vt 0.000000 0.000000
vt 0.000000 0.000000
vt 0.000000 0.000000
vt 0.000000 0.000000
vt 0.000000 0.000000
vt 0.000000 0.000000
vt 0.000000 0.000000
vt 0.000000 0.000000
vt 0.000000 0.000000
vt 0.000000 0.000000
vt 0.000000 0.000000
vt 0.000000 0.000000
vt 0.000000 0.000000
vt 0.000000 0.000000
vt 0.000000 0.000000
vt 0.000000 0.000000
vt 0.000000 0.000000
vt 0.000000 0.000000
vt 0.000000 0.000000
vt 0.000000 0.000000
vt 0.000000 0.000000
vt 0.000000 0.000000
vt 0.000000 0.000000
vt 0.000000 0.000000
vt 0.000000 0.000000
vt 0.000000 0.000000
vt 0.000000 0.000000
vt 0.000000 0.000000
vt 0.000000 0.000000
vt 0.000000 0.000000
vt 0.000000 0.000000
vt 0.000000 0.000000
vt 0.000000 0.000000
vt 0.000000 0.000000
vt 0.000000 0.000000
vt 0.000000 0.000000
vt 0.000000 0.000000
vt 0.000000 0.000000
vt 0.000000 0.000000
vt 0.000000 0.000000
vt 0.000000 0.000000
vt 0.000000 0.000000
vt 0.000000 0.000000
vt 0.000000 0.000000
vt 0.000000 0.000000
vt 0.000000 0.000000
vt 0.000000 0.000000
vt 0.000000 0.000000
vn 0.0000 -1.0000 0.0000
vn 0.3827 0.0000 -0.9239
vn 0.7954 -0.5087 0.3295
vn -0.3295 -0.5087 0.7954
vn -0.7954 -0.5087 -0.3294
vn 0.7954 -0.5087 -0.3295
vn 0.3295 -0.5087 0.7954
vn -0.7954 -0.5087 0.3294
vn -0.3295 -0.5087 -0.7954
vn 0.3295 -0.5087 -0.7954
vn -0.9174 0.1179 0.3800
vn 0.9239 0.0000 0.3827
vn -0.3827 0.0000 0.9239
vn -0.9239 0.0001 -0.3827
vn 0.9239 0.0000 -0.3827
vn 0.3827 0.0000 0.9239
vn -0.9239 0.0000 0.3827
vn -0.3827 0.0000 -0.9239
vn -0.0000 1.0000 0.0000
vn 0.2843 0.6693 -0.6864
vn -0.3800 0.1179 -0.9174
vn 0.9174 0.1180 -0.3800
vn 0.3800 0.1179 0.9174
vn -0.3800 0.1179 0.9174
vn -0.9174 0.1179 -0.3800
vn 0.3800 0.1179 -0.9174
vn 0.9174 0.1179 0.3800
vn 0.6864 0.6693 0.2843
vn -0.6863 0.6694 0.2843
vn -0.2843 0.6693 -0.6864
vn 0.6864 0.6693 -0.2843
vn 0.2843 0.6693 0.6864
vn -0.2843 0.6693 0.6864
vn -0.6864 0.6694 -0.2843
usemtl Default_OBJ
s off
f 1/1/1 2/2/1 3/3/1 4/4/1 5/5/1 6/6/1 7/7/1 8/8/1
f 9/9/2 10/10/2 11/11/2 12/12/2
f 5/5/3 4/4/3 13/13/3 14/14/3
f 7/7/4 6/6/4 15/15/4 16/16/4
f 1/1/5 8/8/5 17/17/5 18/18/5
f 4/4/6 3/3/6 9/9/6 13/13/6
f 6/6/7 5/5/7 14/14/7 15/15/7
f 8/8/8 7/7/8 16/16/8 17/17/8
f 2/2/9 1/1/9 18/18/9 10/10/9
f 3/3/10 2/2/10 10/10/10 9/9/10
f 19/19/11 20/20/11 21/21/11 22/22/11
f 14/14/12 13/13/12 23/23/12 24/24/12
f 16/16/13 15/15/13 25/25/13 26/26/13
f 18/18/14 17/17/14 27/27/14 28/28/14
f 13/13/15 9/9/15 12/12/15 23/23/15
f 15/15/16 14/14/16 24/24/16 25/25/16
f 17/17/17 16/16/17 26/26/17 27/27/17
f 10/10/18 18/18/18 28/28/18 11/11/18
f 29/29/19 30/30/19 11/11/19 28/28/19
f 31/31/19 29/29/19 28/28/19 27/27/19
f 32/32/19 31/31/19 27/27/19 26/26/19
f 33/33/19 32/32/19 26/26/19 25/25/19
f 34/34/19 33/33/19 25/25/19 24/24/19
f 19/19/19 34/34/19 24/24/19 23/23/19
f 20/20/19 19/19/19 23/23/19 12/12/19
f 30/30/19 20/20/19 12/12/19 11/11/19
f 35/35/20 36/36/20 37/37/20 38/38/20
f 33/33/21 34/34/21 39/39/21 36/36/21
f 31/31/22 32/32/22 35/35/22 40/40/22
f 30/30/23 29/29/23 41/41/23 42/42/23
f 20/20/24 30/30/24 42/42/24 21/21/24
f 34/34/25 19/19/25 22/22/25 39/39/25
f 32/32/26 33/33/26 36/36/26 35/35/26
f 29/29/27 31/31/27 40/40/27 41/41/27
f 43/43/19 44/44/19 38/38/19 37/37/19 45/45/19 46/46/19 47/47/19 48/48/19
f 41/41/28 40/40/28 44/44/28 43/43/28
f 22/22/29 21/21/29 47/47/29 46/46/29
f 36/36/30 39/39/30 45/45/30 37/37/30
f 40/40/31 35/35/31 38/38/31 44/44/31
f 42/42/32 41/41/32 43/43/32 48/48/32
f 21/21/33 42/42/33 48/48/33 47/47/33
f 39/39/34 22/22/34 46/46/34 45/45/34
