# Blender v2.93.6 OBJ File: 'assets.blend'
# www.blender.org
mtllib bench_small.mtl
o Bench_Small_Cube.008
v 15.477316 0.096306 0.977518
v 15.477316 0.151760 0.977518
v 15.477316 0.096306 0.885899
v 15.477316 0.151760 0.885899
v 15.377757 0.151760 0.885899
v 15.377757 0.096306 0.977518
v 15.377757 0.096306 0.885899
v 15.377757 0.151760 0.977518
v 15.442538 0.018308 0.885899
v 15.385508 0.018308 0.885899
v 15.385508 0.018308 0.977518
v 15.442538 0.018308 0.977518
v 15.164137 0.096306 0.977518
v 15.164137 0.151760 0.977518
v 15.164137 0.096306 0.885899
v 15.164137 0.151760 0.885899
v 15.320726 0.096306 0.885899
v 15.320726 0.151760 0.885899
v 15.320726 0.096306 0.977518
v 15.320726 0.151760 0.977518
v 15.263696 0.151760 0.885899
v 15.263696 0.096306 0.977518
v 15.263696 0.096306 0.885899
v 15.263696 0.151760 0.977518
v 15.198915 0.018308 0.885899
v 15.255945 0.018308 0.885899
v 15.255945 0.018308 0.977518
v 15.198915 0.018308 0.977518
vt 0.375000 0.437500
vt 0.625000 0.437500
vt 0.625000 0.500000
vt 0.375000 0.500000
vt 0.625000 0.750000
vt 0.375000 0.750000
vt 0.312500 0.500000
vt 0.312500 0.750000
vt 0.375000 0.812500
vt 0.625000 0.812500
vt 0.625000 0.875000
vt 0.375000 0.875000
vt 0.687500 0.500000
vt 0.750000 0.500000
vt 0.750000 0.750000
vt 0.687500 0.750000
vt 0.312500 0.750000
vt 0.312500 0.500000
vt 0.375000 0.375000
vt 0.625000 0.375000
vt 0.250000 0.500000
vt 0.250000 0.750000
vt 0.375000 0.437500
vt 0.375000 0.375000
vt 0.375000 0.875000
vt 0.375000 0.812500
vt 0.000000 0.000000
vt 0.000000 0.000000
vt 0.000000 0.000000
vt 0.000000 0.000000
vt 0.375000 0.437500
vt 0.375000 0.500000
vt 0.625000 0.500000
vt 0.625000 0.437500
vt 0.375000 0.750000
vt 0.625000 0.750000
vt 0.312500 0.500000
vt 0.312500 0.750000
vt 0.375000 0.812500
vt 0.625000 0.812500
vt 0.687500 0.500000
vt 0.687500 0.750000
vt 0.312500 0.500000
vt 0.312500 0.750000
vt 0.250000 0.500000
vt 0.250000 0.750000
vt 0.375000 0.375000
vt 0.375000 0.437500
vt 0.375000 0.812500
vt 0.375000 0.875000
vt 0.000000 0.000000
vt 0.000000 0.000000
vn 0.0000 0.0000 -1.0000
vn 1.0000 0.0000 0.0000
vn 0.0000 -1.0000 0.0000
vn 0.0000 0.0000 1.0000
vn 0.0000 1.0000 0.0000
vn 0.7693 0.6389 0.0000
vn -0.7693 -0.6389 0.0000
vn -1.0000 0.0000 0.0000
vn -0.7693 0.6389 0.0000
vn 0.7693 -0.6389 0.0000
usemtl None
s off
f 7/1/1 5/2/1 4/3/1 3/4/1
f 3/4/2 4/3/2 2/5/2 1/6/2
f 7/7/3 3/4/3 1/6/3 6/8/3
f 6/9/4 8/10/4 20/11/4 19/12/4
f 5/13/5 18/14/5 20/15/5 8/16/5
f 4/3/5 5/13/5 8/16/5 2/5/5
f 1/6/4 2/5/4 8/10/4 6/9/4
f 7/7/6 6/8/6 12/17/6 9/18/6
f 17/19/1 18/20/1 5/2/1 7/1/1
f 10/21/3 9/18/3 12/17/3 11/22/3
f 17/19/1 7/1/1 9/23/1 10/24/1
f 6/9/4 19/12/4 11/25/4 12/26/4
f 19/27/7 17/28/7 10/29/7 11/30/7
f 23/31/1 15/32/1 16/33/1 21/34/1
f 15/32/8 13/35/8 14/36/8 16/33/8
f 23/37/3 22/38/3 13/35/3 15/32/3
f 22/39/4 19/12/4 20/11/4 24/40/4
f 21/41/5 24/42/5 20/15/5 18/14/5
f 16/33/5 14/36/5 24/42/5 21/41/5
f 13/35/4 22/39/4 24/40/4 14/36/4
f 23/37/9 25/43/9 28/44/9 22/38/9
f 17/19/1 23/31/1 21/34/1 18/20/1
f 26/45/3 27/46/3 28/44/3 25/43/3
f 17/19/1 26/47/1 25/48/1 23/31/1
f 22/39/4 28/49/4 27/50/4 19/12/4
f 19/27/10 27/51/10 26/52/10 17/28/10
