# Blender v2.93.6 OBJ File: 'assets.blend'
# www.blender.org
mtllib bench_curved.mtl
o Bench_Curved_Cube.001
v 16.465250 0.304668 -0.186775
v 16.678705 0.000000 -0.186775
v 16.465250 0.059966 -0.186775
v 16.678705 0.059966 -0.186775
v 16.465250 0.114179 -0.186775
v 16.678705 0.114179 -0.186775
v 16.526655 0.000000 -0.186775
v 16.506742 0.304668 -0.186775
v 16.506742 0.059966 -0.186775
v 16.506742 0.114179 -0.186775
v 16.550535 0.304668 -0.186775
v 16.568186 0.059966 -0.186775
v 16.568186 0.114179 -0.186775
v 16.568186 0.000000 -0.186775
v 16.465250 0.136048 -0.186775
v 16.506742 0.136048 -0.186775
v 16.550535 0.136048 -0.186775
v 16.678705 0.043254 -0.186775
v 16.526655 0.043254 -0.186775
v 16.568186 0.043254 -0.186775
v 16.465250 0.304668 -0.155538
v 16.678705 0.000000 -0.155538
v 16.678705 0.059966 -0.155538
v 16.465250 0.059966 -0.155538
v 16.678705 0.114179 -0.155538
v 16.465250 0.114179 -0.155538
v 16.506742 0.304668 -0.155538
v 16.526655 0.000000 -0.155538
v 16.550535 0.304668 -0.155538
v 16.568186 0.000000 -0.155538
v 16.568186 0.114179 -0.155538
v 16.506742 0.059966 -0.155538
v 16.550535 0.136048 -0.155538
v 16.465250 0.136048 -0.155538
v 16.526655 0.043254 -0.155538
v 16.678705 0.043254 -0.155538
v 16.568186 0.043254 -0.155538
v 16.568186 0.059966 -0.155538
v 16.465250 0.304668 0.186775
v 16.678705 0.000000 0.186775
v 16.465250 0.059966 0.186775
v 16.678705 0.059966 0.186775
v 16.465250 0.114179 0.186775
v 16.678705 0.114179 0.186775
v 16.526655 0.000000 0.186775
v 16.506742 0.304668 0.186775
v 16.506742 0.059966 0.186775
v 16.506742 0.114179 0.186775
v 16.550535 0.304668 0.186775
v 16.568186 0.059966 0.186775
v 16.568186 0.114179 0.186775
v 16.568186 0.000000 0.186775
v 16.465250 0.136048 0.186775
v 16.506742 0.136048 0.186775
v 16.550535 0.136048 0.186775
v 16.678705 0.043254 0.186775
v 16.526655 0.043254 0.186775
v 16.568186 0.043254 0.186775
v 16.465250 0.304668 0.155538
v 16.678705 0.000000 0.155538
v 16.678705 0.059966 0.155538
v 16.465250 0.059966 0.155538
v 16.678705 0.114179 0.155538
v 16.465250 0.114179 0.155538
v 16.506742 0.304668 0.155538
v 16.526655 0.000000 0.155538
v 16.550535 0.304668 0.155538
v 16.568186 0.000000 0.155538
v 16.568186 0.114179 0.155538
v 16.506742 0.059966 0.155538
v 16.550535 0.136048 0.155538
v 16.465250 0.136048 0.155538
v 16.526655 0.043254 0.155538
v 16.678705 0.043254 0.155538
v 16.465250 0.304668 0.000000
v 16.678705 0.059966 0.000000
v 16.465250 0.059966 0.000000
v 16.678705 0.114179 0.000000
v 16.465250 0.114179 0.000000
v 16.506742 0.304668 0.000000
v 16.526655 0.000000 0.000000
v 16.550535 0.304668 0.000000
v 16.568186 0.000000 0.000000
v 16.568186 0.114179 0.000000
v 16.506742 0.059966 0.000000
v 16.550535 0.136048 0.000000
v 16.465250 0.136048 0.000000
v 16.526655 0.043254 0.000000
v 16.568186 0.043254 0.155538
v 16.568186 0.059966 0.155538
v 16.568186 0.059966 0.000000
v 16.568186 0.043254 0.000000
vt 0.488733 0.166667
vt 0.625000 0.166667
vt 0.625000 0.250000
vt 0.488733 0.250000
vt 0.413243 0.349886
vt 0.428019 0.349886
vt 0.428019 0.500000
vt 0.413243 0.500000
vt 0.471060 0.349886
vt 0.471060 0.500000
vt 0.428019 0.166667
vt 0.471060 0.166667
vt 0.471060 0.250000
vt 0.428019 0.250000
vt 0.471060 0.321918
vt 0.428019 0.321918
vt 0.625000 0.321918
vt 0.488733 0.321918
vt 0.413243 0.321918
vt 0.625000 0.349886
vt 0.488733 0.349886
vt 0.494478 0.527551
vt 0.675038 0.483257
vt 0.428019 0.523973
vt 0.471060 0.533295
vt 0.375000 0.321918
vt 0.375000 0.349886
vt 0.375000 0.500000
vt 0.413243 0.583333
vt 0.375000 0.583333
vt 0.196918 0.500000
vt 0.196918 0.583333
vt 0.363613 0.540516
vt 0.363613 0.371547
vt 0.471060 0.125000
vt 0.488733 0.125000
vt 0.471060 0.625000
vt 0.497350 0.616383
vt 0.428019 0.625000
vt 0.428019 0.125000
vt 0.471060 0.583333
vt 0.700057 0.549943
vt 0.224886 0.500000
vt 0.224886 0.583333
vt 0.775114 0.500000
vt 0.803082 0.500000
vt 0.803082 0.583333
vt 0.775114 0.583333
vt 0.428019 0.583333
vt 0.875000 0.500000
vt 0.875000 0.583333
vt 0.625000 0.125000
vt 0.363613 0.625000
vt 0.196918 0.625000
vt 0.224886 0.625000
vt 0.803082 0.625000
vt 0.775114 0.625000
vt 0.471060 0.625000
vt 0.428019 0.625000
vt 0.875000 0.625000
vt 0.214009 0.312500
vt 0.000000 0.000000
vt 0.000000 0.000000
vt 0.000000 0.000000
vt 0.488733 0.166667
vt 0.488733 0.250000
vt 0.625000 0.250000
vt 0.625000 0.166667
vt 0.413243 0.349886
vt 0.413243 0.500000
vt 0.428019 0.500000
vt 0.428019 0.349886
vt 0.471060 0.500000
vt 0.471060 0.349886
vt 0.428019 0.166667
vt 0.428019 0.250000
vt 0.471060 0.250000
vt 0.471060 0.166667
vt 0.428019 0.321918
vt 0.471060 0.321918
vt 0.488733 0.321918
vt 0.625000 0.321918
vt 0.413243 0.321918
vt 0.488733 0.349886
vt 0.625000 0.349886
vt 0.494478 0.527551
vt 0.675038 0.483257
vt 0.428019 0.523973
vt 0.471060 0.533295
vt 0.375000 0.321918
vt 0.375000 0.349886
vt 0.375000 0.500000
vt 0.375000 0.583333
vt 0.413243 0.583333
vt 0.196918 0.500000
vt 0.363613 0.371547
vt 0.363613 0.540516
vt 0.196918 0.583333
vt 0.471060 0.583333
vt 0.224886 0.583333
vt 0.224886 0.500000
vt 0.775114 0.500000
vt 0.775114 0.583333
vt 0.803082 0.583333
vt 0.803082 0.500000
vt 0.428019 0.583333
vt 0.875000 0.583333
vt 0.875000 0.500000
vt 0.000000 0.000000
vt 0.000000 0.000000
vn -1.0000 0.0000 0.0000
vn 0.0000 0.0000 -1.0000
vn 1.0000 0.0000 0.0000
vn 0.0000 -1.0000 0.0000
vn 0.7781 0.6281 0.0000
vn 0.7782 0.6281 0.0000
vn -0.6428 -0.7660 0.0000
vn 0.0000 1.0000 0.0000
vn -0.6429 -0.7660 0.0000
vn 0.0000 0.0000 1.0000
usemtl None
s off
f 34/1/1 21/2/1 1/3/1 15/4/1
f 20/5/2 12/6/2 4/7/2 18/8/2
f 12/6/2 13/9/2 6/10/2 4/7/2
f 24/11/1 26/12/1 5/13/1 3/14/1
f 3/14/2 5/13/2 10/15/2 9/16/2
f 15/4/2 1/3/2 8/17/2 16/18/2
f 9/16/2 10/15/2 13/9/2 12/6/2
f 19/19/2 9/16/2 12/6/2 20/5/2
f 16/18/2 8/17/2 11/20/2 17/21/2
f 33/22/3 17/21/3 11/20/3 29/23/3
f 32/24/4 24/11/4 3/14/4 9/16/4
f 31/25/5 13/9/5 17/21/5 33/22/5
f 10/15/2 16/18/2 17/21/2 13/9/2
f 5/13/2 15/4/2 16/18/2 10/15/2
f 26/12/1 34/1/1 15/4/1 5/13/1
f 7/26/2 19/19/2 20/5/2 14/27/2
f 14/27/2 20/5/2 18/8/2 2/28/2
f 2/28/3 18/8/3 36/29/3 22/30/3
f 7/31/1 28/32/1 35/33/1 19/34/1
f 79/35/1 87/36/1 34/1/1 26/12/1
f 84/37/6 31/25/6 33/22/6 86/38/6
f 85/39/4 77/40/4 24/11/4 32/24/4
f 19/34/7 35/33/7 32/24/7 9/16/7
f 6/10/8 13/9/8 31/25/8 25/41/8
f 86/38/3 33/22/3 29/23/3 82/42/3
f 7/31/4 14/43/4 30/44/4 28/32/4
f 11/45/8 8/46/8 27/47/8 29/48/8
f 77/40/1 79/35/1 26/12/1 24/11/1
f 4/7/3 6/10/3 25/41/3 23/49/3
f 18/8/3 4/7/3 23/49/3 36/29/3
f 8/46/8 1/50/8 21/51/8 27/47/8
f 14/43/4 2/28/4 22/30/4 30/44/4
f 87/36/1 75/52/1 21/2/1 34/1/1
f 35/33/9 88/53/9 85/39/9 32/24/9
f 28/32/1 81/54/1 88/53/1 35/33/1
f 28/32/4 30/44/4 83/55/4 81/54/4
f 29/48/8 27/47/8 80/56/8 82/57/8
f 25/41/8 31/25/8 84/37/8 78/58/8
f 23/49/3 25/41/3 78/58/3 76/59/3
f 27/47/8 21/51/8 75/60/8 80/56/8
f 76/59/4 91/61/4 38/62/4 23/49/4
f 36/29/10 23/49/10 38/62/10 37/63/10
f 36/29/10 37/63/10 30/44/10 22/30/10
f 38/62/3 91/61/3 92/64/3 37/63/3
f 83/55/3 30/44/3 37/63/3 92/64/3
f 72/65/1 53/66/1 39/67/1 59/68/1
f 58/69/10 56/70/10 42/71/10 50/72/10
f 50/72/10 42/71/10 44/73/10 51/74/10
f 62/75/1 41/76/1 43/77/1 64/78/1
f 41/76/10 47/79/10 48/80/10 43/77/10
f 53/66/10 54/81/10 46/82/10 39/67/10
f 47/79/10 50/72/10 51/74/10 48/80/10
f 57/83/10 58/69/10 50/72/10 47/79/10
f 54/81/10 55/84/10 49/85/10 46/82/10
f 71/86/3 67/87/3 49/85/3 55/84/3
f 70/88/4 47/79/4 41/76/4 62/75/4
f 69/89/5 71/86/5 55/84/5 51/74/5
f 48/80/10 51/74/10 55/84/10 54/81/10
f 43/77/10 48/80/10 54/81/10 53/66/10
f 64/78/1 43/77/1 53/66/1 72/65/1
f 45/90/10 52/91/10 58/69/10 57/83/10
f 52/91/10 40/92/10 56/70/10 58/69/10
f 40/92/3 60/93/3 74/94/3 56/70/3
f 45/95/1 57/96/1 73/97/1 66/98/1
f 79/35/1 64/78/1 72/65/1 87/36/1
f 84/37/6 86/38/6 71/86/6 69/89/6
f 85/39/4 70/88/4 62/75/4 77/40/4
f 57/96/7 47/79/7 70/88/7 73/97/7
f 44/73/8 63/99/8 69/89/8 51/74/8
f 86/38/3 82/42/3 67/87/3 71/86/3
f 45/95/4 66/98/4 68/100/4 52/101/4
f 49/102/8 67/103/8 65/104/8 46/105/8
f 77/40/1 62/75/1 64/78/1 79/35/1
f 42/71/3 61/106/3 63/99/3 44/73/3
f 56/70/3 74/94/3 61/106/3 42/71/3
f 46/105/8 65/104/8 59/107/8 39/108/8
f 52/101/4 68/100/4 60/93/4 40/92/4
f 87/36/1 72/65/1 59/68/1 75/52/1
f 73/97/9 70/88/9 85/39/9 88/53/9
f 66/98/1 73/97/1 88/53/1 81/54/1
f 66/98/4 81/54/4 83/55/4 68/100/4
f 67/103/8 82/57/8 80/56/8 65/104/8
f 63/99/8 78/58/8 84/37/8 69/89/8
f 61/106/3 76/59/3 78/58/3 63/99/3
f 65/104/8 80/56/8 75/60/8 59/107/8
f 76/59/4 61/106/4 90/109/4 91/61/4
f 74/94/2 89/110/2 90/109/2 61/106/2
f 74/94/2 60/93/2 68/100/2 89/110/2
f 90/109/3 89/110/3 92/64/3 91/61/3
f 83/55/3 92/64/3 89/110/3 68/100/3
