# Blender v2.93.6 OBJ File: 'assets.blend'
# www.blender.org
mtllib bench_pentagon.mtl
o Bench_Pentagon_Cylinder
v 16.081173 0.097522 1.008791
v 16.081173 0.152001 1.008791
v 16.599304 0.097522 1.385236
v 16.599304 0.152001 1.385236
v 16.401396 0.097522 1.994336
v 16.401396 0.152001 1.994336
v 15.760950 0.097522 1.994336
v 15.760950 0.152001 1.994336
v 15.563042 0.097522 1.385236
v 15.563042 0.152001 1.385236
v 16.081173 0.114758 1.258777
v 16.361553 0.114758 1.462486
v 16.361553 0.144239 1.462486
v 16.081173 0.144239 1.258777
v 16.254457 0.114758 1.792094
v 16.254457 0.144239 1.792094
v 15.907887 0.114758 1.792094
v 15.907887 0.144239 1.792094
v 15.800792 0.114758 1.462486
v 15.800792 0.144239 1.462486
v 16.358700 0.097522 1.994336
v 15.803646 0.097522 1.994336
v 15.803646 0.152001 1.994336
v 16.358700 0.152001 1.994336
v 16.231354 0.114758 1.792094
v 15.930992 0.114758 1.792094
v 15.930992 0.144239 1.792094
v 16.231354 0.144239 1.792094
v 15.747756 0.097522 1.953730
v 15.576235 0.097522 1.425843
v 15.576235 0.152001 1.425843
v 15.747756 0.152001 1.953730
v 15.900748 0.114758 1.770120
v 15.807931 0.114758 1.484460
v 15.807931 0.144239 1.484460
v 15.900748 0.144239 1.770120
v 15.597584 0.097522 1.360140
v 16.046631 0.097522 1.033888
v 16.046631 0.152001 1.033888
v 15.597584 0.152001 1.360140
v 15.819484 0.114758 1.448905
v 16.062481 0.114758 1.272357
v 16.062481 0.144239 1.272357
v 15.819484 0.144239 1.448905
v 16.115715 0.097522 1.033888
v 16.564762 0.097522 1.360140
v 16.564762 0.152001 1.360140
v 16.115715 0.152001 1.033888
v 16.099865 0.114758 1.272357
v 16.342861 0.114758 1.448905
v 16.342861 0.144239 1.448905
v 16.099865 0.144239 1.272357
v 16.586111 0.097522 1.425843
v 16.414589 0.097522 1.953730
v 16.414589 0.152001 1.953730
v 16.586111 0.152001 1.425843
v 16.354414 0.114758 1.484460
v 16.261599 0.114758 1.770120
v 16.261599 0.144239 1.770120
v 16.354414 0.144239 1.484460
v 15.813476 0.098961 1.969054
v 15.779318 0.098961 1.969054
v 15.908615 0.113107 1.816533
v 15.897319 0.113107 1.806641
v 15.768764 0.098961 1.936569
v 15.884419 0.113107 1.798954
v 16.393583 0.098961 1.936569
v 16.383028 0.098961 1.969054
v 16.277925 0.113107 1.798954
v 16.265028 0.113107 1.806641
v 16.348871 0.098961 1.969054
v 16.253731 0.113107 1.816533
v 16.541950 0.098961 1.374816
v 16.569584 0.098961 1.394893
v 16.375330 0.113107 1.442286
v 16.378654 0.113107 1.456929
v 16.559029 0.098961 1.427378
v 16.384573 0.113107 1.470730
v 16.053539 0.098961 1.060118
v 16.081173 0.098961 1.040041
v 16.066219 0.113107 1.239432
v 16.081173 0.113107 1.240795
v 16.108807 0.098961 1.060119
v 16.096127 0.113107 1.239432
v 15.603317 0.098961 1.427378
v 15.592762 0.098961 1.394893
v 15.777773 0.113107 1.470730
v 15.783690 0.113107 1.456929
v 15.620396 0.098961 1.374816
v 15.787015 0.113107 1.442286
v 15.813476 0.010570 1.969054
v 15.779318 0.010570 1.969054
v 15.908615 -0.001536 1.816533
v 15.897319 -0.001536 1.806641
v 15.768764 0.010570 1.936569
v 15.884419 -0.001536 1.798954
v 16.393583 0.010570 1.936569
v 16.383028 0.010570 1.969054
v 16.277925 -0.001536 1.798954
v 16.265028 -0.001536 1.806641
v 16.348871 0.010570 1.969054
v 16.253731 -0.001536 1.816533
v 16.541950 0.010570 1.374816
v 16.569584 0.010570 1.394893
v 16.375330 -0.001536 1.442286
v 16.378654 -0.001536 1.456929
v 16.559029 0.010570 1.427378
v 16.384573 -0.001536 1.470730
v 16.053539 0.010570 1.060118
v 16.081173 0.010570 1.040041
v 16.066219 -0.001536 1.239432
v 16.081173 -0.001536 1.240795
v 16.108807 0.010570 1.060119
v 16.096127 -0.001536 1.239432
v 15.603317 0.010570 1.427378
v 15.592762 0.010570 1.394893
v 15.777773 -0.001536 1.470730
v 15.783690 -0.001536 1.456929
v 15.620396 0.010570 1.374816
v 15.787015 -0.001536 1.442286
vt 0.813333 0.500000
vt 0.813333 1.000000
vt 0.800000 1.000000
vt 0.800000 0.500000
vt 0.613333 0.500000
vt 0.613333 1.000000
vt 0.600000 1.000000
vt 0.600000 0.500000
vt 0.413333 0.500000
vt 0.413333 1.000000
vt 0.400000 1.000000
vt 0.400000 0.500000
vt 0.186667 0.500000
vt 0.186667 0.500000
vt 0.186667 0.500000
vt 0.186667 0.500000
vt 0.213333 0.500000
vt 0.213333 1.000000
vt 0.200000 1.000000
vt 0.200000 0.500000
vt 0.013333 0.500000
vt 0.013333 1.000000
vt 0.000000 1.000000
vt 0.000000 0.500000
vt 0.053333 0.500000
vt 0.000000 0.500000
vt 0.000000 0.500000
vt 0.053333 0.500000
vt 0.746667 0.500000
vt 0.800000 0.500000
vt 0.800000 1.000000
vt 0.746667 1.000000
vt 0.013333 0.500000
vt 0.000000 1.000000
vt 0.013333 1.000000
vt 0.746667 0.500000
vt 0.800000 0.500000
vt 0.386667 0.500000
vt 0.386667 0.500000
vt 0.386667 0.500000
vt 0.386667 0.500000
vt 0.186667 1.000000
vt 0.200000 1.000000
vt 0.186667 1.000000
vt 0.600000 0.500000
vt 0.613333 0.500000
vt 0.613333 0.500000
vt 0.600000 0.500000
vt 0.386667 1.000000
vt 0.400000 1.000000
vt 0.386667 1.000000
vt 0.986667 1.000000
vt 1.000000 1.000000
vt 1.000000 1.000000
vt 0.986667 1.000000
vt 0.586667 1.000000
vt 0.600000 1.000000
vt 0.586667 1.000000
vt 0.786667 1.000000
vt 0.786667 1.000000
vt 0.613333 1.000000
vt 0.413333 0.500000
vt 0.400000 0.500000
vt 0.413333 1.000000
vt 0.213333 0.500000
vt 0.200000 0.500000
vt 0.213333 1.000000
vt 0.586667 0.500000
vt 0.586667 0.500000
vt 0.586667 0.500000
vt 0.586667 0.500000
vt 0.413333 0.500000
vt 0.400000 0.500000
vt 0.200000 0.500000
vt 0.813333 1.000000
vt 0.013333 0.500000
vt 0.013333 0.500000
vt 0.986667 0.500000
vt 0.813333 0.500000
vt 0.986667 0.500000
vt 0.053333 1.000000
vt 1.000000 0.500000
vt 0.786667 0.500000
vt 0.786667 0.500000
vt 0.786667 0.500000
vt 0.786667 0.500000
vt 0.746667 0.500000
vt 0.800000 0.500000
vt 0.213333 0.500000
vt 0.213333 0.500000
vt 0.213333 0.500000
vt 0.213333 0.500000
vt 0.413333 0.500000
vt 0.400000 0.500000
vt 0.813333 0.500000
vt 0.800000 0.500000
vt 0.800000 0.500000
vt 0.813333 0.500000
vt 0.013333 0.500000
vt 0.000000 0.500000
vt 0.600000 0.500000
vt 0.613333 0.500000
vt 0.000000 0.500000
vt 0.000000 0.500000
vt 0.013333 0.500000
vt 0.200000 0.500000
vt 0.200000 0.500000
vt 0.813333 0.500000
vt 0.200000 0.500000
vt 0.386667 0.500000
vt 0.386667 0.500000
vt 0.986667 0.500000
vt 1.000000 0.500000
vt 0.986667 0.500000
vt 0.400000 0.500000
vt 0.613333 0.500000
vt 0.613333 0.500000
vt 0.413333 0.500000
vt 0.400000 0.500000
vt 0.413333 0.500000
vt 0.600000 0.500000
vt 0.600000 0.500000
vt 0.586667 0.500000
vt 0.586667 0.500000
vt 0.813333 0.500000
vt 0.786667 0.500000
vt 0.786667 0.500000
vt 1.000000 0.500000
vt 0.986667 0.500000
vt 0.986667 0.500000
vt 1.000000 0.500000
vt 0.186667 0.500000
vt 0.186667 0.500000
vt 0.053333 0.500000
vn 0.5878 0.0000 -0.8090
vn 0.9511 0.0000 0.3090
vn 0.0000 0.0000 1.0000
vn 0.0615 -0.9970 0.0474
vn -0.9511 0.0000 0.3090
vn -0.5878 0.0000 -0.8090
vn -0.0241 -0.9975 0.0665
vn -0.5878 0.0000 0.8090
vn 0.5878 0.0000 0.8090
vn -0.0558 -0.9975 0.0435
vn 0.0641 -0.9970 -0.0438
vn 0.0225 0.9993 0.0310
vn -0.0586 -0.9975 -0.0396
vn 0.0365 0.9993 -0.0119
vn -0.0225 0.9993 0.0310
vn 0.0000 0.9993 -0.0384
vn -0.0365 0.9993 -0.0119
vn -0.9510 0.0000 -0.3091
vn 0.0000 0.0000 -1.0000
vn 0.9511 0.0000 -0.3090
vn -0.0219 -0.9970 -0.0745
vn 0.0000 -0.9964 -0.0849
vn 0.0196 -0.9975 -0.0680
vn 0.0808 -0.9964 -0.0262
vn 0.0334 -0.9984 0.0460
vn 0.0499 -0.9964 0.0687
vn 0.0261 -0.9970 0.0731
vn -0.0499 -0.9964 0.0687
vn -0.9511 0.0000 -0.3090
vn -0.0776 -0.9970 -0.0022
vn -0.0808 -0.9964 -0.0262
vn -0.9752 0.0000 0.2214
vn -0.2412 0.0000 0.9705
vn 0.0219 -0.9970 -0.0745
vn 0.0000 -0.9984 -0.0568
vn 0.0586 -0.9975 -0.0396
vn 0.0541 -0.9984 -0.0176
vn -0.0908 0.0000 0.9959
vn -0.0541 -0.9984 -0.0176
vn -0.0196 -0.9975 -0.0680
vn -0.0641 -0.9970 -0.0438
vn 0.9191 0.0000 0.3941
vn -0.0334 -0.9984 0.0460
vn -0.0615 -0.9970 0.0474
vn -0.0707 -0.9975 -0.0024
vn -0.7655 0.0000 -0.6434
vn 0.0241 -0.9975 0.0665
vn -0.0261 -0.9970 0.0731
vn 0.5119 0.0000 -0.8590
vn 0.7655 0.0000 -0.6434
vn 0.0776 -0.9970 -0.0022
vn 0.0558 -0.9975 0.0435
vn 0.0707 -0.9975 -0.0024
vn -0.0145 -0.9977 0.0668
vn -0.0591 -0.9977 0.0345
vn 0.0591 -0.9977 0.0345
vn 0.0145 -0.9977 0.0668
vn 0.0511 -0.9977 -0.0455
vn 0.0681 -0.9977 0.0068
vn -0.0275 -0.9977 -0.0626
vn 0.0275 -0.9977 -0.0626
vn -0.0681 -0.9977 0.0068
vn -0.0511 -0.9977 -0.0455
vn -0.9975 0.0000 0.0705
vn 0.9752 0.0000 0.2214
vn -0.5120 0.0000 -0.8590
vn -0.3753 0.0000 -0.9269
vn 0.3753 0.0000 -0.9269
vn 0.0908 0.0000 0.9959
vn 0.6588 0.0000 -0.7523
vn 0.9975 0.0000 0.0705
vn -0.9191 0.0000 0.3941
vn -0.6588 0.0000 -0.7523
vn 0.8485 0.0000 0.5293
vn 0.2412 0.0000 0.9705
vn -0.8485 0.0000 0.5293
usemtl None
s off
f 46/1/1 47/2/1 4/3/1 3/4/1
f 54/5/2 55/6/2 6/7/2 5/8/2
f 22/9/3 23/10/3 8/11/3 7/12/3
f 37/13/4 41/14/4 90/15/4 89/16/4
f 30/17/5 31/18/5 10/19/5 9/20/5
f 38/21/6 39/22/6 2/23/6 1/24/6
f 49/25/7 11/26/7 82/27/7 84/28/7
f 50/29/8 12/30/8 13/31/8 51/32/8
f 42/33/9 11/26/9 14/34/9 43/35/9
f 12/30/10 50/29/10 75/36/10 76/37/10
f 29/38/11 33/39/11 66/40/11 65/41/11
f 40/42/12 10/19/12 20/43/12 44/44/12
f 15/45/13 58/46/13 69/47/13 70/48/13
f 32/49/14 8/11/14 18/50/14 36/51/14
f 48/52/15 2/53/15 14/54/15 52/55/15
f 24/56/16 6/7/16 16/57/16 28/58/16
f 56/59/17 4/3/17 13/31/17 60/60/17
f 58/46/18 15/45/18 16/57/18 59/61/18
f 26/62/19 17/63/19 18/50/19 27/64/19
f 34/65/20 19/66/20 20/43/20 35/67/20
f 15/45/19 25/68/19 28/58/19 16/57/19
f 25/68/19 26/62/19 27/64/19 28/58/19
f 8/11/16 23/10/16 27/64/16 18/50/16
f 23/10/16 24/56/16 28/58/16 27/64/16
f 21/69/21 25/68/21 72/70/21 71/71/21
f 21/69/22 22/9/22 26/62/22 25/68/22
f 5/8/3 6/7/3 24/56/3 21/69/3
f 21/69/3 24/56/3 23/10/3 22/9/3
f 17/63/20 33/39/20 36/51/20 18/50/20
f 33/39/20 34/65/20 35/67/20 36/51/20
f 10/19/14 31/18/14 35/67/14 20/43/14
f 31/18/14 32/49/14 36/51/14 35/67/14
f 7/12/5 8/11/5 32/49/5 29/38/5
f 29/38/5 32/49/5 31/18/5 30/17/5
f 17/63/23 26/62/23 63/72/23 64/73/23
f 29/38/24 30/17/24 34/65/24 33/39/24
f 2/23/12 39/22/12 43/35/12 14/34/12
f 39/22/12 40/42/12 44/44/12 43/35/12
f 19/66/9 41/14/9 44/44/9 20/43/9
f 41/14/9 42/33/9 43/35/9 44/44/9
f 9/20/25 37/13/25 89/16/25 86/74/25
f 37/13/26 38/21/26 42/33/26 41/14/26
f 9/20/6 10/19/6 40/42/6 37/13/6
f 37/13/6 40/42/6 39/22/6 38/21/6
f 4/3/15 47/2/15 51/75/15 13/31/15
f 47/2/15 48/52/15 52/55/15 51/75/15
f 42/33/27 38/21/27 79/76/27 81/77/27
f 45/78/28 46/1/28 50/79/28 49/80/28
f 11/26/8 49/25/8 52/81/8 14/34/8
f 49/25/8 50/29/8 51/32/8 52/81/8
f 1/82/1 2/53/1 48/52/1 45/78/1
f 45/78/1 48/52/1 47/2/1 46/1/1
f 12/30/29 57/83/29 60/60/29 13/31/29
f 57/83/29 58/46/29 59/61/29 60/60/29
f 6/7/17 55/6/17 59/61/17 16/57/17
f 55/6/17 56/59/17 60/60/17 59/61/17
f 53/84/30 57/83/30 78/85/30 77/86/30
f 53/84/31 54/5/31 58/46/31 57/83/31
f 3/4/2 4/3/2 56/59/2 53/84/2
f 53/84/2 56/59/2 55/6/2 54/5/2
f 76/37/32 75/36/32 105/87/32 106/88/32
f 87/89/33 85/90/33 115/91/33 117/92/33
f 26/62/34 22/9/34 61/93/34 63/72/34
f 22/9/35 7/12/35 62/94/35 61/93/35
f 33/39/36 17/63/36 64/73/36 66/40/36
f 7/12/37 29/38/37 65/41/37 62/94/37
f 73/95/1 74/96/1 104/97/1 103/98/1
f 82/27/38 81/77/38 111/99/38 112/100/38
f 54/5/39 5/8/39 68/101/39 67/102/39
f 25/68/40 15/45/40 70/48/40 72/70/40
f 58/46/41 54/5/41 67/102/41 69/47/41
f 5/8/35 21/69/35 71/71/35 68/101/35
f 79/76/6 80/103/6 110/104/6 109/105/6
f 88/106/42 87/89/42 117/92/42 118/107/42
f 46/1/43 3/4/43 74/96/43 73/95/43
f 50/79/44 46/1/44 73/95/44 75/108/44
f 57/83/45 12/30/45 76/37/45 78/85/45
f 3/4/39 53/84/39 77/86/39 74/96/39
f 85/90/5 86/74/5 116/109/5 115/91/5
f 65/41/46 66/40/46 96/110/46 95/111/46
f 38/21/25 1/24/25 80/103/25 79/76/25
f 1/82/43 45/78/43 83/112/43 80/113/43
f 11/26/47 42/33/47 81/77/47 82/27/47
f 45/78/48 49/80/48 84/114/48 83/112/48
f 66/40/49 64/73/49 94/115/49 96/110/49
f 69/47/50 67/102/50 97/116/50 99/117/50
f 34/65/51 30/17/51 85/90/51 87/89/51
f 41/14/52 19/66/52 88/106/52 90/15/52
f 30/17/37 9/20/37 86/74/37 85/90/37
f 19/66/53 34/65/53 87/89/53 88/106/53
f 91/118/54 92/119/54 94/115/54 93/120/54
f 92/119/55 95/111/55 96/110/55 94/115/55
f 97/116/56 98/121/56 100/122/56 99/117/56
f 98/121/57 101/123/57 102/124/57 100/122/57
f 103/98/58 104/97/58 106/88/58 105/125/58
f 104/97/59 107/126/59 108/127/59 106/88/59
f 109/105/60 110/104/60 112/100/60 111/99/60
f 110/128/61 113/129/61 114/130/61 112/131/61
f 115/91/62 116/109/62 118/107/62 117/92/62
f 116/109/63 119/132/63 120/133/63 118/107/63
f 86/74/6 89/16/6 119/132/6 116/109/6
f 67/102/2 68/101/2 98/121/2 97/116/2
f 81/77/64 79/76/64 109/105/64 111/99/64
f 90/15/65 88/106/65 118/107/65 120/133/65
f 70/48/66 69/47/66 99/117/66 100/122/66
f 80/113/1 83/112/1 113/129/1 110/128/1
f 61/93/3 62/94/3 92/119/3 91/118/3
f 75/108/67 73/95/67 103/98/67 105/125/67
f 89/16/68 90/15/68 120/133/68 119/132/68
f 84/28/69 82/27/69 112/100/69 114/134/69
f 64/73/70 63/72/70 93/120/70 94/115/70
f 74/96/2 77/86/2 107/126/2 104/97/2
f 68/101/3 71/71/3 101/123/3 98/121/3
f 83/112/71 84/114/71 114/130/71 113/129/71
f 78/85/72 76/37/72 106/88/72 108/127/72
f 72/70/73 70/48/73 100/122/73 102/124/73
f 63/72/74 61/93/74 91/118/74 93/120/74
f 77/86/75 78/85/75 108/127/75 107/126/75
f 71/71/76 72/70/76 102/124/76 101/123/76
f 62/94/5 65/41/5 95/111/5 92/119/5
