# Blender v2.93.6 OBJ File: 'assets.blend'
# www.blender.org
mtllib cattail.mtl
o Cattail_Cylinder.001
v 15.686268 0.232675 -0.009599
v 15.684132 0.298555 -0.009599
v 15.693069 0.233275 -0.006788
v 15.690907 0.299388 -0.006788
v 15.695886 0.233524 0.000000
v 15.693714 0.299733 0.000000
v 15.693069 0.233275 0.006788
v 15.690907 0.299388 0.006788
v 15.686268 0.232675 0.009600
v 15.684132 0.298555 0.009600
v 15.679467 0.232075 0.006788
v 15.677355 0.297721 0.006788
v 15.676650 0.231826 0.000000
v 15.674548 0.297376 0.000000
v 15.679467 0.232075 -0.006788
v 15.677355 0.297721 -0.006788
v 15.686268 0.232675 -0.001920
v 15.687628 0.232795 -0.001357
v 15.685487 0.298721 -0.001357
v 15.684132 0.298555 -0.001920
v 15.688191 0.232845 0.000000
v 15.686048 0.298790 0.000000
v 15.687628 0.232795 0.001358
v 15.685487 0.298721 0.001358
v 15.686268 0.232675 0.001920
v 15.684132 0.298555 0.001920
v 15.684908 0.232555 0.001358
v 15.682776 0.298388 0.001358
v 15.684344 0.232505 0.000000
v 15.682215 0.298319 0.000000
v 15.684908 0.232555 -0.001357
v 15.682776 0.298388 -0.001357
v 15.688795 0.027986 -0.002545
v 15.690595 0.027986 -0.001799
v 15.691339 0.027986 0.000000
v 15.690595 0.027986 0.001800
v 15.688795 0.027986 0.002545
v 15.686996 0.027986 0.001800
v 15.686251 0.027986 0.000000
v 15.686996 0.027986 -0.001799
v 15.683456 0.321146 -0.000574
v 15.682882 0.321093 -0.000812
v 15.683694 0.321168 0.000000
v 15.683456 0.321146 0.000575
v 15.682882 0.321093 0.000813
v 15.682309 0.321040 0.000575
v 15.682072 0.321018 0.000000
v 15.682309 0.321040 -0.000574
v 15.690081 0.117795 0.000000
v 15.689336 0.117756 -0.001799
v 15.687537 0.117662 -0.002545
v 15.685739 0.117568 -0.001799
v 15.684994 0.117529 0.000000
v 15.685739 0.117568 0.001800
v 15.687537 0.117662 0.002545
v 15.689336 0.117756 0.001800
v 15.711044 0.094953 0.008248
v 15.709069 0.094953 0.011652
v 15.641249 0.122287 -0.002238
v 15.641249 0.122287 0.002238
v 15.659246 0.195415 0.005019
v 15.685703 0.027810 0.005019
v 15.659246 0.195415 -0.005019
v 15.685703 0.027810 -0.005019
v 15.702846 0.167726 -0.000037
v 15.692805 0.027810 -0.005862
v 15.697808 0.167726 0.008646
v 15.687768 0.027810 0.002821
v 15.669385 0.247598 -0.028800
v 15.682188 0.027810 -0.003027
v 15.673991 0.247598 -0.030451
v 15.691638 0.027810 -0.006413
v 15.695599 0.211389 -0.028422
v 15.685188 0.027810 -0.006385
v 15.698953 0.211389 -0.024859
v 15.692069 0.027810 0.000924
vt 1.000000 0.500000
vt 1.000000 1.000000
vt 0.875000 1.000000
vt 0.875000 0.500000
vt 0.750000 1.000000
vt 0.750000 0.500000
vt 0.625000 1.000000
vt 0.625000 0.500000
vt 0.500000 1.000000
vt 0.500000 0.500000
vt 0.375000 1.000000
vt 0.375000 0.500000
vt 0.250000 1.000000
vt 0.250000 0.500000
vt 0.375000 1.000000
vt 0.250000 1.000000
vt 0.125000 1.000000
vt 0.125000 0.500000
vt 0.000000 1.000000
vt 0.000000 0.500000
vt 0.250000 0.500000
vt 0.375000 0.500000
vt 0.125000 1.000000
vt 0.250000 1.000000
vt 0.125000 1.000000
vt 0.875000 0.500000
vt 0.750000 0.500000
vt 0.750000 0.500000
vt 0.875000 0.500000
vt 0.500000 0.500000
vt 0.625000 0.500000
vt 0.625000 1.000000
vt 0.500000 1.000000
vt 0.750000 0.500000
vt 0.875000 0.500000
vt 0.125000 0.500000
vt 0.875000 1.000000
vt 0.750000 1.000000
vt 0.000000 0.500000
vt 1.000000 0.500000
vt 0.000000 1.000000
vt 1.000000 1.000000
vt 0.750000 0.490000
vt 0.919706 0.419706
vt 0.990000 0.250000
vt 0.919706 0.080294
vt 0.750000 0.010000
vt 0.580294 0.080294
vt 0.510000 0.250000
vt 0.580294 0.419706
vt 1.000000 0.500000
vt 1.000000 0.500000
vt 0.125000 0.500000
vt 0.000000 0.500000
vt 0.000000 0.500000
vt 0.125000 0.500000
vt 0.250000 0.500000
vt 0.250000 0.500000
vt 0.375000 0.500000
vt 0.375000 0.500000
vt 0.500000 0.500000
vt 0.500000 0.500000
vt 0.625000 0.500000
vt 0.625000 0.500000
vt 0.419706 0.419706
vt 0.250000 0.490000
vt 0.080294 0.419706
vt 0.010000 0.250000
vt 0.080294 0.080294
vt 0.250000 0.010000
vt 0.419706 0.080294
vt 0.490000 0.250000
vt 0.375000 1.000000
vt 0.500000 1.000000
vt 0.625000 1.000000
vt 0.750000 1.000000
vt 0.875000 1.000000
vt 1.000000 1.000000
vt 0.000000 1.000000
vt 0.000000 0.000000
vt 0.000000 1.000000
vt 0.000000 1.000000
vt 0.000000 0.000000
vt 1.000000 0.000000
vt 1.000000 1.000000
vt 0.000000 0.000000
vt 0.000000 1.000000
vt 0.000000 1.000000
vt 0.000000 0.000000
vt 1.000000 0.000000
vt 1.000000 1.000000
vt 0.000000 0.000000
vt 1.000000 0.000000
vt 1.000000 1.000000
vt 0.000000 1.000000
vt 0.000000 0.000000
vt 1.000000 0.000000
vt 1.000000 1.000000
vt 0.000000 1.000000
vn 0.3815 0.0124 -0.9243
vn 0.9230 0.0302 -0.3837
vn 0.9230 0.0302 0.3837
vn 0.3815 0.0124 0.9243
vn -0.3815 -0.0123 0.9243
vn -0.9230 -0.0296 0.3837
vn -0.1221 0.9925 0.0000
vn -0.9230 -0.0297 -0.3837
vn -0.3815 -0.0123 -0.9243
vn 0.0879 -0.9961 0.0000
vn -0.9240 -0.0058 -0.3825
vn 0.9238 0.0129 -0.3825
vn -0.1220 0.9925 0.0000
vn 0.0000 -1.0000 0.0000
vn 0.3826 0.0054 -0.9239
vn -0.3826 -0.0054 -0.9239
vn -0.9238 -0.0130 -0.3825
vn -0.9238 -0.0130 0.3825
vn -0.3826 -0.0054 0.9239
vn 0.3826 0.0054 0.9239
vn 0.9238 0.0130 0.3825
vn -0.0924 0.9957 -0.0000
vn -0.9240 -0.0058 0.3825
vn -0.3855 0.0239 0.9224
vn 0.3759 0.0663 0.9243
vn 0.9183 0.0967 0.3839
vn 0.9183 0.0966 -0.3839
vn 0.3759 0.0662 -0.9243
vn -0.3855 0.0240 -0.9224
vn 0.9235 0.0152 0.3832
vn 0.3820 0.0092 0.9241
vn -0.3826 0.0008 0.9239
vn -0.9237 -0.0052 0.3830
vn -0.9237 -0.0052 -0.3830
vn -0.3826 0.0008 -0.9239
vn 0.3820 0.0092 -0.9241
vn 0.9235 0.0152 -0.3832
vn -0.9710 0.2390 0.0000
vn 0.9878 0.1559 0.0000
vn 0.8548 0.1528 0.4959
vn -0.8620 0.0827 -0.5001
vn 0.3345 0.1290 0.9335
vn -0.7226 0.1226 0.6803
usemtl None
s off
f 1/1/1 2/2/1 4/3/1 3/4/1
f 3/4/2 4/3/2 6/5/2 5/6/2
f 5/6/3 6/5/3 8/7/3 7/8/3
f 7/8/4 8/7/4 10/9/4 9/10/4
f 9/10/5 10/9/5 12/11/5 11/12/5
f 11/12/6 12/11/6 14/13/6 13/14/6
f 14/13/7 12/11/7 28/15/7 30/16/7
f 13/14/8 14/13/8 16/17/8 15/18/8
f 15/18/9 16/17/9 2/19/9 1/20/9
f 11/12/10 13/14/10 29/21/10 27/22/10
f 32/23/11 30/16/11 47/24/11 48/25/11
f 50/26/12 49/27/12 35/28/12 34/29/12
f 7/8/10 9/10/10 25/30/10 23/31/10
f 10/9/7 8/7/7 24/32/7 26/33/7
f 3/4/10 5/6/10 21/34/10 18/35/10
f 13/14/10 15/18/10 31/36/10 29/21/10
f 6/5/7 4/3/7 19/37/7 22/38/7
f 16/17/7 14/13/7 30/16/7 32/23/7
f 9/10/10 11/12/10 27/22/10 25/30/10
f 12/11/13 10/9/13 26/33/13 28/15/13
f 5/6/10 7/8/10 23/31/10 21/34/10
f 15/18/10 1/20/10 17/39/10 31/36/10
f 1/1/10 3/4/10 18/35/10 17/40/10
f 8/7/7 6/5/7 22/38/7 24/32/7
f 2/19/13 16/17/13 32/23/13 20/41/13
f 4/3/7 2/2/7 20/42/7 19/37/7
f 33/43/14 34/44/14 35/45/14 36/46/14 37/47/14 38/48/14 39/49/14 40/50/14
f 51/51/15 50/26/15 34/29/15 33/52/15
f 52/53/16 51/54/16 33/55/16 40/56/16
f 53/57/17 52/53/17 40/56/17 39/58/17
f 54/59/18 53/57/18 39/58/18 38/60/18
f 55/61/19 54/59/19 38/60/19 37/62/19
f 56/63/20 55/61/20 37/62/20 36/64/20
f 49/27/21 56/63/21 36/64/21 35/28/21
f 41/65/22 42/66/22 48/67/22 47/68/22 46/69/22 45/70/22 44/71/22 43/72/22
f 30/16/23 28/15/23 46/73/23 47/24/23
f 28/15/24 26/33/24 45/74/24 46/73/24
f 26/33/25 24/32/25 44/75/25 45/74/25
f 24/32/26 22/38/26 43/76/26 44/75/26
f 22/38/27 19/37/27 41/77/27 43/76/27
f 19/37/28 20/42/28 42/78/28 41/77/28
f 20/41/29 32/23/29 48/25/29 42/79/29
f 21/34/30 23/31/30 56/63/30 49/27/30
f 23/31/31 25/30/31 55/61/31 56/63/31
f 25/30/32 27/22/32 54/59/32 55/61/32
f 27/22/33 29/21/33 53/57/33 54/59/33
f 29/21/34 31/36/34 52/53/34 53/57/34
f 31/36/35 17/39/35 51/54/35 52/53/35
f 17/40/36 18/35/36 50/26/36 51/51/36
f 18/35/37 21/34/37 49/27/37 50/26/37
f 61/80/38 63/81/38 59/82/38 60/83/38
f 61/80/39 62/84/39 64/85/39 63/81/39
f 65/86/40 67/87/40 58/88/40 57/89/40
f 65/86/41 66/90/41 68/91/41 67/87/41
f 69/92/42 70/93/42 72/94/42 71/95/42
f 73/96/43 74/97/43 76/98/43 75/99/43
