# Blender v2.93.6 OBJ File: 'assets.blend'
# www.blender.org
mtllib cloth_folded.mtl
o Cloth_Folded_Cube.011
v 17.584358 0.189412 -0.157193
v 17.584358 0.210523 -0.157193
v 17.584358 0.189412 -0.197701
v 17.584358 0.210523 -0.197701
v 17.660599 0.189412 -0.157193
v 17.660599 0.210523 -0.157193
v 17.660599 0.189412 -0.197701
v 17.660599 0.210523 -0.197701
v 17.622478 0.186251 -0.197701
v 17.622478 0.216236 -0.197701
v 17.622478 0.186251 -0.157193
v 17.622478 0.216236 -0.157193
vt 0.375000 0.000000
vt 0.625000 0.000000
vt 0.625000 0.250000
vt 0.375000 0.250000
vt 0.375000 0.375000
vt 0.625000 0.375000
vt 0.625000 0.500000
vt 0.375000 0.500000
vt 0.625000 0.750000
vt 0.375000 0.750000
vt 0.375000 0.875000
vt 0.625000 0.875000
vt 0.625000 1.000000
vt 0.375000 1.000000
vt 0.250000 0.500000
vt 0.250000 0.750000
vt 0.750000 0.500000
vt 0.875000 0.500000
vt 0.875000 0.750000
vt 0.750000 0.750000
vt 0.125000 0.500000
vt 0.125000 0.750000
vn -1.0000 0.0000 0.0000
vn 0.0000 0.0000 -1.0000
vn 1.0000 0.0000 0.0000
vn -0.0000 0.0000 1.0000
vn 0.0826 -0.9966 0.0000
vn -0.1482 0.9890 0.0000
vn 0.1482 0.9890 0.0000
vn -0.0826 -0.9966 0.0000
usemtl None
s off
f 1/1/1 2/2/1 4/3/1 3/4/1
f 9/5/2 10/6/2 8/7/2 7/8/2
f 7/8/3 8/7/3 6/9/3 5/10/3
f 11/11/4 12/12/4 2/13/4 1/14/4
f 9/15/5 7/8/5 5/10/5 11/16/5
f 10/17/6 4/18/6 2/19/6 12/20/6
f 8/7/7 10/17/7 12/20/7 6/9/7
f 3/21/8 9/15/8 11/16/8 1/22/8
f 5/10/4 6/9/4 12/12/4 11/11/4
f 3/4/2 4/3/2 10/6/2 9/5/2
