# Blender v2.93.6 OBJ File: 'assets.blend'
# www.blender.org
mtllib fence.mtl
o Fence_Cube.002
v 14.702103 0.017697 0.967005
v 14.702103 0.277400 0.967005
v 14.702103 0.017697 1.016105
v 14.702103 0.277400 1.016105
v 14.702103 0.017697 0.991555
v 14.702103 0.277400 0.991555
v 14.702103 0.277400 1.004841
v 14.702103 0.017697 1.004841
v 14.702103 0.017697 0.978269
v 14.702103 0.277400 0.978269
v 14.750196 0.016484 1.026273
v 14.750196 0.277400 1.026273
v 14.736910 0.016484 1.023631
v 14.736910 0.277400 1.023631
v 14.725646 0.016484 1.016105
v 14.725646 0.277400 1.016105
v 14.718121 0.016484 1.004841
v 14.718121 0.277400 1.004841
v 14.715478 0.016484 0.991555
v 14.715478 0.277400 0.991555
v 14.718121 0.016484 0.978269
v 14.718121 0.277400 0.978269
v 14.725646 0.016484 0.967005
v 14.725646 0.277400 0.967005
v 14.736910 0.016484 0.959479
v 14.736910 0.277400 0.959479
v 14.750196 0.016484 0.956836
v 14.750196 0.277400 0.956836
v 14.763482 0.016484 0.959479
v 14.763482 0.277400 0.959479
v 14.774746 0.016484 0.967005
v 14.774746 0.277400 0.967005
v 14.782271 0.016484 0.978269
v 14.782271 0.277400 0.978269
v 14.784915 0.016484 0.991555
v 14.784915 0.277400 0.991555
v 14.782271 0.016484 1.004841
v 14.782271 0.277400 1.004841
v 14.774746 0.016484 1.016105
v 14.774746 0.277400 1.016105
v 14.763482 0.016484 1.023631
v 14.763482 0.277400 1.023631
v 14.736910 0.307570 1.023631
v 14.750196 0.307570 1.026273
v 14.725646 0.307569 1.016105
v 14.718121 0.307570 1.004841
v 14.715478 0.307570 0.991555
v 14.718121 0.307570 0.978269
v 14.725646 0.307570 0.967005
v 14.736910 0.307570 0.959479
v 14.750196 0.307570 0.956836
v 14.763482 0.307570 0.959479
v 14.774746 0.307570 0.967005
v 14.782271 0.307570 0.978269
v 14.784915 0.307570 0.991555
v 14.782271 0.307570 1.004841
v 14.774746 0.307570 1.016105
v 14.763482 0.307570 1.023631
v 14.216837 0.017697 0.967005
v 14.216837 0.277400 0.967005
v 14.216837 0.017697 1.016105
v 14.216837 0.277400 1.016105
v 14.216837 0.017697 0.991555
v 14.216837 0.277400 0.991555
v 14.216837 0.277400 1.004841
v 14.216837 0.017697 1.004841
v 14.216837 0.017697 0.978269
v 14.216837 0.277400 0.978269
v 14.168743 0.016484 1.026273
v 14.168743 0.277400 1.026273
v 14.182030 0.016484 1.023631
v 14.182030 0.277400 1.023631
v 14.193294 0.016484 1.016105
v 14.193294 0.277400 1.016105
v 14.200819 0.016484 1.004841
v 14.200819 0.277400 1.004841
v 14.203462 0.016484 0.991555
v 14.203462 0.277400 0.991555
v 14.200819 0.016484 0.978269
v 14.200819 0.277400 0.978269
v 14.193294 0.016484 0.967005
v 14.193294 0.277400 0.967005
v 14.182030 0.016484 0.959479
v 14.182030 0.277400 0.959479
v 14.168743 0.016484 0.956836
v 14.168743 0.277400 0.956836
v 14.155457 0.016484 0.959479
v 14.155457 0.277400 0.959479
v 14.144194 0.016484 0.967005
v 14.144194 0.277400 0.967005
v 14.136668 0.016484 0.978269
v 14.136668 0.277400 0.978269
v 14.134025 0.016484 0.991555
v 14.134025 0.277400 0.991555
v 14.136668 0.016484 1.004841
v 14.136668 0.277400 1.004841
v 14.144194 0.016484 1.016105
v 14.144194 0.277400 1.016105
v 14.155457 0.016484 1.023631
v 14.155457 0.277400 1.023631
v 14.459470 0.017697 1.016105
v 14.459470 0.277400 1.016105
v 14.459470 0.017697 0.967005
v 14.459470 0.277400 0.967005
v 14.459470 0.277400 0.991555
v 14.459470 0.017697 0.991555
v 14.459470 0.017697 1.004841
v 14.459470 0.277400 1.004841
v 14.459470 0.277400 0.978269
v 14.459470 0.017697 0.978269
v 14.182030 0.307570 1.023631
v 14.168743 0.307570 1.026273
v 14.193294 0.307569 1.016105
v 14.200819 0.307570 1.004841
v 14.203462 0.307570 0.991555
v 14.200819 0.307570 0.978269
v 14.193294 0.307570 0.967005
v 14.182030 0.307570 0.959479
v 14.168743 0.307570 0.956836
v 14.155457 0.307570 0.959479
v 14.144194 0.307570 0.967005
v 14.136668 0.307570 0.978269
v 14.134025 0.307570 0.991555
v 14.136668 0.307570 1.004841
v 14.144194 0.307570 1.016105
v 14.155457 0.307570 1.023631
vt 0.375000 0.187500
vt 0.625000 0.187500
vt 0.625000 0.250000
vt 0.375000 0.250000
vt 0.375000 0.875000
vt 0.625000 0.875000
vt 0.625000 1.000000
vt 0.375000 1.000000
vt 0.750000 0.687500
vt 0.875000 0.687500
vt 0.875000 0.750000
vt 0.750000 0.750000
vt 0.750000 0.562500
vt 0.875000 0.562500
vt 0.875000 0.625000
vt 0.750000 0.625000
vt 0.375000 0.062500
vt 0.625000 0.062500
vt 0.625000 0.125000
vt 0.375000 0.125000
vt 0.750000 0.500000
vt 0.875000 0.500000
vt 0.375000 0.000000
vt 0.625000 0.000000
vt 1.000000 0.500000
vt 1.000000 1.000000
vt 0.937500 1.000000
vt 0.937500 0.500000
vt 0.875000 1.000000
vt 0.875000 0.500000
vt 0.000000 0.000000
vt 0.000000 0.000000
vt 0.000000 0.000000
vt 0.000000 0.000000
vt 0.000000 0.000000
vt 0.000000 0.000000
vt 0.000000 0.000000
vt 0.000000 0.000000
vt 0.000000 0.000000
vt 0.000000 0.000000
vt 0.625000 0.500000
vt 0.625000 1.000000
vt 0.562500 1.000000
vt 0.562500 0.500000
vt 0.500000 1.000000
vt 0.500000 0.500000
vt 0.437500 1.000000
vt 0.437500 0.500000
vt 0.375000 1.000000
vt 0.375000 0.500000
vt 0.312500 1.000000
vt 0.312500 0.500000
vt 0.250000 1.000000
vt 0.250000 0.500000
vt 0.187500 1.000000
vt 0.187500 0.500000
vt 0.125000 1.000000
vt 0.125000 0.500000
vt 0.375000 1.000000
vt 0.312500 1.000000
vt 0.062500 1.000000
vt 0.062500 0.500000
vt 0.000000 1.000000
vt 0.000000 0.500000
vt 0.750000 0.490000
vt 0.841844 0.471731
vt 0.919706 0.419706
vt 0.971731 0.341844
vt 0.990000 0.250000
vt 0.971731 0.158156
vt 0.919706 0.080294
vt 0.841844 0.028269
vt 0.750000 0.010000
vt 0.658156 0.028269
vt 0.580294 0.080294
vt 0.528269 0.158156
vt 0.510000 0.250000
vt 0.528269 0.341844
vt 0.580294 0.419706
vt 0.658156 0.471731
vt 0.812500 1.000000
vt 0.000000 0.000000
vt 0.000000 0.000000
vt 0.000000 0.000000
vt 0.000000 0.000000
vt 0.000000 0.000000
vt 0.000000 0.000000
vt 0.000000 0.000000
vt 0.000000 0.000000
vt 0.000000 0.000000
vt 0.000000 0.000000
vt 0.125000 0.562500
vt 0.250000 0.562500
vt 0.250000 0.625000
vt 0.125000 0.625000
vt 0.250000 0.687500
vt 0.125000 0.687500
vt 0.250000 0.750000
vt 0.125000 0.750000
vt 0.625000 0.375000
vt 0.375000 0.375000
vt 0.125000 0.500000
vt 0.250000 0.500000
vt 0.341844 0.471731
vt 0.250000 0.490000
vt 0.158156 0.471731
vt 0.080294 0.419706
vt 0.028269 0.341844
vt 0.010000 0.250000
vt 0.028269 0.158156
vt 0.080294 0.080294
vt 0.158156 0.028269
vt 0.250000 0.010000
vt 0.341844 0.028269
vt 0.419706 0.080294
vt 0.471731 0.158156
vt 0.490000 0.250000
vt 0.471731 0.341844
vt 0.419706 0.419706
vt 0.062500 1.000000
vt 0.000000 1.000000
vt 0.000000 0.000000
vt 0.000000 0.000000
vt 0.500000 1.000000
vt 0.437500 1.000000
vt 0.187500 1.000000
vt 0.125000 1.000000
vt 0.937500 1.000000
vt 0.875000 1.000000
vt 0.625000 1.000000
vt 0.562500 1.000000
vt 0.250000 1.000000
vt 0.000000 0.000000
vt 0.812500 1.000000
vt 1.000000 1.000000
vt 0.000000 0.000000
vt 0.375000 0.187500
vt 0.375000 0.250000
vt 0.625000 0.250000
vt 0.625000 0.187500
vt 0.375000 1.000000
vt 0.625000 1.000000
vt 0.875000 0.750000
vt 0.875000 0.687500
vt 0.875000 0.625000
vt 0.875000 0.562500
vt 0.375000 0.062500
vt 0.375000 0.125000
vt 0.625000 0.125000
vt 0.625000 0.062500
vt 0.875000 0.500000
vt 0.375000 0.000000
vt 0.625000 0.000000
vt 1.000000 0.500000
vt 0.937500 0.500000
vt 0.937500 1.000000
vt 1.000000 1.000000
vt 0.875000 0.500000
vt 0.875000 1.000000
vt 0.000000 0.000000
vt 0.000000 0.000000
vt 0.000000 0.000000
vt 0.000000 0.000000
vt 0.000000 0.000000
vt 0.000000 0.000000
vt 0.000000 0.000000
vt 0.000000 0.000000
vt 0.000000 0.000000
vt 0.000000 0.000000
vt 0.625000 0.500000
vt 0.562500 0.500000
vt 0.562500 1.000000
vt 0.625000 1.000000
vt 0.500000 0.500000
vt 0.500000 1.000000
vt 0.437500 0.500000
vt 0.437500 1.000000
vt 0.375000 0.500000
vt 0.375000 1.000000
vt 0.312500 0.500000
vt 0.312500 1.000000
vt 0.250000 0.500000
vt 0.250000 1.000000
vt 0.187500 0.500000
vt 0.187500 1.000000
vt 0.125000 0.500000
vt 0.125000 1.000000
vt 0.312500 1.000000
vt 0.375000 1.000000
vt 0.062500 0.500000
vt 0.062500 1.000000
vt 0.000000 0.500000
vt 0.000000 1.000000
vt 0.750000 0.490000
vt 0.658156 0.471731
vt 0.580294 0.419706
vt 0.528269 0.341844
vt 0.510000 0.250000
vt 0.528269 0.158156
vt 0.580294 0.080294
vt 0.658156 0.028269
vt 0.750000 0.010000
vt 0.841844 0.028269
vt 0.919706 0.080294
vt 0.971731 0.158156
vt 0.990000 0.250000
vt 0.971731 0.341844
vt 0.919706 0.419706
vt 0.841844 0.471731
vt 0.812500 1.000000
vt 0.000000 0.000000
vt 0.000000 0.000000
vt 0.000000 0.000000
vt 0.000000 0.000000
vt 0.000000 0.000000
vt 0.000000 0.000000
vt 0.000000 0.000000
vt 0.000000 0.000000
vt 0.000000 0.000000
vt 0.000000 0.000000
vt 0.125000 0.562500
vt 0.125000 0.625000
vt 0.125000 0.687500
vt 0.125000 0.750000
vt 0.125000 0.500000
vt 0.341844 0.471731
vt 0.419706 0.419706
vt 0.471731 0.341844
vt 0.490000 0.250000
vt 0.471731 0.158156
vt 0.419706 0.080294
vt 0.341844 0.028269
vt 0.250000 0.010000
vt 0.158156 0.028269
vt 0.080294 0.080294
vt 0.028269 0.158156
vt 0.010000 0.250000
vt 0.028269 0.341844
vt 0.080294 0.419706
vt 0.158156 0.471731
vt 0.250000 0.490000
vt 0.000000 1.000000
vt 0.062500 1.000000
vt 0.000000 0.000000
vt 0.000000 0.000000
vt 0.437500 1.000000
vt 0.500000 1.000000
vt 0.125000 1.000000
vt 0.187500 1.000000
vt 0.875000 1.000000
vt 0.937500 1.000000
vt 0.562500 1.000000
vt 0.625000 1.000000
vt 0.250000 1.000000
vt 0.000000 0.000000
vt 0.812500 1.000000
vt 1.000000 1.000000
vt 0.000000 0.000000
vn 1.0000 0.0000 0.0000
vn -0.0000 0.0000 -1.0000
vn 0.0000 1.0000 0.0000
vn -0.1951 0.0000 0.9808
vn -0.5556 0.0000 0.8315
vn -0.5556 0.0000 -0.8315
vn -0.1951 0.0000 -0.9808
vn 0.1951 0.0000 -0.9808
vn 0.5556 0.0000 -0.8315
vn 0.8315 0.0000 -0.5555
vn 0.9808 0.0000 -0.1951
vn 0.9808 0.0000 0.1951
vn 0.8315 0.0000 0.5555
vn 0.5556 0.0000 0.8315
vn 0.1951 0.0000 0.9808
vn 0.0000 -1.0000 -0.0000
vn -0.0612 -0.9979 -0.0204
vn -0.0822 -0.9966 -0.0082
vn -0.0822 -0.9966 0.0082
vn -0.0612 -0.9979 0.0204
vn 0.0000 0.0000 1.0000
vn -0.9808 0.0000 0.1951
vn -0.9808 0.0000 -0.1951
vn -0.8315 0.0000 0.5555
vn -0.8315 0.0000 -0.5555
vn -1.0000 0.0000 0.0000
vn 0.0612 -0.9979 -0.0204
vn 0.0822 -0.9966 -0.0082
vn 0.0822 -0.9966 0.0082
vn 0.0612 -0.9979 0.0204
usemtl None
s off
f 8/1/1 7/2/1 4/3/1 3/4/1
f 103/5/2 104/6/2 2/7/2 1/8/2
f 109/9/3 10/10/3 2/11/3 104/12/3
f 108/13/3 7/14/3 6/15/3 105/16/3
f 9/17/1 10/18/1 6/19/1 5/20/1
f 102/21/3 4/22/3 7/14/3 108/13/3
f 5/20/1 6/19/1 7/2/1 8/1/1
f 1/23/1 2/24/1 10/18/1 9/17/1
f 105/16/3 6/15/3 10/10/3 109/9/3
f 11/25/4 12/26/4 14/27/4 13/28/4
f 13/28/5 14/27/5 16/29/5 15/30/5
f 23/31/2 1/32/2 2/33/2 24/34/2
f 24/34/3 2/33/3 10/35/3 22/36/3
f 22/36/3 10/35/3 6/37/3 20/38/3
f 20/38/3 6/37/3 7/39/3 18/40/3
f 23/41/6 24/42/6 26/43/6 25/44/6
f 25/44/7 26/43/7 28/45/7 27/46/7
f 27/46/8 28/45/8 30/47/8 29/48/8
f 29/48/9 30/47/9 32/49/9 31/50/9
f 31/50/10 32/49/10 34/51/10 33/52/10
f 33/52/11 34/51/11 36/53/11 35/54/11
f 35/54/12 36/53/12 38/55/12 37/56/12
f 37/56/13 38/55/13 40/57/13 39/58/13
f 34/51/10 32/49/10 53/59/10 54/60/10
f 39/58/14 40/57/14 42/61/14 41/62/14
f 41/62/15 42/61/15 12/63/15 11/64/15
f 11/65/16 13/66/16 15/67/16 17/68/16 19/69/16 21/70/16 23/71/16 25/72/16 27/73/16 29/74/16 31/75/16 33/76/16 35/77/16 37/78/16 39/79/16 41/80/16
f 4/3/3 16/29/3 18/81/3 7/2/3
f 21/82/17 9/83/17 1/32/17 23/31/17
f 19/84/18 5/85/18 9/83/18 21/82/18
f 17/86/19 8/87/19 5/85/19 19/84/19
f 15/88/20 3/89/20 8/87/20 17/86/20
f 16/90/21 4/91/21 3/89/21 15/88/21
f 8/92/16 107/93/16 106/94/16 5/95/16
f 5/95/16 106/94/16 110/96/16 9/97/16
f 9/97/16 110/96/16 103/98/16 1/99/16
f 3/4/21 4/3/21 102/100/21 101/101/21
f 3/102/16 101/103/16 107/93/16 8/92/16
f 43/104/3 44/105/3 58/106/3 57/107/3 56/108/3 55/109/3 54/110/3 53/111/3 52/112/3 51/113/3 50/114/3 49/115/3 48/116/3 47/117/3 46/118/3 45/119/3
f 12/63/15 42/61/15 58/120/15 44/121/15
f 20/38/22 18/40/22 46/122/22 47/123/22
f 30/47/8 28/45/8 51/124/8 52/125/8
f 40/57/13 38/55/13 56/126/13 57/127/13
f 16/29/5 14/27/5 43/128/5 45/129/5
f 26/43/6 24/42/6 49/130/6 50/131/6
f 36/53/11 34/51/11 54/60/11 55/132/11
f 22/36/23 20/38/23 47/123/23 48/133/23
f 32/49/9 30/47/9 52/125/9 53/59/9
f 42/61/14 40/57/14 57/127/14 58/120/14
f 18/81/24 16/29/24 45/129/24 46/134/24
f 28/45/7 26/43/7 50/131/7 51/124/7
f 14/27/4 12/26/4 44/135/4 43/128/4
f 38/55/12 36/53/12 55/132/12 56/126/12
f 24/34/25 22/36/25 48/133/25 49/136/25
f 66/137/26 61/138/26 62/139/26 65/140/26
f 103/5/2 59/141/2 60/142/2 104/6/2
f 109/9/3 104/12/3 60/143/3 68/144/3
f 108/13/3 105/16/3 64/145/3 65/146/3
f 67/147/26 63/148/26 64/149/26 68/150/26
f 102/21/3 108/13/3 65/146/3 62/151/3
f 63/148/26 66/137/26 65/140/26 64/149/26
f 59/152/26 67/147/26 68/150/26 60/153/26
f 105/16/3 109/9/3 68/144/3 64/145/3
f 69/154/15 71/155/15 72/156/15 70/157/15
f 71/155/14 73/158/14 74/159/14 72/156/14
f 81/160/2 82/161/2 60/162/2 59/163/2
f 82/161/3 80/164/3 68/165/3 60/162/3
f 80/164/3 78/166/3 64/167/3 68/165/3
f 78/166/3 76/168/3 65/169/3 64/167/3
f 81/170/9 83/171/9 84/172/9 82/173/9
f 83/171/8 85/174/8 86/175/8 84/172/8
f 85/174/7 87/176/7 88/177/7 86/175/7
f 87/176/6 89/178/6 90/179/6 88/177/6
f 89/178/25 91/180/25 92/181/25 90/179/25
f 91/180/23 93/182/23 94/183/23 92/181/23
f 93/182/22 95/184/22 96/185/22 94/183/22
f 95/184/24 97/186/24 98/187/24 96/185/24
f 92/181/25 122/188/25 121/189/25 90/179/25
f 97/186/5 99/190/5 100/191/5 98/187/5
f 99/190/4 69/192/4 70/193/4 100/191/4
f 69/194/16 99/195/16 97/196/16 95/197/16 93/198/16 91/199/16 89/200/16 87/201/16 85/202/16 83/203/16 81/204/16 79/205/16 77/206/16 75/207/16 73/208/16 71/209/16
f 62/139/3 65/140/3 76/210/3 74/159/3
f 79/211/27 81/160/27 59/163/27 67/212/27
f 77/213/28 79/211/28 67/212/28 63/214/28
f 75/215/29 77/213/29 63/214/29 66/216/29
f 73/217/30 75/215/30 66/216/30 61/218/30
f 74/219/21 73/217/21 61/218/21 62/220/21
f 66/221/16 63/222/16 106/94/16 107/93/16
f 63/222/16 67/223/16 110/96/16 106/94/16
f 67/223/16 59/224/16 103/98/16 110/96/16
f 61/138/21 101/101/21 102/100/21 62/139/21
f 61/225/16 66/221/16 107/93/16 101/103/16
f 111/226/3 113/227/3 114/228/3 115/229/3 116/230/3 117/231/3 118/232/3 119/233/3 120/234/3 121/235/3 122/236/3 123/237/3 124/238/3 125/239/3 126/240/3 112/241/3
f 70/193/4 112/242/4 126/243/4 100/191/4
f 78/166/12 115/244/12 114/245/12 76/168/12
f 88/177/7 120/246/7 119/247/7 86/175/7
f 98/187/24 125/248/24 124/249/24 96/185/24
f 74/159/14 113/250/14 111/251/14 72/156/14
f 84/172/9 118/252/9 117/253/9 82/173/9
f 94/183/23 123/254/23 122/188/23 92/181/23
f 80/164/11 116/255/11 115/244/11 78/166/11
f 90/179/6 121/189/6 120/246/6 88/177/6
f 100/191/5 126/243/5 125/248/5 98/187/5
f 76/210/13 114/256/13 113/250/13 74/159/13
f 86/175/8 119/247/8 118/252/8 84/172/8
f 72/156/15 111/251/15 112/257/15 70/157/15
f 96/185/22 124/249/22 123/254/22 94/183/22
f 82/161/10 117/258/10 116/255/10 80/164/10
