# Blender v2.93.6 OBJ File: 'assets.blend'
# www.blender.org
mtllib foliage.mtl
o Foliage_1.001_Plane.036
v 15.147826 0.373542 0.491348
v 15.205138 0.373542 0.491348
v 15.147826 0.393075 0.437467
v 15.205138 0.393075 0.437467
v 15.099007 0.328447 0.473033
v 15.147440 0.328447 0.503673
v 15.119678 0.370751 0.440357
v 15.168112 0.370751 0.470997
v 15.168403 0.330938 0.517829
v 15.224649 0.330938 0.506831
v 15.160056 0.368260 0.475144
v 15.216303 0.368260 0.464146
v 15.097006 0.289137 0.497934
v 15.150131 0.267856 0.494858
v 15.116987 0.341027 0.484047
v 15.170113 0.319746 0.480971
v 15.158923 0.282895 0.520685
v 15.215964 0.279910 0.515994
v 15.158638 0.329615 0.487492
v 15.215679 0.326630 0.482801
v 15.168403 0.372723 0.465609
v 15.224649 0.361898 0.463667
v 15.160056 0.337300 0.421335
v 15.216303 0.326475 0.419393
v 15.050420 0.315162 0.487518
v 15.107679 0.314143 0.489748
v 15.052281 0.367170 0.463511
v 15.109541 0.366151 0.465741
v 15.066462 0.367668 0.458802
v 15.102197 0.367668 0.503609
v 15.108586 0.387201 0.425206
v 15.144320 0.387201 0.470014
v 15.086485 0.236876 0.515428
v 15.139429 0.258278 0.510579
v 15.064560 0.287930 0.501381
v 15.117504 0.309333 0.496532
vt 0.000000 0.000000
vt 1.000000 0.000000
vt 1.000000 1.000000
vt 0.000000 1.000000
vt 0.000000 0.000000
vt 1.000000 0.000000
vt 1.000000 1.000000
vt 0.000000 1.000000
vt 0.000000 0.000000
vt 1.000000 0.000000
vt 1.000000 1.000000
vt 0.000000 1.000000
vt 0.000000 0.000000
vt 1.000000 0.000000
vt 1.000000 1.000000
vt 0.000000 1.000000
vt 0.000000 0.000000
vt 1.000000 0.000000
vt 1.000000 1.000000
vt 0.000000 1.000000
vt 0.000000 0.000000
vt 1.000000 0.000000
vt 1.000000 1.000000
vt 0.000000 1.000000
vt 0.000000 0.000000
vt 1.000000 0.000000
vt 1.000000 1.000000
vt 0.000000 1.000000
vt 0.000000 0.000000
vt 1.000000 0.000000
vt 1.000000 1.000000
vt 0.000000 1.000000
vt 0.000000 0.000000
vt 1.000000 0.000000
vt 1.000000 1.000000
vt 0.000000 1.000000
vn 0.0000 0.9401 0.3408
vn -0.3946 0.6747 0.6238
vn 0.1250 0.7589 0.6391
vn 0.1386 0.2059 0.9687
vn 0.0969 0.5768 0.8111
vn 0.1250 0.7631 -0.6341
vn -0.0279 0.4198 0.9072
vn -0.2665 0.9401 0.2125
vn -0.0162 0.2588 0.9658
usemtl None
s off
f 1/1/1 2/2/1 4/3/1 3/4/1
f 5/5/2 6/6/2 8/7/2 7/8/2
f 9/9/3 10/10/3 12/11/3 11/12/3
f 13/13/4 14/14/4 16/15/4 15/16/4
f 17/17/5 18/18/5 20/19/5 19/20/5
f 21/21/6 22/22/6 24/23/6 23/24/6
f 25/25/7 26/26/7 28/27/7 27/28/7
f 29/29/8 30/30/8 32/31/8 31/32/8
f 33/33/9 34/34/9 36/35/9 35/36/9
