# Blender v2.93.6 OBJ File: 'assets.blend'
# www.blender.org
mtllib fruitstand.mtl
o Stand_Fruit_Cube.007
v 18.319134 0.153224 0.133548
v 18.319134 0.193317 0.133548
v 18.319134 0.153224 -0.150478
v 18.319134 0.193317 -0.150478
v 18.319134 0.153224 0.109049
v 18.319134 0.153224 -0.125980
v 18.319134 0.193317 -0.125980
v 18.319134 0.193317 0.109049
v 18.075148 0.193317 -0.150478
v 18.295353 0.193317 -0.150478
v 18.075148 0.153224 0.133548
v 18.295353 0.153224 0.133548
v 18.295353 0.153224 -0.150478
v 18.075148 0.153224 -0.150478
v 18.295353 0.193317 0.133548
v 18.075148 0.193317 0.133548
v 18.075148 0.193317 -0.125980
v 18.295353 0.193317 -0.125980
v 18.075148 0.193317 0.109049
v 18.295353 0.193317 0.109049
v 18.295353 0.153224 -0.125980
v 18.075148 0.153224 -0.125980
v 18.295353 0.153224 0.109049
v 18.075148 0.153224 0.109049
v 18.319134 -0.020450 -0.125980
v 18.319134 -0.020450 -0.150478
v 18.295353 -0.020450 -0.150478
v 18.295353 -0.020450 -0.125980
v 18.319134 0.001530 -0.150478
v 18.295353 0.001530 -0.150478
v 18.319134 0.001530 -0.125980
v 18.295353 0.001530 -0.125980
v 18.315708 0.153224 0.077475
v 18.315708 0.153224 0.057192
v 18.298779 0.153224 0.057192
v 18.298779 0.153224 0.077475
v 18.315708 -0.009545 0.141740
v 18.315708 -0.020450 0.125980
v 18.298779 -0.020450 0.125980
v 18.298779 -0.009545 0.141740
v 18.075148 0.159478 -0.125980
v 18.295353 0.159478 -0.125980
v 18.075148 0.159478 0.109049
v 18.295353 0.159478 0.109049
v 17.804440 0.153224 0.133548
v 17.804440 0.193317 0.133548
v 17.804440 0.153224 -0.150478
v 17.804440 0.193317 -0.150478
v 18.061787 0.153224 -0.150478
v 18.061787 0.193317 -0.150478
v 18.061787 0.153224 0.133548
v 18.061787 0.193317 0.133548
v 17.804440 0.153224 0.109049
v 17.804440 0.153224 -0.125980
v 17.804440 0.193317 -0.125980
v 17.804440 0.193317 0.109049
v 18.061787 0.193317 -0.125980
v 18.061787 0.193317 0.109049
v 18.061787 0.153224 -0.125980
v 18.061787 0.153224 0.109049
v 18.048426 0.193317 -0.150478
v 17.828220 0.193317 -0.150478
v 18.048426 0.153224 0.133548
v 17.828220 0.153224 0.133548
v 17.828220 0.153224 -0.150478
v 18.048426 0.153224 -0.150478
v 17.828220 0.193317 0.133548
v 18.048426 0.193317 0.133548
v 18.048426 0.193317 -0.125980
v 17.828220 0.193317 -0.125980
v 18.048426 0.193317 0.109049
v 17.828220 0.193317 0.109049
v 17.828220 0.153224 -0.125980
v 18.048426 0.153224 -0.125980
v 17.828220 0.153224 0.109049
v 18.048426 0.153224 0.109049
v 17.804440 -0.020450 -0.125980
v 17.804440 -0.020450 -0.150478
v 17.828220 -0.020450 -0.150478
v 17.828220 -0.020450 -0.125980
v 17.804440 0.001530 -0.150478
v 17.828220 0.001530 -0.150478
v 17.804440 0.001530 -0.125980
v 17.828220 0.001530 -0.125980
v 18.061787 -0.020450 -0.150479
v 18.061787 -0.020450 -0.125980
v 18.061787 0.001530 -0.125980
v 18.061787 0.001530 -0.150479
v 17.807865 0.153224 0.077475
v 17.807865 0.153224 0.057192
v 17.824795 0.153224 0.057192
v 17.824795 0.153224 0.077475
v 17.807865 -0.009545 0.141740
v 17.807865 -0.020450 0.125980
v 17.824795 -0.020450 0.125980
v 17.824795 -0.009545 0.141740
v 18.048426 0.159478 -0.125980
v 17.828220 0.159478 -0.125980
v 18.048426 0.159478 0.109049
v 17.828220 0.159478 0.109049
vt 0.375000 0.458333
vt 0.625000 0.458333
vt 0.625000 0.500000
vt 0.375000 0.500000
vt 0.375000 0.666667
vt 0.625000 0.666667
vt 0.625000 0.750000
vt 0.375000 0.750000
vt 0.333333 0.666667
vt 0.333333 0.750000
vt 0.375000 0.833333
vt 0.625000 0.833333
vt 0.625000 0.875000
vt 0.375000 0.875000
vt 0.708333 0.666667
vt 0.750000 0.666667
vt 0.750000 0.750000
vt 0.708333 0.750000
vt 0.708333 0.500000
vt 0.750000 0.500000
vt 0.750000 0.583333
vt 0.708333 0.583333
vt 0.375000 0.458333
vt 0.375000 0.500000
vt 0.375000 0.500000
vt 0.375000 0.458333
vt 0.333333 0.583333
vt 0.333333 0.583333
vt 0.333333 0.666667
vt 0.625000 0.583333
vt 0.375000 0.583333
vt 0.250000 0.583333
vt 0.291667 0.583333
vt 0.291667 0.666667
vt 0.250000 0.666667
vt 0.250000 0.500000
vt 0.291667 0.500000
vt 0.333333 0.500000
vt 0.666667 0.583333
vt 0.666667 0.666667
vt 0.708333 0.666667
vt 0.708333 0.583333
vt 0.666667 0.500000
vt 0.666667 0.750000
vt 0.625000 0.791667
vt 0.375000 0.791667
vt 0.291667 0.750000
vt 0.250000 0.750000
vt 0.375000 0.375000
vt 0.625000 0.375000
vt 0.625000 0.416667
vt 0.375000 0.416667
vt 0.333333 0.500000
vt 0.375000 0.583333
vt 0.333333 0.583333
vt 0.375000 0.583333
vt 0.333333 0.583333
vt 0.375000 0.458333
vt 0.375000 0.458333
vt 0.333333 0.500000
vt 0.333333 0.583333
vt 0.333333 0.583333
vt 0.333333 0.500000
vt 0.333333 0.500000
vt 0.333333 0.583333
vt 0.333333 0.666667
vt 0.375000 0.666667
vt 0.375000 0.583333
vt 0.375000 0.583333
vt 0.375000 0.666667
vt 0.666667 0.583333
vt 0.666667 0.666667
vt 0.375000 0.458333
vt 0.375000 0.500000
vt 0.625000 0.500000
vt 0.625000 0.458333
vt 0.375000 0.666667
vt 0.375000 0.750000
vt 0.625000 0.750000
vt 0.625000 0.666667
vt 0.333333 0.666667
vt 0.333333 0.750000
vt 0.375000 0.833333
vt 0.625000 0.833333
vt 0.708333 0.666667
vt 0.708333 0.750000
vt 0.708333 0.500000
vt 0.708333 0.583333
vt 0.375000 0.458333
vt 0.375000 0.458333
vt 0.375000 0.500000
vt 0.375000 0.500000
vt 0.333333 0.666667
vt 0.333333 0.583333
vt 0.333333 0.583333
vt 0.375000 0.583333
vt 0.625000 0.583333
vt 0.291667 0.666667
vt 0.291667 0.583333
vt 0.291667 0.500000
vt 0.333333 0.500000
vt 0.666667 0.666667
vt 0.666667 0.583333
vt 0.708333 0.583333
vt 0.708333 0.666667
vt 0.666667 0.500000
vt 0.666667 0.750000
vt 0.375000 0.791667
vt 0.625000 0.791667
vt 0.291667 0.750000
vt 0.375000 0.416667
vt 0.625000 0.416667
vt 0.333333 0.500000
vt 0.333333 0.583333
vt 0.375000 0.583333
vt 0.375000 0.583333
vt 0.333333 0.583333
vt 0.333333 0.500000
vt 0.333333 0.666667
vt 0.333333 0.583333
vt 0.375000 0.583333
vt 0.375000 0.666667
vt 0.375000 0.666667
vt 0.375000 0.583333
vt 0.666667 0.583333
vt 0.666667 0.666667
vn 0.0000 0.0000 -1.0000
vn 1.0000 0.0000 0.0000
vn 0.0000 -1.0000 0.0000
vn 0.0000 0.0000 1.0000
vn 0.0000 1.0000 0.0000
vn -1.0000 0.0000 0.0000
vn 0.0000 -0.8223 0.5690
vn 0.0000 -0.3682 -0.9297
vn 0.0000 0.3672 0.9301
usemtl None
s off
f 13/1/1 10/2/1 4/3/1 3/4/1
f 5/5/2 8/6/2 2/7/2 1/8/2
f 23/9/3 5/5/3 1/8/3 12/10/3
f 11/11/4 16/12/4 52/13/4 51/14/4
f 19/15/5 58/16/5 52/17/5 16/18/5
f 9/19/5 50/20/5 57/21/5 17/22/5
f 17/22/5 57/21/5 58/16/5 19/15/5
f 30/23/1 29/24/1 26/25/1 27/26/1
f 23/9/3 21/27/3 35/28/3 36/29/3
f 3/4/2 4/3/2 7/30/2 6/31/2
f 6/31/2 7/30/2 8/6/2 5/5/2
f 59/32/3 22/33/3 24/34/3 60/35/3
f 22/33/3 21/27/3 23/9/3 24/34/3
f 49/36/3 14/37/3 22/33/3 59/32/3
f 14/37/3 13/38/3 21/27/3 22/33/3
f 7/30/5 18/39/5 20/40/5 8/6/5
f 17/22/2 19/15/2 43/41/2 41/42/2
f 4/3/5 10/43/5 18/39/5 7/30/5
f 10/43/5 9/19/5 17/22/5 18/39/5
f 8/6/5 20/40/5 15/44/5 2/7/5
f 20/40/5 19/15/5 16/18/5 15/44/5
f 1/8/4 2/7/4 15/45/4 12/46/4
f 12/46/4 15/45/4 16/12/4 11/11/4
f 60/35/3 24/34/3 11/47/3 51/48/3
f 24/34/3 23/9/3 12/10/3 11/47/3
f 49/49/1 50/50/1 9/51/1 14/52/1
f 14/52/1 9/51/1 10/2/1 13/1/1
f 27/53/3 26/25/3 25/54/3 28/55/3
f 29/24/2 31/56/2 25/54/2 26/25/2
f 31/56/4 32/57/4 28/55/4 25/54/4
f 30/23/1 27/26/1 85/58/1 88/59/1
f 21/27/6 13/38/6 30/60/6 32/57/6
f 6/31/4 21/27/4 32/57/4 31/56/4
f 3/4/2 6/31/2 31/56/2 29/24/2
f 13/1/1 3/4/1 29/24/1 30/23/1
f 28/55/4 32/57/4 87/61/4 86/62/4
f 27/53/3 28/55/3 86/62/3 85/63/3
f 32/57/5 30/60/5 88/64/5 87/61/5
f 36/29/6 35/28/6 39/65/6 40/66/6
f 6/31/3 5/5/3 33/67/3 34/68/3
f 5/5/3 23/9/3 36/29/3 33/67/3
f 21/27/3 6/31/3 34/68/3 35/28/3
f 39/65/7 38/69/7 37/70/7 40/66/7
f 35/28/8 34/68/8 38/69/8 39/65/8
f 33/67/9 36/29/9 40/66/9 37/70/9
f 34/68/2 33/67/2 37/70/2 38/69/2
f 42/71/5 41/42/5 43/41/5 44/72/5
f 19/15/1 20/40/1 44/72/1 43/41/1
f 18/39/4 17/22/4 41/42/4 42/71/4
f 20/40/6 18/39/6 42/71/6 44/72/6
f 65/73/1 47/74/1 48/75/1 62/76/1
f 53/77/6 45/78/6 46/79/6 56/80/6
f 75/81/3 64/82/3 45/78/3 53/77/3
f 63/83/4 51/14/4 52/13/4 68/84/4
f 71/85/5 68/86/5 52/17/5 58/16/5
f 61/87/5 69/88/5 57/21/5 50/20/5
f 69/88/5 71/85/5 58/16/5 57/21/5
f 82/89/1 79/90/1 78/91/1 81/92/1
f 75/81/3 92/93/3 91/94/3 73/95/3
f 47/74/6 54/96/6 55/97/6 48/75/6
f 54/96/6 53/77/6 56/80/6 55/97/6
f 59/32/3 60/35/3 76/98/3 74/99/3
f 74/99/3 76/98/3 75/81/3 73/95/3
f 49/36/3 59/32/3 74/99/3 66/100/3
f 66/100/3 74/99/3 73/95/3 65/101/3
f 55/97/5 56/80/5 72/102/5 70/103/5
f 69/88/6 97/104/6 99/105/6 71/85/6
f 48/75/5 55/97/5 70/103/5 62/106/5
f 62/106/5 70/103/5 69/88/5 61/87/5
f 56/80/5 46/79/5 67/107/5 72/102/5
f 72/102/5 67/107/5 68/86/5 71/85/5
f 45/78/4 64/108/4 67/109/4 46/79/4
f 64/108/4 63/83/4 68/84/4 67/109/4
f 60/35/3 51/48/3 63/110/3 76/98/3
f 76/98/3 63/110/3 64/82/3 75/81/3
f 49/49/1 66/111/1 61/112/1 50/50/1
f 66/111/1 65/73/1 62/76/1 61/112/1
f 79/113/3 80/114/3 77/115/3 78/91/3
f 81/92/6 78/91/6 77/115/6 83/116/6
f 83/116/4 77/115/4 80/114/4 84/117/4
f 82/89/1 88/59/1 85/58/1 79/90/1
f 73/95/2 84/117/2 82/118/2 65/101/2
f 54/96/4 83/116/4 84/117/4 73/95/4
f 47/74/6 81/92/6 83/116/6 54/96/6
f 65/73/1 82/89/1 81/92/1 47/74/1
f 80/114/4 86/62/4 87/61/4 84/117/4
f 79/113/3 85/63/3 86/62/3 80/114/3
f 84/117/5 87/61/5 88/64/5 82/118/5
f 92/93/2 96/119/2 95/120/2 91/94/2
f 54/96/3 90/121/3 89/122/3 53/77/3
f 53/77/3 89/122/3 92/93/3 75/81/3
f 73/95/3 91/94/3 90/121/3 54/96/3
f 95/120/7 96/119/7 93/123/7 94/124/7
f 91/94/8 95/120/8 94/124/8 90/121/8
f 89/122/9 93/123/9 96/119/9 92/93/9
f 90/121/6 94/124/6 93/123/6 89/122/6
f 98/125/5 100/126/5 99/105/5 97/104/5
f 71/85/1 99/105/1 100/126/1 72/102/1
f 70/103/4 98/125/4 97/104/4 69/88/4
f 72/102/2 100/126/2 98/125/2 70/103/2
