# Blender v2.93.6 OBJ File: 'assets.blend'
# www.blender.org
mtllib potato.mtl
o Potato_Cube.018
v 18.030083 0.204243 0.009617
v 18.030083 0.223478 0.009617
v 18.030083 0.204243 -0.009617
v 18.030083 0.223478 -0.009617
v 18.071621 0.204243 0.009617
v 18.071621 0.223478 0.009617
v 18.071621 0.204243 -0.009617
v 18.071621 0.223478 -0.009617
v 18.030083 0.202076 0.000000
v 18.030083 0.225645 0.000000
v 18.071621 0.202076 0.000000
v 18.071621 0.225645 0.000000
v 18.030083 0.213860 0.011784
v 18.030083 0.213860 -0.011784
v 18.071621 0.213860 -0.011784
v 18.071621 0.213860 0.011784
v 18.071621 0.213860 0.000000
v 18.030083 0.213860 0.000000
v 18.050852 0.200857 -0.013003
v 18.050852 0.226864 -0.013003
v 18.050852 0.200857 0.013003
v 18.050852 0.226864 0.013003
v 18.050852 0.229794 0.000000
v 18.050852 0.197927 0.000000
v 18.050852 0.213860 0.015933
v 18.050852 0.213860 -0.015933
v 18.048080 0.225911 0.000000
v 18.053648 0.225911 0.000000
v 18.048080 0.239649 0.000000
v 18.053165 0.239649 0.001164
v 18.047754 0.257313 -0.000241
v 18.053648 0.257313 0.000000
v 18.049406 0.271742 0.001207
v 18.054659 0.270689 -0.000313
v 18.047754 0.254568 -0.000241
v 18.053648 0.254568 0.000000
v 18.048080 0.238216 0.000000
v 18.053165 0.238216 0.001164
v 18.063707 0.245379 0.005198
v 18.063707 0.243946 0.005198
v 18.038883 0.264920 -0.003058
v 18.038883 0.262175 -0.003058
v 18.051380 0.282413 0.000636
v 18.056633 0.281360 -0.000884
v 18.063625 0.271305 -0.002907
v 18.067188 0.291014 -0.003937
v 18.041449 0.277028 0.003509
v 18.044277 0.292322 0.002690
v 18.062220 0.233523 0.004629
v 18.072763 0.239253 0.008664
v 18.056183 0.250022 0.002319
v 18.066727 0.255752 0.006354
v 18.040840 0.250863 -0.002436
v 18.031971 0.258470 -0.005254
v 18.045906 0.265134 -0.000828
v 18.037035 0.272741 -0.003645
vt 0.500000 0.125000
vt 0.625000 0.125000
vt 0.625000 0.250000
vt 0.500000 0.250000
vt 0.500000 0.375000
vt 0.625000 0.375000
vt 0.625000 0.500000
vt 0.500000 0.500000
vt 0.500000 0.625000
vt 0.625000 0.625000
vt 0.625000 0.750000
vt 0.500000 0.750000
vt 0.500000 0.875000
vt 0.625000 0.875000
vt 0.625000 1.000000
vt 0.500000 1.000000
vt 0.250000 0.625000
vt 0.375000 0.625000
vt 0.375000 0.750000
vt 0.250000 0.750000
vt 0.750000 0.625000
vt 0.875000 0.625000
vt 0.875000 0.750000
vt 0.750000 0.750000
vt 0.750000 0.500000
vt 0.875000 0.500000
vt 0.250000 0.500000
vt 0.375000 0.500000
vt 0.500000 0.000000
vt 0.625000 0.000000
vt 0.375000 0.000000
vt 0.375000 0.125000
vt 0.375000 0.875000
vt 0.375000 1.000000
vt 0.375000 0.375000
vt 0.375000 0.250000
vt 0.125000 0.500000
vt 0.125000 0.625000
vt 0.125000 0.750000
vt 0.000000 0.952381
vt 1.000000 0.952381
vt 1.000000 1.000000
vt 0.000000 1.000000
vt 0.000000 1.000000
vt 1.000000 1.000000
vt 1.000000 1.000000
vt 0.000000 1.000000
vt 1.000000 1.000000
vt 0.000000 1.000000
vt 0.000000 0.000000
vt 1.000000 0.000000
vt 1.000000 0.952381
vt 1.000000 1.000000
vt 0.000000 1.000000
vt 0.000000 1.000000
vt 1.000000 1.000000
vt 0.000000 1.000000
vt 1.000000 1.000000
vt 1.000000 1.000000
vt 0.000000 1.000000
vt 0.000000 1.000000
vt 1.000000 0.952381
vt 1.000000 0.952381
vt 1.000000 1.000000
vt 1.000000 1.000000
vt 0.000000 1.000000
vt 0.000000 1.000000
vt 0.000000 1.000000
vt 0.000000 1.000000
vn -1.0000 0.0000 0.0000
vn 0.1913 0.2158 -0.9575
vn 1.0000 0.0001 0.0000
vn -0.1913 0.2158 0.9575
vn 0.1913 -0.9575 0.2157
vn -0.1913 0.9575 0.2158
vn -0.1913 0.9575 -0.2158
vn 0.1913 -0.9575 -0.2157
vn 1.0000 -0.0000 0.0000
vn -0.1913 -0.2158 0.9575
vn 1.0000 -0.0001 0.0000
vn 0.1913 -0.2158 -0.9575
vn -0.1913 -0.2158 -0.9575
vn 0.1913 -0.2157 0.9575
vn -0.1913 -0.9575 -0.2158
vn 0.1913 0.9575 -0.2157
vn 0.1913 0.9575 0.2157
vn -0.1913 -0.9575 0.2158
vn 0.1913 0.2157 0.9575
vn -0.1913 0.2158 -0.9575
vn -0.2231 0.0002 0.9748
vn -0.0409 0.0000 0.9992
vn 0.1091 -0.0509 0.9927
vn -0.1268 0.0473 0.9908
vn -0.1084 -0.0491 0.9929
vn -0.3575 0.0000 0.9339
vn -0.3027 -0.0001 0.9531
vn 0.2779 0.0000 0.9606
vn -0.3574 0.0000 0.9339
vn -0.3574 -0.0001 0.9339
vn -0.3027 0.0001 0.9531
usemtl None
s off
f 18/1/1 10/2/1 4/3/1 14/4/1
f 26/5/2 20/6/2 8/7/2 15/8/2
f 17/9/3 12/10/3 6/11/3 16/12/3
f 25/13/4 22/14/4 2/15/4 13/16/4
f 24/17/5 11/18/5 5/19/5 21/20/5
f 23/21/6 10/22/6 2/23/6 22/24/6
f 20/25/7 4/26/7 10/22/7 23/21/7
f 19/27/8 7/28/8 11/18/8 24/17/8
f 15/8/9 8/7/9 12/10/9 17/9/9
f 13/29/1 2/30/1 10/2/1 18/1/1
f 1/31/1 13/29/1 18/1/1 9/32/1
f 7/28/9 15/8/9 17/9/9 11/18/9
f 21/33/10 25/13/10 13/16/10 1/34/10
f 11/18/11 17/9/11 16/12/11 5/19/11
f 19/35/12 26/5/12 15/8/12 7/28/12
f 9/32/1 18/1/1 14/4/1 3/36/1
f 3/36/13 14/4/13 26/5/13 19/35/13
f 5/19/14 16/12/14 25/13/14 21/33/14
f 3/37/15 19/27/15 24/17/15 9/38/15
f 8/7/16 20/25/16 23/21/16 12/10/16
f 12/10/17 23/21/17 22/24/17 6/11/17
f 9/38/18 24/17/18 21/20/18 1/39/18
f 16/12/19 6/11/19 22/14/19 25/13/19
f 14/4/20 4/3/20 20/6/20 26/5/20
f 37/40/21 38/41/21 30/42/21 29/43/21
f 35/44/22 36/45/22 32/46/22 31/47/22
f 31/47/23 32/46/23 34/48/23 33/49/23
f 29/43/24 30/42/24 36/45/24 35/44/24
f 27/50/25 28/51/25 38/41/25 37/40/25
f 30/42/26 38/41/26 40/52/26 39/53/26
f 35/44/27 31/47/27 41/54/27 42/55/27
f 33/49/28 34/48/28 44/56/28 43/57/28
f 44/56/28 34/48/28 45/58/28 46/59/28
f 33/49/28 43/57/28 48/60/28 47/61/28
f 40/52/29 38/41/29 49/62/29 50/63/29
f 30/42/30 39/53/30 52/64/30 51/65/30
f 35/44/31 42/55/31 54/66/31 53/67/31
f 41/54/27 31/47/27 55/68/27 56/69/27
