# Blender v2.93.6 OBJ File: 'assets.blend'
# www.blender.org
mtllib tent.mtl
o Tent_Cube.003
v 13.718863 0.373443 -0.372166
v 13.359101 0.892233 -0.012405
v 13.718863 0.373443 -0.334949
v 13.359101 0.892233 -0.011165
v 13.357861 0.892233 -0.012405
v 13.681646 0.373443 -0.372166
v 13.681646 0.373443 -0.334949
v 13.357861 0.892233 -0.011165
v 13.718863 -0.000002 -0.334949
v 13.718863 -0.000002 -0.372166
v 13.681646 -0.000002 -0.372166
v 13.681646 -0.000002 -0.334949
v 13.368097 0.853802 -0.021401
v 13.718863 0.472925 -0.372166
v 13.718863 0.472925 -0.334949
v 13.681646 0.472925 -0.372166
v 13.718863 0.373443 0.372166
v 13.359101 0.892233 0.012405
v 13.718863 0.373443 0.334949
v 13.359101 0.892233 0.011165
v 13.357861 0.892233 0.012405
v 13.681646 0.373443 0.372166
v 13.681646 0.373443 0.334949
v 13.357861 0.892233 0.011165
v 13.718863 -0.000002 0.334949
v 13.718863 -0.000002 0.372166
v 13.681646 -0.000002 0.372166
v 13.681646 -0.000002 0.334949
v 13.368097 0.853802 0.021401
v 13.718863 0.472925 0.372166
v 13.718863 0.472925 0.334949
v 13.681646 0.472925 0.372166
v 13.718863 0.373443 0.000000
v 13.359101 0.892233 0.000000
v 13.357861 0.892233 0.000000
v 13.681646 0.373443 0.000000
v 13.368097 0.853802 0.000000
v 13.718863 0.472925 0.000000
v 12.974531 0.373443 -0.372166
v 13.334292 0.892233 -0.012405
v 12.974531 0.373443 -0.334949
v 13.334292 0.892233 -0.011165
v 13.335533 0.892233 -0.012405
v 13.011747 0.373443 -0.372166
v 13.011747 0.373443 -0.334949
v 13.335533 0.892233 -0.011165
v 12.974531 -0.000002 -0.334949
v 12.974531 -0.000002 -0.372166
v 13.011747 -0.000002 -0.372166
v 13.011747 -0.000002 -0.334949
v 13.325296 0.853802 -0.021401
v 12.974530 0.472925 -0.372166
v 12.974530 0.472925 -0.334949
v 13.011747 0.472925 -0.372166
v 13.346697 0.373443 -0.372166
v 13.346697 0.892233 -0.012405
v 13.346697 0.892233 -0.011165
v 13.346697 0.373443 -0.334949
v 13.346697 0.853802 -0.021401
v 13.346697 0.472925 -0.372166
v 12.974531 0.373443 0.372166
v 13.334292 0.892233 0.012405
v 12.974531 0.373443 0.334949
v 13.334292 0.892233 0.011165
v 13.335533 0.892233 0.012405
v 13.011747 0.373443 0.372166
v 13.011747 0.373443 0.334949
v 13.335533 0.892233 0.011165
v 12.974531 -0.000002 0.334949
v 12.974531 -0.000002 0.372166
v 13.011747 -0.000002 0.372166
v 13.011747 -0.000002 0.334949
v 13.325296 0.853802 0.021401
v 12.974530 0.472925 0.372166
v 12.974530 0.472925 0.334949
v 13.011747 0.472925 0.372166
v 13.346697 0.373443 0.372166
v 13.346697 0.892233 0.012405
v 13.346697 0.892233 0.011165
v 13.346697 0.373443 0.334949
v 13.346697 0.853802 0.021401
v 13.346697 0.472925 0.372166
v 12.974531 0.373443 0.000000
v 13.334292 0.892233 0.000000
v 13.335533 0.892233 0.000000
v 13.011747 0.373443 0.000000
v 13.325296 0.853802 0.000000
v 12.974530 0.472925 0.000000
v 13.346697 0.892233 0.000000
v 13.346697 0.853802 0.000000
vt 0.422939 0.487500
vt 0.625000 0.487500
vt 0.625000 0.500000
vt 0.422939 0.500000
vt 0.637500 0.512500
vt 0.750000 0.512500
vt 0.750000 0.625000
vt 0.637500 0.625000
vt 0.422939 0.512500
vt 0.625000 0.512500
vt 0.625000 0.625000
vt 0.422939 0.625000
vt 0.362500 0.512500
vt 0.375000 0.512500
vt 0.375000 0.625000
vt 0.362500 0.625000
vt 0.375000 0.487500
vt 0.375000 0.500000
vt 0.375000 0.500000
vt 0.375000 0.487500
vt 0.637500 0.500000
vt 0.750000 0.500000
vt 0.250000 0.500000
vt 0.362500 0.500000
vt 0.250000 0.512500
vt 0.362500 0.512500
vt 0.250000 0.512500
vt 0.422939 0.375000
vt 0.625000 0.375000
vt 0.362500 0.500000
vt 0.375000 0.512500
vt 0.362500 0.512500
vt 0.362500 0.625000
vt 0.250000 0.625000
vt 0.375000 0.375000
vt 0.422939 0.487500
vt 0.422939 0.500000
vt 0.625000 0.500000
vt 0.625000 0.487500
vt 0.637500 0.512500
vt 0.750000 0.512500
vt 0.422939 0.512500
vt 0.625000 0.512500
vt 0.362500 0.512500
vt 0.375000 0.512500
vt 0.375000 0.487500
vt 0.375000 0.487500
vt 0.375000 0.500000
vt 0.375000 0.500000
vt 0.637500 0.500000
vt 0.750000 0.500000
vt 0.250000 0.500000
vt 0.250000 0.512500
vt 0.362500 0.500000
vt 0.250000 0.512500
vt 0.362500 0.512500
vt 0.422939 0.375000
vt 0.625000 0.375000
vt 0.362500 0.500000
vt 0.362500 0.512500
vt 0.375000 0.512500
vt 0.375000 0.375000
vt 0.422939 0.487500
vt 0.422939 0.500000
vt 0.625000 0.500000
vt 0.625000 0.487500
vt 0.637500 0.512500
vt 0.637500 0.625000
vt 0.422939 0.512500
vt 0.422939 0.625000
vt 0.625000 0.625000
vt 0.625000 0.512500
vt 0.362500 0.512500
vt 0.362500 0.625000
vt 0.375000 0.625000
vt 0.375000 0.512500
vt 0.375000 0.487500
vt 0.375000 0.487500
vt 0.375000 0.500000
vt 0.375000 0.500000
vt 0.637500 0.500000
vt 0.362500 0.500000
vt 0.362500 0.512500
vt 0.362500 0.500000
vt 0.362500 0.512500
vt 0.375000 0.512500
vt 0.362500 0.625000
vt 0.422939 0.487500
vt 0.625000 0.487500
vt 0.625000 0.500000
vt 0.422939 0.500000
vt 0.637500 0.512500
vt 0.422939 0.512500
vt 0.625000 0.512500
vt 0.362500 0.512500
vt 0.375000 0.512500
vt 0.375000 0.487500
vt 0.375000 0.500000
vt 0.375000 0.500000
vt 0.375000 0.487500
vt 0.637500 0.500000
vt 0.362500 0.500000
vt 0.362500 0.512500
vt 0.362500 0.500000
vt 0.375000 0.512500
vt 0.362500 0.512500
vn -0.0000 0.6512 -0.7589
vn 0.0000 1.0000 -0.0000
vn 0.7589 0.6512 0.0000
vn 0.0000 -1.0000 0.0000
vn 0.0000 0.0000 -1.0000
vn 0.7589 0.6511 0.0000
vn 0.0000 1.0000 -0.0001
vn 0.0000 -0.5466 0.8374
vn 1.0000 0.0000 0.0000
vn 0.0000 0.0000 1.0000
vn -1.0000 0.0000 0.0000
vn -0.8374 -0.5466 0.0000
vn -0.0000 0.6512 0.7589
vn 0.7590 0.6511 0.0000
vn 0.0000 1.0000 0.0001
vn 0.0000 -0.5466 -0.8374
vn 0.0000 0.6511 -0.7590
vn -0.7589 0.6512 0.0000
vn 0.8374 -0.5466 0.0000
vn 0.0000 0.6511 0.7590
usemtl None
s off
f 16/1/1 5/2/1 2/3/1 14/4/1
f 8/5/2 57/6/2 89/7/2 35/8/2
f 15/9/3 4/10/3 34/11/3 38/12/3
f 7/13/4 3/14/4 33/15/4 36/16/4
f 6/17/5 1/18/5 10/19/5 11/20/5
f 14/4/6 2/3/6 4/10/6 15/9/6
f 5/21/7 56/22/7 57/6/7 8/5/7
f 2/3/2 5/21/2 8/5/2 4/10/2
f 55/23/4 6/24/4 7/13/4 58/25/4
f 58/25/8 7/13/8 13/26/8 59/27/8
f 4/10/2 8/5/2 35/8/2 34/11/2
f 60/28/1 56/29/1 5/2/1 16/1/1
f 11/30/4 10/19/4 9/31/4 12/32/4
f 1/18/9 3/14/9 9/31/9 10/19/9
f 3/14/10 7/13/10 12/32/10 9/31/10
f 7/13/11 6/24/11 11/30/11 12/32/11
f 59/27/4 13/26/4 37/33/4 90/34/4
f 7/13/12 36/16/12 37/33/12 13/26/12
f 55/35/5 60/28/5 16/1/5 6/17/5
f 1/18/9 14/4/9 15/9/9 3/14/9
f 3/14/9 15/9/9 38/12/9 33/15/9
f 6/17/5 16/1/5 14/4/5 1/18/5
f 32/36/13 30/37/13 18/38/13 21/39/13
f 24/40/2 35/8/2 89/7/2 79/41/2
f 31/42/3 38/12/3 34/11/3 20/43/3
f 23/44/4 36/16/4 33/15/4 19/45/4
f 22/46/10 27/47/10 26/48/10 17/49/10
f 30/37/14 31/42/14 20/43/14 18/38/14
f 21/50/15 24/40/15 79/41/15 78/51/15
f 18/38/2 20/43/2 24/40/2 21/50/2
f 77/52/4 80/53/4 23/44/4 22/54/4
f 80/53/16 81/55/16 29/56/16 23/44/16
f 20/43/2 34/11/2 35/8/2 24/40/2
f 82/57/13 32/36/13 21/39/13 78/58/13
f 27/59/4 28/60/4 25/61/4 26/48/4
f 17/49/9 26/48/9 25/61/9 19/45/9
f 19/45/5 25/61/5 28/60/5 23/44/5
f 23/44/11 28/60/11 27/59/11 22/54/11
f 81/55/4 90/34/4 37/33/4 29/56/4
f 23/44/12 29/56/12 37/33/12 36/16/12
f 77/62/10 22/46/10 32/36/10 82/57/10
f 17/49/9 19/45/9 31/42/9 30/37/9
f 19/45/9 33/15/9 38/12/9 31/42/9
f 22/46/10 17/49/10 30/37/10 32/36/10
f 54/63/17 52/64/17 40/65/17 43/66/17
f 46/67/2 85/68/2 89/7/2 57/6/2
f 53/69/18 88/70/18 84/71/18 42/72/18
f 45/73/4 86/74/4 83/75/4 41/76/4
f 44/77/5 49/78/5 48/79/5 39/80/5
f 52/64/18 53/69/18 42/72/18 40/65/18
f 43/81/7 46/67/7 57/6/7 56/22/7
f 40/65/2 42/72/2 46/67/2 43/81/2
f 55/23/4 58/25/4 45/73/4 44/82/4
f 58/25/8 59/27/8 51/83/8 45/73/8
f 42/72/2 84/71/2 85/68/2 46/67/2
f 60/28/1 54/63/1 43/66/1 56/29/1
f 49/84/4 50/85/4 47/86/4 48/79/4
f 39/80/11 48/79/11 47/86/11 41/76/11
f 41/76/10 47/86/10 50/85/10 45/73/10
f 45/73/9 50/85/9 49/84/9 44/82/9
f 59/27/4 90/34/4 87/87/4 51/83/4
f 45/73/19 51/83/19 87/87/19 86/74/19
f 55/35/5 44/77/5 54/63/5 60/28/5
f 39/80/11 41/76/11 53/69/11 52/64/11
f 41/76/11 83/75/11 88/70/11 53/69/11
f 44/77/5 39/80/5 52/64/5 54/63/5
f 76/88/20 65/89/20 62/90/20 74/91/20
f 68/92/2 79/41/2 89/7/2 85/68/2
f 75/93/18 64/94/18 84/71/18 88/70/18
f 67/95/4 63/96/4 83/75/4 86/74/4
f 66/97/10 61/98/10 70/99/10 71/100/10
f 74/91/18 62/90/18 64/94/18 75/93/18
f 65/101/15 78/51/15 79/41/15 68/92/15
f 62/90/2 65/101/2 68/92/2 64/94/2
f 77/52/4 66/102/4 67/95/4 80/53/4
f 80/53/16 67/95/16 73/103/16 81/55/16
f 64/94/2 68/92/2 85/68/2 84/71/2
f 82/57/13 78/58/13 65/89/13 76/88/13
f 71/104/4 70/99/4 69/105/4 72/106/4
f 61/98/11 63/96/11 69/105/11 70/99/11
f 63/96/5 67/95/5 72/106/5 69/105/5
f 67/95/9 66/102/9 71/104/9 72/106/9
f 81/55/4 73/103/4 87/87/4 90/34/4
f 67/95/19 86/74/19 87/87/19 73/103/19
f 77/62/10 82/57/10 76/88/10 66/97/10
f 61/98/11 74/91/11 75/93/11 63/96/11
f 63/96/11 75/93/11 88/70/11 83/75/11
f 66/97/10 76/88/10 74/91/10 61/98/10
